<?xml version="1.0" encoding="iso-8859-1"?>

<!DOCTYPE svg PUBLIC "-//W3C//DTD SVG 1.1//EN" "http://www.w3.org/Graphics/SVG/1.1/DTD/svg11.dtd">
<!-- Uploaded to: SVG Repo, www.svgrepo.com, Generator: SVG Repo Mixer Tools -->
<svg height="800px" width="800px" version="1.1" id="_x35_" xmlns="http://www.w3.org/2000/svg" xmlns:xlink="http://www.w3.org/1999/xlink" 
	 viewBox="0 0 512 512"  xml:space="preserve">
<g>
	<g>
		<g>
			<g>
				<path style="fill:#EBE5D3;" d="M136.397,11.123l0.385,84.594c0.027,5.962-4.531,10.827-10.137,10.827H68.472
					c-5.584,0-10.241-4.864-10.334-10.827l-1.33-84.594C56.711,5.006,61.282,0,66.951,0h59.055
					C131.696,0,136.369,5.006,136.397,11.123z"/>
				<path style="fill:#EBE5D3;" d="M280.83,11.123l-1.331,84.594c-0.094,5.962-4.751,10.827-10.356,10.827h-58.151
					c-5.606,0-10.164-4.864-10.137-10.827l0.385-84.594C201.268,5.006,205.941,0,211.632,0h59.032
					C276.355,0,280.926,5.006,280.83,11.123z"/>
			</g>
			<polygon style="opacity:0.1;fill:#040000;" points="136.502,34.234 136.748,88.163 58.019,88.163 57.171,34.234 			"/>
			<polygon style="opacity:0.1;fill:#040000;" points="280.466,34.234 279.618,88.163 200.889,88.163 201.135,34.234 			"/>
		</g>
		<path style="fill:#904D5D;" d="M337.6,70.565l-0.143,7.149l-1.144,45.752l-2.073,88.573l-1.215,49.898l-5.505,232.477
			c-0.286,9.651-8.364,17.586-18.015,17.586H33.85c-1,0-1.93-0.072-2.859-0.214c-10.723-1.287-19.445-9.937-20.874-20.803
			c0,0,0,0,0-0.072c-0.072-0.715-0.143-1.501-0.143-2.288L4.826,272.875l-0.214-10.937l-1.287-53.544l-2.002-84.927L0.18,77.643
			l-0.143-7.077c-0.286-11.009,7.935-20.016,18.301-20.016H319.3c0.071,0,0.071,0,0.143,0c9.722,0.072,17.443,8.078,18.086,18.086
			C337.6,69.279,337.6,69.922,337.6,70.565z"/>
		<path style="opacity:0.1;fill:#FFFFFF;" d="M337.63,70.597l-0.197,8.245c0.263-10.982-7.955-20.004-18.298-20.004H18.48
			c-10.321,0-18.539,8.998-18.276,19.981l-0.197-8.246C-0.257,59.566,7.97,50.546,18.303,50.546h301.008
			C329.667,50.546,337.893,59.589,337.63,70.597z"/>
		<path style="fill:#EBE5D3;" d="M327.735,483.762l-0.215,10.652c-0.286,9.651-8.364,17.586-18.015,17.586H33.85
			c-1,0-1.93-0.072-2.859-0.214c-10.723-1.287-19.445-9.937-20.874-20.803c0,0,0,0,0-0.072c-0.072-0.715-0.143-1.501-0.143-2.288
			l-0.072-4.861c3.86,2.216,8.435,3.503,13.225,3.503h291.311C319.3,487.265,323.803,485.978,327.735,483.762z"/>
		<polygon style="fill:#EAEAEA;" points="336.366,123.47 333.056,261.961 4.581,261.961 1.271,123.47 		"/>
		<polygon style="fill:#EAEAEA;" points="133.147,472.253 120.741,472.253 119.361,281.099 132.123,281.099 		"/>
		<g>
			<path style="fill:#C6A97F;" d="M78.459,202.674c-0.286-0.858-0.715-1.573-1.144-2.287c-0.5-0.715-1.001-1.43-1.572-2.002
				c-1.144-1.215-2.431-2.216-3.932-2.86c-1.501-0.715-3.145-1.287-4.789-1.716c2.645-0.858,4.933-2.359,6.863-4.646
				c1.859-2.288,2.788-5.219,2.717-8.865c0-3.145-0.715-5.79-2.073-7.863c-1.358-2.145-3.288-3.789-5.862-5.076
				c-2.502-1.215-5.576-2.145-9.222-2.645c-3.574-0.572-7.649-0.786-12.153-0.786H32.063l1.216,62.408h16.227
				c0.643,0,1.287,0,1.93-0.071c9.151-0.143,16.085-1.43,20.732-4.003c5.004-2.788,7.435-7.292,7.363-13.511
				C79.531,206.391,79.173,204.39,78.459,202.674z M46.003,177.439h4.718c4.217,0,7.149,0.429,8.793,1.287
				c1.716,0.786,2.573,2.288,2.573,4.361c0,2.145-0.858,3.646-2.573,4.432c-1.716,0.858-4.575,1.216-8.579,1.216h-4.79
				L46.003,177.439z M51.15,213.54h-4.504l-0.286-13.869h4.718c4.575,0,8.007,0.501,10.366,1.43
				c2.288,1.001,3.503,2.788,3.503,5.433c0.071,1.215-0.143,2.216-0.501,3.074c-0.429,0.929-1.072,1.644-2.145,2.216
				c-1.001,0.572-2.431,0.929-4.218,1.287C56.297,213.397,54.01,213.54,51.15,213.54z"/>
			<path style="fill:#C6A97F;" d="M122.638,203.032c-0.072-3.646-0.429-6.649-1.144-9.079c-0.715-2.359-1.787-4.289-3.145-5.719
				c-1.358-1.43-3.002-2.431-5.004-3.003c-2.073-0.643-4.361-0.929-6.934-0.929c-3.932,0-7.435,0.357-10.509,1.001
				c-1.787,0.357-3.36,0.787-4.575,1.144c-0.858,0.214-1.573,0.501-2.145,0.715l0.286,1.144l2.288,10.294
				c12.296-2.645,18.086-2.073,17.443,1.858c-3.36,0.072-6.434,0.358-9.365,0.858c-2.86,0.572-5.433,1.358-7.506,2.574
				c-2.145,1.144-3.789,2.645-5.004,4.575c-1.216,1.93-1.859,4.218-1.787,7.006c0,1.787,0.286,3.36,0.929,4.718
				c0.571,1.43,1.429,2.645,2.502,3.646c1.001,1.001,2.288,1.716,3.717,2.288c1.43,0.501,3.002,0.786,4.646,0.786
				c2.86,0,5.29-0.429,7.363-1.215c2.001-0.786,3.86-1.716,5.647-2.717l0.786,3.36h11.652L122.638,203.032z M109.412,213.612
				c-0.929,0.643-2.073,1.215-3.503,1.787c-1.358,0.501-2.788,0.786-4.289,0.786c-1.716,0-2.645-1.072-2.645-3.074
				c0-1.215,0.786-2.288,2.359-3.36c1.573-1.001,4.218-1.573,8.078-1.645V213.612z"/>
			<path style="fill:#C6A97F;" d="M157.095,214.326c-0.787,0.072-1.573,0.215-2.288,0.286c-0.715,0-1.358,0.072-2.002,0.072
				c-2.001,0-3.431-0.429-4.146-1.216c-0.786-0.858-1.215-2.502-1.215-4.861v-11.867h9.865v-12.439h-9.937v-12.94h-13.654
				l0.072,12.94h-6.148l0.071,12.439h6.077l0.072,13.725c0.071,3.289,0.429,6.076,1.144,8.15c0.715,2.145,1.716,3.789,3.002,5.004
				c1.287,1.287,2.788,2.073,4.575,2.574c1.716,0.5,3.646,0.715,5.79,0.715c1.859,0,3.717-0.143,5.505-0.357
				c1.859-0.215,3.288-0.5,4.432-0.786L157.095,214.326z"/>
			<path style="fill:#C6A97F;" d="M191.194,214.326c-0.786,0.072-1.572,0.215-2.288,0.286c-0.715,0-1.429,0.072-2.001,0.072
				c-2.073,0-3.431-0.429-4.218-1.216c-0.715-0.858-1.144-2.502-1.144-4.861l0.072-11.867h9.865l0.071-12.439h-9.936v-12.94H167.96
				v12.94h-6.076v12.439h6.076v13.725c0,3.289,0.357,6.076,1.073,8.15c0.715,2.145,1.716,3.789,3.002,5.004
				c1.287,1.287,2.788,2.073,4.504,2.574c1.787,0.5,3.717,0.715,5.862,0.715c1.859,0,3.646-0.143,5.505-0.357
				c1.787-0.215,3.288-0.5,4.432-0.786L191.194,214.326z"/>
			<path style="fill:#C6A97F;" d="M228.153,213.469c-0.858,0.215-1.787,0.429-2.717,0.644c-0.929,0.214-1.859,0.357-2.86,0.501
				c-1.072,0.072-2.001,0.143-2.788,0.143c-2.574,0-4.575-0.357-6.005-1.144c-1.358-0.786-2.359-2.073-2.931-4.003h23.877
				c0.286-4.79-0.071-8.864-1.001-12.153c-1.001-3.289-2.288-6.005-3.932-8.007c-1.644-2.002-3.574-3.431-5.79-4.361
				c-2.216-0.858-4.647-1.287-7.149-1.287c-2.288,0-4.575,0.357-6.863,1.215c-2.359,0.858-4.432,2.145-6.291,3.932
				c-1.859,1.787-3.431,4.003-4.575,6.72c-1.216,2.717-1.859,5.934-1.859,9.722c0,3.717,0.5,6.934,1.572,9.651
				c1.072,2.645,2.502,4.933,4.432,6.648c1.93,1.787,4.218,3.074,6.863,3.932c2.717,0.858,5.647,1.287,8.864,1.287
				c2.931,0,5.647-0.286,8.15-0.929c2.502-0.643,4.432-1.215,5.79-1.859l-2.788-11.366
				C229.654,212.968,228.939,213.183,228.153,213.469z M216.786,195.168c3.503,0,5.29,2.073,5.433,6.291h-11.581
				C211.425,197.241,213.427,195.168,216.786,195.168z"/>
			<path style="fill:#C6A97F;" d="M264.183,184.588c-1.287,0.429-2.431,0.858-3.574,1.287c-1.144,0.429-2.145,0.929-3.074,1.358
				c-0.929,0.5-1.787,0.929-2.431,1.358l-0.786-4.289h-12.081l-0.429,42.034h13.583l0.286-24.878
				c1.501-0.858,3.217-1.644,5.218-2.288c1.93-0.715,4.218-1.287,6.791-1.716l0.143-13.869
				C266.613,183.873,265.398,184.23,264.183,184.588z"/>
			<path style="fill:#C6A97F;" d="M301.141,184.302l-9.007,22.447l-7.363-22.447h-14.297l14.011,41.534l-6.719,17.014h13.225
				l23.519-58.548H301.141z"/>
		</g>
	</g>
	<path style="opacity:0.07;fill:#040000;" d="M336.74,123.466l0.897-35.861L8.681,416.561l1.719,72.063
		c0,0.787,0.072,1.573,0.143,2.288c0,0.072,0,0.072,0,0.072c1.429,10.866,10.151,19.516,20.874,20.803
		c0.929,0.143,1.859,0.214,2.859,0.214h275.655c9.651,0,17.729-7.935,18.015-17.586l5.504-232.453h0.031l3.31-138.491h-0.053
		V123.466z"/>
</g>
</svg>