<?xml version="1.0" encoding="iso-8859-1"?>

<!DOCTYPE svg PUBLIC "-//W3C//DTD SVG 1.1//EN" "http://www.w3.org/Graphics/SVG/1.1/DTD/svg11.dtd">
<!-- Uploaded to: SVG Repo, www.svgrepo.com, Generator: SVG Repo Mixer Tools -->
<svg height="800px" width="800px" version="1.1" id="_x35_" xmlns="http://www.w3.org/2000/svg" xmlns:xlink="http://www.w3.org/1999/xlink" 
	 viewBox="0 0 512 512"  xml:space="preserve">
<g>
	<g>
		<g>
			<polygon style="fill:#6D8D7C;" points="347.086,444.333 249.576,371.249 171.926,259.108 274.803,145.808 140.428,46.318 
				37.175,158.511 12.91,136.18 136.232,2.178 323.718,140.993 213.954,261.877 273.64,348.074 356.012,409.81 483.857,392.156 
				488.368,424.823 			"/>
		</g>
		<polygon style="fill:#F3F2A7;" points="132.77,0 141.749,14.771 159.008,15.748 147.734,28.853 152.138,45.569 136.191,38.897 
			121.654,48.251 123.072,31.022 109.684,20.087 126.507,16.112 		"/>
		<polygon style="fill:#F3F2A7;" points="23.575,110.658 34.068,125.969 52.63,126.006 41.31,140.717 47.012,158.381 
			29.523,152.162 14.484,163.043 14.995,144.488 0,133.548 17.805,128.3 		"/>
		<polygon style="fill:#F3F2A7;" points="308.163,115.364 304.894,136.037 320.071,150.45 299.399,153.729 290.382,172.617 
			280.875,153.971 260.125,151.231 274.921,136.428 271.114,115.846 289.766,125.344 		"/>
		<polygon style="fill:#F3F2A7;" points="203.383,231.04 206.594,248.28 222.616,255.409 207.212,263.79 205.384,281.231 
			192.653,269.171 175.5,272.821 183.036,256.986 174.264,241.802 191.652,244.075 		"/>
		<polygon style="fill:#F3F2A7;" points="252.693,326.155 263.657,340.296 281.521,339.281 271.46,354.078 277.945,370.754 
			260.764,365.758 246.907,377.079 246.35,359.194 231.301,349.515 248.138,343.458 		"/>
		<polygon style="fill:#F3F2A7;" points="350.113,398.372 360.889,412.645 378.756,411.859 368.512,426.518 374.78,443.268 
			357.673,438.055 343.68,449.193 343.351,431.311 328.434,421.445 345.339,415.607 		"/>
		<polygon style="fill:#F3F2A7;" points="500.239,383.997 498.031,402.473 512,414.766 493.746,418.375 486.371,435.458 
			477.297,419.214 458.771,417.479 471.417,403.829 467.342,385.673 484.232,393.483 		"/>
	</g>
	<polygon style="fill:none;" points="222.616,255.409 217.106,258.406 213.955,261.877 256,322.599 256,215.573 220.63,254.525 	"/>
	<polygon style="fill:none;" points="260.125,151.231 269.483,141.868 256,131.886 256,166.515 268.834,152.381 	"/>
	<g style="opacity:0.1;">
		<polygon style="fill:#040000;" points="498.032,402.473 500.239,383.996 484.232,393.482 484.027,393.388 483.857,392.157 
			481.937,392.422 467.342,385.674 469.25,394.173 358.491,409.468 350.113,398.371 348.503,404.183 274.9,349.018 281.521,339.281 
			268.08,340.045 256,322.599 256,376.064 343.542,441.676 343.68,449.193 350.353,443.882 368.549,441.369 374.78,443.268 
			373.798,440.644 480.999,425.84 486.371,435.458 493.746,418.375 512,414.766 		"/>
		<polygon style="fill:#040000;" points="320.071,150.45 317.418,147.931 323.718,140.993 306.165,127.997 308.163,115.363 
			297.163,121.331 256,90.855 256,131.886 269.483,141.868 260.125,151.231 268.834,152.381 256,166.515 256,215.573 314.3,151.365 
					"/>
	</g>
</g>
</svg>