<?xml version="1.0" encoding="iso-8859-1"?>

<!DOCTYPE svg PUBLIC "-//W3C//DTD SVG 1.1//EN" "http://www.w3.org/Graphics/SVG/1.1/DTD/svg11.dtd">
<!-- Uploaded to: SVG Repo, www.svgrepo.com, Generator: SVG Repo Mixer Tools -->
<svg height="800px" width="800px" version="1.1" id="_x35_" xmlns="http://www.w3.org/2000/svg" xmlns:xlink="http://www.w3.org/1999/xlink" 
	 viewBox="0 0 512 512"  xml:space="preserve">
<g>
	<path style="fill:none;" d="M117.936,333.126c12.463-2.839,21.808-13.942,21.808-27.226V87.197c0-7.316-1.478-14.29-4.158-20.641
		c0.763,1.003,1.355,2.128,2.047,3.183c-4.322-12.584-13.267-22.982-24.743-29.359v293.256
		C114.611,333.611,116.3,333.448,117.936,333.126z"/>
	<path style="fill:none;" d="M50.905,305.695V164.424c0-9.278,7.522-16.802,16.801-16.802c9.279,0,16.801,7.523,16.801,16.802
		v141.271c0,15.426,12.572,27.977,28.024,27.977c0.123,0,0.236-0.034,0.358-0.036V40.38c-7.66-4.255-16.416-6.767-25.793-6.767
		c-29.476,0-53.457,23.947-53.457,53.383v9.532v211.896v90.824c0,37.964,26.913,69.745,62.678,77.377
		c0.603,0.122,1.208,0.235,1.815,0.342c1.833,0.348,3.687,0.634,5.562,0.85c2.754,0.292,5.527,0.521,8.357,0.521
		c0.283,0,0.556-0.039,0.839-0.041V367.256c-0.121,0-0.238,0.017-0.358,0.017C78.55,367.273,50.905,339.65,50.905,305.695z"/>
	<g>
		<g>
			<path style="fill:#EEDAAC;" d="M225.778,96.553v302.681c0,62.186-50.627,112.734-112.889,112.734
				c-20.728,0-40.224-5.625-56.945-15.411c-14.949-8.784-27.741-20.882-37.296-35.291c-0.077-0.154-0.154-0.386-0.308-0.54
				c-1.079-1.541-2.081-3.159-3.005-4.856c-0.308-0.463-0.539-0.924-0.847-1.464c-2.466-4.316-4.624-8.784-6.473-13.485
				c-0.308-0.692-0.616-1.464-0.848-2.235c-1.772-4.699-3.236-9.478-4.315-14.486c-0.308-1.309-0.617-2.621-0.848-3.93
				c-0.385-1.772-0.617-3.544-0.848-5.318c-0.231-1.387-0.462-2.773-0.539-4.237c-0.231-1.849-0.386-3.699-0.462-5.625
				C0.077,403.087,0,401.161,0,399.234V86.998C0,39.069,39.068,0,87.075,0c2.004,0,4.084,0.077,6.088,0.231
				c2.389,0.154,4.778,0.386,7.166,0.771c1.772,0.307,3.544,0.615,5.24,1.001c2.466,0.54,4.932,1.155,7.321,1.926
				c0.385,0.154,0.77,0.231,1.156,0.386c1.926,0.615,3.93,1.386,5.856,2.158c0.077,0,0.154,0.075,0.231,0.075
				c0.462,0.233,1.001,0.463,1.464,0.617c0.077,0.077,0.154,0.154,0.231,0.154c1.002,0.386,2.004,0.848,2.928,1.309
				c1.079,0.54,2.157,1.08,3.236,1.62c0.231,0.152,0.462,0.231,0.694,0.386c1.849,1.001,3.621,2.081,5.394,3.159
				c0.231,0.231,0.539,0.386,0.77,0.54c0.077,0.075,0.154,0.075,0.231,0.154c0.309,0.23,0.694,0.461,1.002,0.692
				c0.077,0.077,0.231,0.154,0.309,0.231c0.154,0,0.231,0.077,0.308,0.231c0.848,0.538,1.696,1.155,2.466,1.695
				c1.079,0.848,2.235,1.695,3.313,2.543c0.154,0.152,0.308,0.307,0.462,0.461c0.077,0.079,0.077,0.079,0.154,0.079
				c0.693,0.615,1.387,1.232,2.081,1.847c1.156,1.003,2.234,2.006,3.313,3.083c0.231,0.231,0.462,0.54,0.77,0.848
				c0.77,0.769,1.541,1.539,2.234,2.31c0.539,0.54,1.002,1.155,1.541,1.695c0.385,0.54,0.771,1.003,1.233,1.466
				c0.231,0.309,0.539,0.692,0.77,1.001c0.617,0.771,1.233,1.541,1.772,2.312c0.386,0.461,0.694,0.924,1.002,1.387
				c0.231,0.386,0.54,0.771,0.848,1.155c0.077,0.154,0.231,0.308,0.308,0.463c0.077,0.154,0.154,0.231,0.308,0.386
				c0,0.077,0.077,0.231,0.154,0.308c0.077,0.077,0.154,0.231,0.231,0.309c0.386,0.54,0.771,1.155,1.079,1.772
				c0.309,0.386,0.539,0.769,0.771,1.155c0.616,1.003,1.156,2.081,1.772,3.083c0.308,0.615,0.617,1.155,0.925,1.772
				c0.462,0.847,0.925,1.695,1.31,2.543v0.075h0.077c0,0.077,0.077,0.077,0.077,0.154c2.004,4.161,3.622,8.554,4.932,13.022
				c0.462,1.62,0.848,3.161,1.233,4.701c0.385,1.618,0.694,3.238,1.002,4.856c0.308,1.618,0.539,3.236,0.694,4.854
				c0.231,1.618,0.385,3.313,0.462,4.933c0.077,1.693,0.154,3.39,0.154,5.085v221.463c0,1.001-0.077,1.926-0.231,2.852
				c-0.385,3.928-1.079,7.781-2.158,11.404c-2.62,9.169-7.397,17.492-13.639,24.427c-2.081,2.235-4.315,4.316-6.627,6.088
				c-1.849,1.695-3.93,3.159-6.01,4.468c-1.618,1.003-3.236,1.927-4.855,2.775c-3.468,1.772-7.089,3.236-10.865,4.316
				c-1.773,0.538-3.622,1.001-5.471,1.309c-1.926,0.386-3.853,0.692-5.856,0.847c-1.849,0.233-3.699,0.309-5.548,0.309h-0.386
				c-33.982,0-61.569-27.585-61.569-61.569V164.441c0-9.324,7.475-16.8,16.799-16.8c9.247,0,16.798,7.476,16.798,16.8v141.245
				c0,15.411,12.56,27.973,27.972,27.973h0.386c1.695-0.077,3.39-0.231,5.008-0.54h0.231c0.77-0.154,1.464-0.309,2.157-0.54
				c11.713-3.39,20.266-14.177,20.266-26.893V86.998c0-6.011-1.002-11.867-2.928-17.261c0-0.231-0.077-0.386-0.154-0.54
				c0-0.077,0-0.077-0.077-0.077c-0.386-1.309-0.925-2.619-1.541-3.853c-0.077-0.154-0.154-0.309-0.231-0.463
				c-0.539-1.386-1.233-2.773-2.08-4.082c-4.777-8.631-12.021-15.72-20.651-20.498c-7.706-4.239-16.49-6.626-25.814-6.626
				c-29.436,0-53.401,23.964-53.401,53.4v312.236c0,40.995,31.208,74.668,71.124,78.752c1.156,0.077,2.389,0.154,3.545,0.309
				c1.233,0.077,2.466,0.077,3.699,0.077h0.848c1.078,0,2.157-0.077,3.236-0.077c42.227-1.697,75.978-36.448,75.978-79.061V96.553
				H225.778z"/>
			<path style="opacity:0.07;fill:#040000;" d="M139.743,305.9V87.197c0-7.317-1.479-14.29-4.158-20.64
				c6.821,8.964,10.879,20.136,10.879,32.242v218.703c0,15.424-12.567,27.974-28.025,27.974c-12.752,0-23.547-8.552-26.924-20.204
				c5.107,5.301,12.273,8.602,20.204,8.602C127.176,333.874,139.743,321.323,139.743,305.9z"/>
			<path style="fill:#FBE6B7;" d="M164.209,46.774c0.462,0.847,0.925,1.695,1.31,2.543c-0.077-0.079-0.154-0.079-0.154-0.154
				c-12.252-17.646-30.823-30.593-52.476-35.37c-6.165-1.466-12.484-2.158-19.033-2.158c-48.006,0-87.075,38.991-87.075,86.998
				V410.87c0,16.566,3.545,32.364,10.095,46.543c0.462,1.155,1.002,2.235,1.464,3.313c-1.002-1.541-2.004-3.083-2.851-4.701
				c0,0-0.154-0.077-0.154-0.154c-0.308-0.463-0.539-0.924-0.847-1.464c-2.466-4.316-4.624-8.784-6.473-13.485
				c-0.308-0.692-0.616-1.464-0.848-2.235c-1.772-4.699-3.236-9.478-4.315-14.486c-0.308-1.309-0.617-2.621-0.848-3.93
				c-0.385-1.772-0.617-3.544-0.848-5.318c-0.231-1.387-0.462-2.773-0.539-4.237c-0.231-1.849-0.386-3.699-0.462-5.625
				C0.077,403.087,0,401.161,0,399.234V86.998C0,39.069,39.068,0,87.075,0c2.004,0,4.084,0.077,6.088,0.231
				c2.389,0.154,4.778,0.386,7.166,0.771c1.772,0.307,3.544,0.615,5.24,1.001c2.466,0.54,4.932,1.155,7.321,1.926
				c0.385,0.154,0.77,0.231,1.156,0.386c1.926,0.615,3.93,1.386,5.856,2.158c0.077,0,0.154,0.075,0.231,0.075
				c0.462,0.233,1.001,0.463,1.464,0.617c0.077,0.077,0.154,0.154,0.231,0.154c1.002,0.386,2.004,0.848,2.928,1.309
				c1.079,0.54,2.157,1.08,3.236,1.62c0.231,0.152,0.462,0.231,0.694,0.386c1.849,1.001,3.621,2.081,5.394,3.159
				c0.231,0.231,0.539,0.386,0.77,0.54c0.077,0.075,0.154,0.075,0.231,0.154c0.309,0.23,0.694,0.461,1.002,0.692
				c0.077,0.077,0.231,0.154,0.309,0.231l0.077,0.077c0.077,0.077,0.154,0.077,0.231,0.154c0.848,0.538,1.696,1.155,2.466,1.695
				c0.77,0.694,1.541,1.232,2.312,1.849c0.385,0.231,0.694,0.463,1.002,0.694c0.154,0.152,0.308,0.307,0.462,0.461
				c0.077,0.079,0.077,0.079,0.154,0.079c0.693,0.615,1.387,1.232,2.081,1.847c1.156,1.003,2.234,2.006,3.313,3.083
				c0.231,0.231,0.462,0.54,0.77,0.848c0.77,0.769,1.464,1.539,2.158,2.31h0.077c0.539,0.54,1.002,1.155,1.541,1.695
				c0.154,0.231,0.385,0.463,0.462,0.694c0.309,0.231,0.54,0.54,0.771,0.771c0.231,0.309,0.539,0.692,0.77,1.001
				c0.617,0.771,1.233,1.541,1.772,2.312c0.386,0.461,0.694,0.924,1.002,1.387c0.231,0.386,0.54,0.771,0.848,1.155
				c0.077,0.154,0.231,0.308,0.308,0.463c0.077,0.154,0.154,0.231,0.308,0.386c0,0.077,0.077,0.231,0.154,0.308
				c0.077,0.077,0.154,0.231,0.231,0.309c0.386,0.54,0.771,1.155,1.079,1.772c0.309,0.386,0.539,0.769,0.771,1.155
				c0.616,1.003,1.156,2.081,1.772,3.083C163.592,45.617,163.901,46.157,164.209,46.774z"/>
			<path style="fill:#FBE6B7;" d="M165.519,49.393v-0.075c0.077,0,0.077,0.075,0.077,0.075H165.519z"/>
			<g style="opacity:0.07;">
				<path style="fill:#040000;" d="M224.905,96.471v11.601h-26.882v302.726c0,43.641-35.551,79.142-79.252,79.142
					c-31.687,0-59.099-18.666-71.758-45.573c14.332,20.523,38.139,33.972,65.038,33.972c43.7,0,79.252-35.51,79.252-79.151V96.471
					H224.905z"/>
			</g>
		</g>
		<g style="opacity:0.07;">
			<path style="fill:#040000;" d="M224.905,96.529V96.47h-33.603v302.719c0,43.358-35.102,78.653-78.413,79.11V512
				c62.227,0,112.853-50.58,112.853-112.751V96.529H224.905z"/>
			<path style="fill:#040000;" d="M165.519,49.393v-0.075c0.077,0,0.077,0.075,0.077,0.075H165.519z"/>
			<path style="fill:#040000;" d="M174.149,86.998v221.463c0,1.001-0.077,1.926-0.231,2.852c-0.385,3.928-1.079,7.781-2.158,11.404
				c-2.62,9.169-7.397,17.492-13.639,24.427c-2.004,2.158-4.239,4.237-6.627,6.088c-1.849,1.695-3.93,3.159-6.01,4.468
				c-1.618,1.003-3.236,1.927-4.855,2.775c-3.468,1.772-7.089,3.236-10.865,4.316c-1.773,0.538-3.622,1.001-5.471,1.309
				c-1.926,0.386-3.853,0.692-5.856,0.847c-1.849,0.233-3.699,0.309-5.548,0.309v-33.596c1.695-0.077,3.39-0.231,5.008-0.54
				c3.93-0.924,7.475-2.621,10.634-4.931c0.617-0.463,1.233-0.926,1.772-1.464c0.617-0.463,1.156-1.003,1.695-1.62
				c0.539-0.54,1.002-1.078,1.541-1.695c1.002-1.155,1.849-2.464,2.62-3.853c0.231-0.386,0.462-0.771,0.694-1.232
				c0.462-0.926,0.925-1.926,1.233-3.006c0.309-0.615,0.462-1.309,0.694-2.079c0-0.079,0.077-0.154,0.154-0.309
				c0.154-0.694,0.308-1.388,0.386-2.158c0.154-0.694,0.231-1.311,0.308-2.004c0.077-0.926,0.154-1.926,0.154-2.852V87.229
				c0-7.322-1.541-14.334-4.161-20.653c0.694,1.003,1.31,2.081,2.004,3.161c-0.077-0.231-0.154-0.386-0.231-0.617
				c-0.462-1.309-1.002-2.619-1.541-3.853c-0.077-0.154-0.154-0.309-0.231-0.463c-0.616-1.386-1.31-2.696-2.08-4.082
				c-4.855-8.477-12.021-15.566-20.651-20.344V3.93c0.385,0.154,0.77,0.231,1.156,0.386c1.926,0.615,3.93,1.386,5.856,2.158
				c0.077,0,0.154,0.075,0.231,0.075c0.462,0.233,1.001,0.463,1.464,0.617c0.077,0.077,0.154,0.154,0.231,0.154
				c1.002,0.386,2.004,0.848,2.928,1.309c1.079,0.54,2.157,1.08,3.236,1.62c0.231,0.152,0.462,0.231,0.694,0.386
				c1.849,1.001,3.621,2.081,5.394,3.159c0.231,0.231,0.539,0.386,0.77,0.54c0.077,0.075,0.154,0.075,0.231,0.154
				c0.309,0.23,0.694,0.461,1.002,0.692c0.077,0.077,0.231,0.154,0.309,0.231l0.077,0.077c0.077,0.077,0.154,0.077,0.231,0.154
				c0.848,0.538,1.696,1.155,2.466,1.695c0.77,0.694,1.541,1.232,2.312,1.849c0.462,0.386,1.002,0.771,1.464,1.155
				c0.077,0.079,0.077,0.079,0.154,0.079c0.693,0.615,1.387,1.232,2.081,1.847c1.156,1.003,2.234,2.006,3.313,3.083
				c0.231,0.231,0.462,0.54,0.77,0.848c0.77,0.769,1.464,1.539,2.158,2.31c0.77,0.771,1.387,1.543,2.08,2.389
				c0.54,0.54,0.925,1.08,1.387,1.695c1.002,1.232,1.926,2.466,2.928,3.776c0.231,0.386,0.54,0.771,0.848,1.155
				c0.077,0.154,0.231,0.308,0.308,0.463c0.077,0.154,0.154,0.231,0.308,0.386c0,0.077,0.077,0.231,0.154,0.308
				c0.077,0.077,0.154,0.231,0.231,0.309c0.386,0.54,0.771,1.155,1.079,1.772c0.309,0.386,0.539,0.769,0.771,1.155
				c0.616,1.003,1.156,2.081,1.772,3.083c0.308,0.615,0.617,1.155,0.925,1.772c0.462,0.847,0.925,1.695,1.31,2.543
				c-0.077-0.079-0.154-0.079-0.154-0.154c0,0.075,0.077,0.154,0.154,0.229c2.004,4.239,3.699,8.631,5.086,13.176
				c0.462,1.62,0.848,3.161,1.233,4.701c0.385,1.618,0.694,3.238,1.002,4.856c0.308,1.618,0.539,3.236,0.694,4.854
				c0.231,1.618,0.385,3.313,0.462,4.933C174.073,83.606,174.149,85.303,174.149,86.998z"/>
		</g>
	</g>
</g>
</svg>