<?xml version="1.0" encoding="iso-8859-1"?>
<!-- Uploaded to: SVG Repo, www.svgrepo.com, Generator: SVG Repo Mixer Tools -->
<svg version="1.1" id="Layer_1" xmlns="http://www.w3.org/2000/svg" xmlns:xlink="http://www.w3.org/1999/xlink" 
	 viewBox="0 0 512 512" xml:space="preserve">
<circle style="fill:#EA8953;" cx="256" cy="256" r="256"/>
<path style="opacity:0.1;enable-background:new    ;" d="M512,256c0-1.845-0.101-3.664-0.139-5.493l-112.24-112.213l-25.92-25.92
	c-1.92-1.973-4.587-3.04-7.307-3.04h-246.72c-5.707,0-10.347,4.64-10.347,10.347v272.64c0,2.933,1.227,5.6,3.2,7.467l110,109.963
	C233.493,511.184,244.651,512,256,512C397.387,512,512,397.387,512,256z"/>
<path style="fill:#3A556A;" d="M399.637,138.304l-25.941-25.941c-1.941-1.941-4.571-3.029-7.312-3.029H119.675
	c-5.712,0-10.341,4.629-10.341,10.341v272.656c0,5.712,4.629,10.341,10.341,10.341h272.656c5.712,0,10.341-4.629,10.341-10.341
	V145.616C402.667,142.875,401.579,140.245,399.637,138.304z"/>
<path style="fill:#64798A;" d="M399.637,138.304l-25.941-25.941c-1.941-1.941-4.571-3.029-7.312-3.029H119.675
	c-5.712,0-10.341,4.629-10.341,10.341v261.989c0,5.712,4.629,10.341,10.341,10.341h272.656c5.712,0,10.341-4.629,10.341-10.341
	V145.616C402.667,142.875,401.579,140.245,399.637,138.304z"/>
<circle style="fill:#3A556A;" cx="256" cy="277.269" r="54.773"/>
<path style="fill:#D5D6DB;" d="M175.029,116.555v77.12c0,4.517,3.664,8.181,8.181,8.181h145.584c4.517,0,8.176-3.664,8.176-8.181
	v-77.12H175.029z"/>
<path style="fill:#EBF0F3;" d="M175.029,109.333v77.12c0,4.517,3.664,8.181,8.181,8.181h145.584c4.517,0,8.176-3.664,8.176-8.181
	v-77.12H175.029z"/>
<rect x="297.232" y="122.88" style="fill:#64798A;" width="21.125" height="58.176"/>
<circle style="fill:#EBF0F3;" cx="256" cy="277.269" r="50.347"/>
<g>
	<path style="fill:#64798A;" d="M259.771,270.357h-7.536c-1.733,0-3.141,1.408-3.141,3.141v7.536c0,1.733,1.408,3.141,3.141,3.141
		h7.536c1.733,0,3.141-1.408,3.141-3.141v-7.536C262.907,271.765,261.504,270.357,259.771,270.357z"/>
	<path style="fill:#64798A;" d="M292.288,262.533h-10.256c-2.357,0-4.272,1.915-4.272,4.272v20.923c0,2.357,1.915,4.272,4.272,4.272
		h10.256c2.357,0,4.272-1.915,4.272-4.272v-20.923C296.56,264.448,294.645,262.533,292.288,262.533z"/>
</g>
<path style="fill:#3A556A;" d="M166.037,353.461h-36.88c-1.856,0-3.365,1.509-3.365,3.365v17.941c0,1.856,1.504,3.365,3.365,3.365
	h36.88c1.856,0,3.365-1.504,3.365-3.365v-17.941C169.403,354.971,167.893,353.461,166.037,353.461z"/>
<path style="fill:#2F4859;" d="M147.595,375.467c-0.384,0-0.699-0.315-0.699-0.699v-17.936c0-0.384,0.315-0.699,0.699-0.699h18.443
	c0.384,0,0.699,0.315,0.699,0.699v17.936c0,0.384-0.315,0.699-0.699,0.699H147.595z"/>
</svg>