<?xml version="1.0" ?>
<!-- Uploaded to: SVG Repo, www.svgrepo.com, Generator: SVG Repo Mixer Tools -->
<svg width="800px" height="800px" viewBox="0 0 64 64" version="1.1" xml:space="preserve" xmlns="http://www.w3.org/2000/svg" xmlns:xlink="http://www.w3.org/1999/xlink">
<style type="text/css">
	.st0{fill:#FFEEA9;}
	.st1{fill:#D32436;}
	.st2{fill:#8DD1D3;}
	.st3{fill:#330D00;}
	.st4{fill:none;stroke:#330D00;stroke-linecap:round;stroke-linejoin:round;stroke-miterlimit:10;}
</style>
<g id="_x34_0-Id_Card"/>
<g id="_x33_9-Formula"/>
<g id="_x33_8-Elbow">
<g>
<g>
<polygon class="st2" points="26.5,1.1 26.5,54.1 17.7,62.9 17.7,1.1    "/>
</g>
<g>
<polygon class="st1" points="46.3,54.1 46.3,62.9 17.7,62.9 26.5,54.1    "/>
</g>
<g>
<path class="st3" d="M46.3,53H27.6V1.1c0-0.6-0.5-1.1-1.1-1.1h-8.8c-0.6,0-1.1,0.5-1.1,1.1v61.8c0,0.1,0,0.1,0.1,0.2     c0,0.1,0,0.1,0,0.2c0,0,0.1,0.1,0.1,0.1c0.1,0.1,0.1,0.2,0.2,0.2s0.1,0.1,0.2,0.2c0,0,0,0.1,0.1,0.1c0.1,0.1,0.3,0.1,0.4,0.1     h28.7c0.6,0,1.1-0.5,1.1-1.1v-8.8C47.4,53.5,47,53,46.3,53z M25.4,2.2v51.4l-6.6,6.6V53h3.3c0.6,0,1.1-0.5,1.1-1.1     s-0.5-1.1-1.1-1.1h-3.3v-4.4h3.3c0.6,0,1.1-0.5,1.1-1.1s-0.5-1.1-1.1-1.1h-3.3v-4.4h3.3c0.6,0,1.1-0.5,1.1-1.1s-0.5-1.1-1.1-1.1     h-3.3v-4.4h3.3c0.6,0,1.1-0.5,1.1-1.1s-0.5-1.1-1.1-1.1h-3.3v-4.4h3.3c0.6,0,1.1-0.5,1.1-1.1c0-0.6-0.5-1.1-1.1-1.1h-3.3v-4.4     h3.3c0.6,0,1.1-0.5,1.1-1.1c0-0.6-0.5-1.1-1.1-1.1h-3.3v-4.4h3.3c0.6,0,1.1-0.5,1.1-1.1S22.7,11,22.1,11h-3.3V6.6h3.3     c0.6,0,1.1-0.5,1.1-1.1s-0.5-1.1-1.1-1.1h-3.3V2.2H25.4z M45.2,61.8H20.3l6.6-6.6h18.3V61.8z"/>
</g>
</g>
</g>
<g id="_x33_7-Diploma"/>
<g id="_x33_6-Laptop"/>
<g id="_x33_5-Brush"/>
<g id="_x33_4-Baseball"/>
<g id="_x33_3-Student"/>
<g id="_x33_2-Highlighter"/>
<g id="_x33_1-Ruler"/>
<g id="_x33_0-Caliper"/>
<g id="_x32_9-Ruler_Elbow"/>
<g id="_x32_8-Abacus"/>
<g id="_x32_7-Id_Card"/>
<g id="_x32_6-Eraser"/>
<g id="_x32_5-Pencil"/>
<g id="_x32_4-Ink"/>
<g id="_x32_3-Graduation_Cap"/>
<g id="_x32_2-_Sling_Bag"/>
<g id="_x32_1-Rugby_Ball"/>
<g id="_x32_0-Clock"/>
<g id="_x31_9-Certificate"/>
<g id="_x31_8-Idea"/>
<g id="_x31_7-Bookshelf"/>
<g id="_x31_6-Formula"/>
<g id="_x31_5-Bell"/>
<g id="_x31_4-Magnifying_Glass"/>
<g id="_x31_3-Calculator"/>
<g id="_x31_2-Eyeglasses"/>
<g id="_x31_1-Bus"/>
<g id="_x31_0-Trophy"/>
<g id="_x39_-Globe"/>
<g id="_x38_-Basket_Ball"/>
<g id="_x37_-Pen"/>
<g id="_x36_-Board"/>
<g id="_x35_-Bag"/>
<g id="_x34_-Exam"/>
<g id="_x33_-Book"/>
<g id="_x32_-Ruler"/>
<g id="_x31_-Building"/>
</svg>