<?xml version="1.0" encoding="iso-8859-1"?>
<!-- Uploaded to: SVG Repo, www.svgrepo.com, Generator: SVG Repo Mixer Tools -->
<svg height="800px" width="800px" version="1.1" id="Layer_1" xmlns="http://www.w3.org/2000/svg" xmlns:xlink="http://www.w3.org/1999/xlink" 
	 viewBox="0 0 512 512" xml:space="preserve">
<g>
	<path style="fill:#2F5E88;" d="M371.341,101.275H140.659c-4.661,0-8.44,3.778-8.44,8.44c0,4.662,3.779,8.44,8.44,8.44h230.681
		c4.661,0,8.44-3.778,8.44-8.44C379.78,105.052,376.002,101.275,371.341,101.275z"/>
	<path style="fill:#2F5E88;" d="M247.56,154.725v56.264c0,4.662,3.779,8.44,8.44,8.44c4.661,0,8.44-3.778,8.44-8.44v-56.264H247.56z
		"/>
	<path style="fill:#2F5E88;" d="M106.901,101.275H73.143c-4.661,0-8.44,3.778-8.44,8.44v33.758c0,4.662,3.779,8.44,8.44,8.44
		s8.44-3.778,8.44-8.44v-25.319h25.319c4.661,0,8.44-3.778,8.44-8.44C115.341,105.052,111.562,101.275,106.901,101.275z"/>
	<path style="fill:#2F5E88;" d="M430.418,143.473c0,4.662,3.779,8.44,8.44,8.44c4.661,0,8.44-3.778,8.44-8.44v-33.758
		c0-4.662-3.779-8.44-8.44-8.44h-33.758c-4.661,0-8.44,3.778-8.44,8.44c0,4.662,3.779,8.44,8.44,8.44h25.319V143.473z"/>
	<path style="fill:#2F5E88;" d="M73.143,219.429c4.661,0,8.44-3.778,8.44-8.44v-33.758c0-4.662-3.779-8.44-8.44-8.44
		s-8.44,3.778-8.44,8.44v33.758C64.703,215.651,68.482,219.429,73.143,219.429z"/>
	<path style="fill:#2F5E88;" d="M438.857,168.791c-4.661,0-8.44,3.778-8.44,8.44v33.758c0,4.662,3.779,8.44,8.44,8.44
		c4.661,0,8.44-3.778,8.44-8.44v-33.758C447.297,172.569,443.518,168.791,438.857,168.791z"/>
	<path style="fill:#2F5E88;" d="M89.681,272.537l-8.099,8.099v-35.888c0-4.662-3.779-8.44-8.44-8.44s-8.44,3.778-8.44,8.44v35.888
		l-8.099-8.099c-3.296-3.295-8.64-3.295-11.935,0c-3.296,3.297-3.296,8.64,0,11.936l22.505,22.505
		c0.225,0.218,0.417,0.394,0.619,0.559c0.098,0.08,0.2,0.15,0.3,0.224c0.12,0.09,0.239,0.183,0.363,0.267
		c0.118,0.079,0.242,0.147,0.363,0.221c0.115,0.069,0.227,0.141,0.345,0.205c0.124,0.066,0.251,0.123,0.378,0.182
		c0.123,0.059,0.244,0.119,0.37,0.172c0.124,0.051,0.25,0.092,0.375,0.137c0.135,0.048,0.268,0.1,0.405,0.142
		c0.125,0.037,0.251,0.065,0.377,0.097c0.141,0.036,0.28,0.075,0.424,0.104c0.145,0.029,0.293,0.046,0.439,0.068
		c0.126,0.018,0.249,0.042,0.376,0.054c0.276,0.027,0.554,0.042,0.832,0.042s0.556-0.015,0.833-0.042
		c0.127-0.012,0.25-0.036,0.376-0.054c0.147-0.021,0.295-0.038,0.44-0.068c0.144-0.028,0.282-0.068,0.423-0.104
		c0.126-0.032,0.252-0.06,0.377-0.097c0.137-0.042,0.27-0.093,0.405-0.142c0.125-0.045,0.251-0.087,0.375-0.137
		c0.126-0.053,0.248-0.114,0.37-0.172c0.126-0.06,0.253-0.116,0.378-0.182c0.118-0.063,0.23-0.135,0.344-0.204
		c0.122-0.073,0.245-0.142,0.365-0.222c0.125-0.083,0.242-0.176,0.361-0.266c0.1-0.075,0.204-0.145,0.302-0.225
		c0.201-0.165,0.394-0.34,0.578-0.523c0.039-0.036,22.545-22.542,22.545-22.542c3.296-3.297,3.296-8.64,0-11.936
		C98.321,269.243,92.976,269.243,89.681,272.537z"/>
	<path style="fill:#2F5E88;" d="M272.538,272.537l-8.099,8.099v-35.888c0-4.662-3.779-8.44-8.44-8.44c-4.661,0-8.44,3.778-8.44,8.44
		v35.888l-8.099-8.099c-3.296-3.295-8.64-3.295-11.935,0c-3.296,3.297-3.296,8.64,0,11.936l22.505,22.505
		c0.225,0.218,0.417,0.394,0.619,0.559c0.098,0.08,0.2,0.15,0.3,0.224c0.12,0.09,0.239,0.183,0.363,0.267
		c0.118,0.079,0.242,0.147,0.363,0.221c0.115,0.069,0.227,0.141,0.345,0.205c0.124,0.066,0.251,0.123,0.378,0.182
		c0.123,0.059,0.244,0.119,0.37,0.172c0.124,0.051,0.25,0.092,0.375,0.137c0.135,0.048,0.268,0.1,0.405,0.142
		c0.125,0.037,0.251,0.065,0.377,0.097c0.141,0.036,0.28,0.075,0.424,0.104c0.145,0.029,0.293,0.046,0.439,0.068
		c0.126,0.018,0.249,0.042,0.376,0.054c0.277,0.027,0.555,0.042,0.833,0.042s0.556-0.015,0.833-0.042
		c0.127-0.012,0.25-0.036,0.376-0.054c0.147-0.021,0.295-0.038,0.44-0.068c0.144-0.028,0.282-0.068,0.423-0.104
		c0.126-0.032,0.252-0.06,0.377-0.097c0.137-0.042,0.27-0.093,0.405-0.142c0.125-0.045,0.251-0.087,0.375-0.137
		c0.126-0.053,0.248-0.114,0.37-0.172c0.126-0.06,0.253-0.116,0.378-0.182c0.118-0.063,0.23-0.135,0.344-0.204
		c0.122-0.073,0.245-0.142,0.365-0.222c0.125-0.083,0.242-0.176,0.361-0.266c0.1-0.075,0.204-0.145,0.302-0.225
		c0.201-0.165,0.394-0.34,0.578-0.523c0.039-0.036,22.545-22.542,22.545-22.542c3.296-3.297,3.296-8.64,0-11.936
		C281.178,269.243,275.833,269.243,272.538,272.537z"/>
	<path style="fill:#2F5E88;" d="M467.33,272.537c-3.296-3.295-8.64-3.295-11.935,0l-8.099,8.099v-35.888
		c0-4.662-3.779-8.44-8.44-8.44s-8.44,3.778-8.44,8.44v35.888l-8.099-8.099c-3.296-3.295-8.64-3.295-11.935,0
		c-3.296,3.297-3.296,8.64,0,11.936l22.505,22.505c0.225,0.218,0.417,0.394,0.619,0.559c0.098,0.08,0.2,0.15,0.3,0.224
		c0.12,0.09,0.239,0.183,0.363,0.267c0.118,0.079,0.242,0.147,0.363,0.221c0.115,0.069,0.227,0.141,0.345,0.205
		c0.124,0.066,0.251,0.123,0.378,0.182c0.123,0.059,0.244,0.119,0.37,0.172c0.124,0.051,0.25,0.092,0.375,0.137
		c0.135,0.048,0.268,0.1,0.405,0.142c0.125,0.037,0.251,0.065,0.377,0.097c0.141,0.036,0.28,0.075,0.424,0.104
		c0.145,0.029,0.293,0.046,0.439,0.068c0.126,0.018,0.249,0.042,0.376,0.054c0.277,0.027,0.555,0.042,0.833,0.042
		s0.556-0.015,0.833-0.042c0.127-0.012,0.25-0.036,0.376-0.054c0.147-0.021,0.295-0.038,0.44-0.068
		c0.144-0.028,0.282-0.068,0.423-0.104c0.126-0.032,0.252-0.06,0.377-0.097c0.137-0.042,0.27-0.093,0.405-0.142
		c0.125-0.045,0.251-0.087,0.375-0.137c0.126-0.053,0.248-0.114,0.37-0.172c0.126-0.06,0.253-0.116,0.378-0.182
		c0.118-0.063,0.23-0.135,0.344-0.204c0.122-0.073,0.245-0.142,0.365-0.222c0.125-0.083,0.242-0.176,0.361-0.266
		c0.1-0.075,0.204-0.145,0.302-0.225c0.201-0.165,0.394-0.34,0.578-0.523c0.039-0.036,22.545-22.542,22.545-22.542
		C470.626,281.177,470.626,275.834,467.33,272.537z"/>
</g>
<polygon style="fill:#FF754F;" points="512,334.769 478.242,334.769 444.484,402.286 512,368.527 "/>
<polygon style="fill:#FF9269;" points="438.857,334.769 405.099,402.286 478.242,402.286 478.242,334.769 "/>
<path style="fill:#FFB082;" d="M478.242,368.527l-22.505,50.637l22.505,50.637h16.879c9.284,0,16.879-7.596,16.879-16.879v-84.396
	H478.242z"/>
<path style="fill:#FFCD9C;" d="M438.857,368.527v-33.758h-73.143v118.154c0,9.284,7.596,16.879,16.879,16.879h95.648V368.527
	H438.857z"/>
<polygon style="fill:#FF754F;" points="146.286,334.769 112.527,334.769 78.769,402.286 146.286,368.527 "/>
<polygon style="fill:#FF9269;" points="73.143,334.769 39.385,402.286 112.527,402.286 112.527,334.769 "/>
<path style="fill:#FFB082;" d="M112.527,368.527l-22.506,50.637l22.506,50.637h16.879c9.284,0,16.879-7.596,16.879-16.879v-84.396
	H112.527z"/>
<path style="fill:#FFCD9C;" d="M73.143,368.527v-33.758H0v118.154c0,9.284,7.596,16.879,16.879,16.879h95.648V368.527H73.143z"/>
<polygon style="fill:#FF754F;" points="329.143,42.198 295.385,42.198 261.626,109.714 329.143,75.956 "/>
<polygon style="fill:#FF9269;" points="256,42.198 222.242,109.714 295.385,109.714 295.385,42.198 "/>
<path style="fill:#FFB082;" d="M295.385,75.956l-22.506,50.637l22.506,50.637h16.879c9.284,0,16.879-7.596,16.879-16.879V75.956
	H295.385z"/>
<path style="fill:#FFCD9C;" d="M256,75.956V42.198h-73.143v118.154c0,9.284,7.596,16.879,16.879,16.879h95.648V75.956H256z"/>
<polygon style="fill:#FF754F;" points="329.143,334.769 295.385,334.769 261.626,402.286 329.143,368.527 "/>
<polygon style="fill:#FF9269;" points="256,334.769 222.242,402.286 295.385,402.286 295.385,334.769 "/>
<path style="fill:#FFB082;" d="M295.385,368.527l-22.506,50.637l22.506,50.637h16.879c9.284,0,16.879-7.596,16.879-16.879v-84.396
	H295.385z"/>
<path style="fill:#FFCD9C;" d="M256,368.527v-33.758h-73.143v118.154c0,9.284,7.596,16.879,16.879,16.879h95.648V368.527H256z"/>
</svg>