<?xml version="1.0" encoding="iso-8859-1"?>

<!DOCTYPE svg PUBLIC "-//W3C//DTD SVG 1.1//EN" "http://www.w3.org/Graphics/SVG/1.1/DTD/svg11.dtd">
<!-- Uploaded to: SVG Repo, www.svgrepo.com, Generator: SVG Repo Mixer Tools -->
<svg version="1.1" id="_x35_" xmlns="http://www.w3.org/2000/svg" xmlns:xlink="http://www.w3.org/1999/xlink" 
	 viewBox="0 0 512 512"  xml:space="preserve">
<g>
	<g>
		<polygon style="fill:#FBFBFC;" points="439.353,28.525 439.353,433.988 361.301,511.961 0.037,511.961 0.037,28.525 		"/>
		<g>
			<polygon style="fill:#E697A8;" points="408.734,125.833 408.734,230.316 338.599,230.316 268.869,294.458 154.534,189.307 
				90.473,248.214 30.65,248.214 30.65,125.833 			"/>
			<polygon style="fill:#D07E90;" points="408.734,230.316 408.734,346.794 30.65,346.794 30.65,248.214 90.473,248.214 
				154.534,189.307 268.869,294.458 338.599,230.316 			"/>
			<polygon style="fill:#D7CFBE;" points="408.734,224.163 408.734,237.587 341.981,237.587 269.012,304.503 154.344,199.352 
				93.116,255.485 30.65,255.485 30.65,242.061 87.043,242.061 154.344,180.38 269.012,285.531 335.908,224.163 			"/>
			<ellipse style="fill:#FFFFFF;" cx="156.197" cy="189.307" rx="13.463" ry="12.648"/>
			<ellipse style="fill:#FFFFFF;" cx="268.722" cy="294.458" rx="13.463" ry="12.648"/>
			<ellipse style="fill:#FFFFFF;" cx="340.167" cy="232.396" rx="13.464" ry="12.648"/>
			<ellipse style="fill:#FFFFFF;" cx="91.897" cy="246.939" rx="13.463" ry="12.648"/>
		</g>
		<rect y="5.225" style="opacity:0.1;fill:#040000;" width="439.383" height="33.341"/>
		<path style="fill:#635F63;" d="M431.464,0H7.926C3.569,0,0.037,3.532,0.037,7.888v6.949v10.579v7.889h7.889h423.538h7.889v-7.889
			V14.837V7.888C439.353,3.532,435.822,0,431.464,0z"/>
		<g style="opacity:0.8;">
			<g>
				<path style="fill:#FFFFFF;" d="M68.92,103.834l-13.087-35.5h-4.78l-13.009,35.5l-1.41,3.918h6.348l2.665-7.915h15.595
					l2.665,7.915h6.426L68.92,103.834z M48.78,90.826l4.781-13.557l4.702,13.557l1.332,3.918H47.448L48.78,90.826z"/>
				<path style="fill:#FFFFFF;" d="M97.367,85.497c-0.392-1.333-1.175-2.507-2.194-3.604c-0.862-0.783-1.881-1.411-3.056-1.882
					c-1.176-0.391-2.429-0.626-3.918-0.626c-1.332,0-2.743,0.234-3.997,0.783c-1.332,0.471-2.508,1.332-3.448,2.351v-2.821h-5.564
					v28.054h5.643V90.669c0-2.116,0.627-3.683,1.724-4.703c1.176-1.018,2.508-1.567,4.154-1.567c1.567,0,2.9,0.549,3.997,1.489
					c1.097,1.02,1.645,2.587,1.645,4.781v17.083h5.643V89.806C97.994,88.239,97.759,86.829,97.367,85.497z"/>
				<path style="fill:#FFFFFF;" d="M124.481,81.814c-1.959-1.646-4.859-2.429-8.777-2.429c-1.176,0-2.194,0.077-3.135,0.156
					c-0.94,0.157-1.802,0.392-2.586,0.705c-0.783,0.314-1.567,0.784-2.272,1.254c-0.627,0.548-1.332,1.176-1.959,1.959l3.605,3.527
					c0.862-1.02,1.645-1.724,2.586-2.194c0.862-0.392,2.038-0.628,3.605-0.628c2.194,0,3.761,0.471,4.702,1.333
					c0.549,0.47,0.941,1.176,1.176,2.038c0.157,0.548,0.235,1.176,0.235,1.881v2.038h-7.366c-3.213,0-5.643,0.783-7.288,2.272
					c-1.176,1.02-1.881,2.351-2.194,3.841c-0.157,0.627-0.235,1.254-0.235,1.959c0,2.507,0.706,4.466,2.195,6.033
					c0.862,0.863,1.881,1.489,3.056,1.881c1.254,0.471,2.664,0.628,4.467,0.628c1.724,0,3.134-0.157,4.232-0.628
					c1.176-0.47,2.194-1.175,3.213-2.193v2.507h5.564V89.024C127.302,85.811,126.362,83.459,124.481,81.814z M110.532,97.409
					c0.705-1.333,2.273-2.037,4.624-2.037h6.505v2.272c0,1.959-0.392,3.37-1.254,4.154c-0.705,0.706-1.489,1.176-2.351,1.332
					c-0.784,0.157-1.724,0.235-2.665,0.235c-1.881,0-3.291-0.314-4.075-1.019c-0.862-0.628-1.254-1.645-1.254-2.899
					C110.062,98.663,110.219,97.957,110.532,97.409z"/>
				<path style="fill:#FFFFFF;" d="M144.543,102.972c-1.176,0-1.959-0.313-2.429-0.862c-0.392-0.549-0.627-1.332-0.627-2.43V68.334
					h-5.642v31.66c0,1.097,0.156,2.038,0.392,2.978c0.313,0.94,0.784,1.803,1.411,2.507c0.627,0.706,1.411,1.255,2.429,1.646
					c0.94,0.47,2.116,0.627,3.448,0.627h3.448v-4.78H144.543z"/>
				<path style="fill:#FFFFFF;" d="M168.366,79.698l-6.504,19.748l-6.74-19.748h-5.956l9.091,24.764l0.705,1.959l-1.567,4.388
					c-0.392,1.176-0.862,1.959-1.411,2.351c-0.549,0.391-1.411,0.627-2.586,0.627h-1.489v5.094h2.272
					c1.097,0,2.116-0.157,3.135-0.391c1.019-0.314,1.881-0.863,2.664-1.646c0.862-0.862,1.489-2.038,2.037-3.449L174.4,79.698
					H168.366z"/>
				<path style="fill:#FFFFFF;" d="M185.449,79.698v-7.993h-5.642v7.993h-3.213v4.31h3.213v15.987c0,0.941,0.157,1.959,0.47,2.9
					c0.313,0.939,0.784,1.724,1.411,2.507c0.627,0.705,1.41,1.254,2.351,1.724c0.94,0.391,2.116,0.627,3.448,0.627h3.37v-4.78
					h-2.351c-1.019,0-1.802-0.313-2.351-0.862c-0.47-0.549-0.705-1.41-0.705-2.43V84.007h5.407v-4.31H185.449z"/>
				<path style="fill:#FFFFFF;" d="M197.831,68.178v6.033h6.034v-6.033H197.831z M198.067,79.698v28.054h5.642V79.698H198.067z"/>
				<path style="fill:#FFFFFF;" d="M229.099,100.386c-0.862,1.019-1.724,1.645-2.508,2.038c-0.784,0.471-1.802,0.627-2.9,0.627
					c-2.194,0-3.918-0.784-5.172-2.507c-0.627-0.706-1.097-1.645-1.332-2.743c-0.235-1.096-0.314-2.429-0.314-4.075
					c0-0.548,0-1.096,0.078-1.645v-0.627c0-0.705,0.157-1.254,0.235-1.802c0.235-1.019,0.705-1.959,1.332-2.743
					c1.254-1.645,2.978-2.508,5.172-2.508c1.097,0,2.116,0.235,2.9,0.628c0.784,0.391,1.646,1.096,2.508,2.038l3.84-3.761
					c-0.705-0.706-1.411-1.333-2.116-1.882c-0.627-0.47-1.333-0.862-2.038-1.097c-1.411-0.627-3.135-0.939-5.094-0.939
					c-1.567,0-3.134,0.234-4.623,0.783c-1.489,0.471-2.822,1.332-3.918,2.43c-1.176,1.176-2.116,2.587-2.899,4.467
					c-0.47,1.253-0.784,2.664-0.94,4.388c-0.078,0.705-0.078,1.489-0.078,2.272c0,2.587,0.313,4.86,1.019,6.662
					c0.783,1.802,1.724,3.291,2.899,4.467c1.097,1.096,2.429,1.959,3.918,2.507c1.489,0.47,3.056,0.705,4.623,0.705
					c1.959,0,3.683-0.314,5.094-0.94c1.489-0.627,2.821-1.568,4.153-2.978l-2.194-2.116L229.099,100.386z"/>
				<path style="fill:#FFFFFF;" d="M257.311,81.814c-1.959-1.646-4.859-2.429-8.777-2.429c-1.176,0-2.194,0.077-3.135,0.156
					c-0.94,0.157-1.802,0.392-2.586,0.705c-0.862,0.314-1.567,0.784-2.272,1.254c-0.627,0.548-1.332,1.176-1.959,1.959l3.605,3.527
					c0.862-1.02,1.645-1.724,2.586-2.194c0.862-0.392,2.038-0.628,3.605-0.628c2.194,0,3.761,0.471,4.702,1.333
					c0.549,0.47,0.94,1.176,1.176,2.038c0.157,0.548,0.235,1.176,0.235,1.881v2.038h-7.366c-3.213,0-5.642,0.783-7.288,2.272
					c-1.175,1.02-1.881,2.351-2.194,3.841c-0.157,0.627-0.235,1.254-0.235,1.959c0,2.507,0.705,4.466,2.194,6.033
					c0.862,0.863,1.881,1.489,3.056,1.881c1.254,0.471,2.664,0.628,4.466,0.628c1.724,0,3.135-0.157,4.232-0.628
					c1.175-0.47,2.194-1.175,3.213-2.193v2.507h5.564V89.024C260.132,85.811,259.191,83.459,257.311,81.814z M243.361,97.409
					c0.706-1.333,2.272-2.037,4.624-2.037h6.504v2.272c0,1.959-0.392,3.37-1.254,4.154c-0.706,0.706-1.489,1.176-2.351,1.332
					c-0.784,0.157-1.724,0.235-2.743,0.235c-1.881,0-3.213-0.314-3.996-1.019c-0.862-0.628-1.254-1.645-1.254-2.899
					C242.891,98.663,243.048,97.957,243.361,97.409z"/>
				<path style="fill:#FFFFFF;" d="M277.372,102.972c-1.176,0-1.959-0.313-2.429-0.862c-0.392-0.549-0.627-1.332-0.627-2.43V68.334
					h-5.643v31.66c0,1.097,0.157,2.038,0.392,2.978c0.313,0.94,0.783,1.803,1.411,2.507c0.626,0.706,1.41,1.255,2.429,1.646
					c0.94,0.47,2.116,0.627,3.448,0.627h3.448v-4.78H277.372z"/>
				<path style="fill:#FFFFFF;" d="M327.917,83.616c0-1.411-0.156-2.743-0.313-3.997c-0.235-1.176-0.549-2.35-0.94-3.37
					c-0.392-1.018-0.94-2.038-1.646-2.898c-1.411-1.725-3.056-2.979-4.78-3.761c-1.802-0.863-3.918-1.255-6.426-1.255h-13.87v39.418
					h13.87c2.508,0,4.624-0.391,6.426-1.175c1.724-0.784,3.37-2.038,4.78-3.761c0.705-0.941,1.254-1.881,1.646-2.9
					c0.392-1.096,0.706-2.195,0.94-3.448c0.157-1.176,0.313-2.508,0.313-3.918c0.079-1.41,0.079-2.899,0.079-4.467v-1.959
					C327.996,85.262,327.996,84.4,327.917,83.616z M305.975,73.664h7.21c1.332,0,2.664,0.235,3.761,0.627
					c1.097,0.471,2.116,1.177,2.978,2.116c0.94,1.02,1.567,2.508,1.724,4.389c0.157,1.489,0.314,3.212,0.392,5.328v1.959
					c0,2.9-0.156,5.329-0.392,7.21c-0.156,1.881-0.784,3.37-1.724,4.466c-0.862,0.941-1.881,1.646-2.978,2.038
					c-1.097,0.471-2.429,0.628-3.761,0.628h-7.21V73.664z"/>
				<path style="fill:#FFFFFF;" d="M353.935,81.814c-1.881-1.646-4.78-2.429-8.699-2.429c-1.175,0-2.194,0.077-3.134,0.156
					c-0.941,0.157-1.803,0.392-2.665,0.705c-0.784,0.314-1.489,0.784-2.194,1.254c-0.705,0.548-1.332,1.176-2.037,1.959l3.683,3.527
					c0.783-1.02,1.646-1.724,2.508-2.194c0.94-0.392,2.116-0.628,3.605-0.628c2.272,0,3.84,0.471,4.78,1.333
					c0.549,0.47,0.94,1.176,1.175,2.038c0.157,0.548,0.235,1.176,0.235,1.881v2.038h-7.366c-3.291,0-5.721,0.783-7.288,2.272
					c-1.176,1.02-1.881,2.351-2.194,3.841c-0.156,0.627-0.235,1.254-0.235,1.959c0,2.507,0.705,4.466,2.194,6.033
					c0.862,0.863,1.881,1.489,3.056,1.881c1.176,0.471,2.665,0.628,4.467,0.628c1.724,0,3.135-0.157,4.232-0.628
					c1.097-0.47,2.194-1.175,3.213-2.193v2.507h5.564V89.024C356.834,85.811,355.894,83.459,353.935,81.814z M339.986,97.409
					c0.705-1.333,2.272-2.037,4.702-2.037h6.504v2.272c0,1.959-0.392,3.37-1.254,4.154c-0.706,0.706-1.489,1.176-2.351,1.332
					c-0.783,0.157-1.724,0.235-2.743,0.235c-1.881,0-3.213-0.314-4.075-1.019c-0.783-0.628-1.254-1.645-1.254-2.899
					C339.516,98.663,339.672,97.957,339.986,97.409z"/>
				<path style="fill:#FFFFFF;" d="M371.802,79.698v-7.993h-5.643v7.993h-3.213v4.31h3.213v15.987c0,0.941,0.157,1.959,0.47,2.9
					c0.314,0.939,0.784,1.724,1.411,2.507c0.627,0.705,1.41,1.254,2.429,1.724c0.94,0.391,2.037,0.627,3.37,0.627h3.37v-4.78h-2.273
					c-1.097,0-1.881-0.313-2.351-0.862c-0.549-0.549-0.783-1.41-0.783-2.43V84.007h5.407v-4.31H371.802z"/>
				<path style="fill:#FFFFFF;" d="M402.208,81.814c-1.881-1.646-4.78-2.429-8.698-2.429c-1.176,0-2.273,0.077-3.213,0.156
					c-0.94,0.157-1.802,0.392-2.586,0.705c-0.784,0.314-1.489,0.784-2.194,1.254c-0.706,0.548-1.332,1.176-2.038,1.959l3.684,3.527
					c0.783-1.02,1.645-1.724,2.507-2.194c0.94-0.392,2.116-0.628,3.605-0.628c2.195,0,3.84,0.471,4.78,1.333
					c0.549,0.47,0.94,1.176,1.176,2.038c0.157,0.548,0.235,1.176,0.235,1.881v2.038h-7.366c-3.291,0-5.72,0.783-7.366,2.272
					c-1.097,1.02-1.881,2.351-2.194,3.841c-0.157,0.627-0.235,1.254-0.235,1.959c0,2.507,0.784,4.466,2.273,6.033
					c0.783,0.863,1.881,1.489,3.056,1.881c1.175,0.471,2.664,0.628,4.466,0.628c1.724,0,3.135-0.157,4.232-0.628
					c1.097-0.47,2.194-1.175,3.213-2.193v2.507h5.564V89.024C405.108,85.811,404.167,83.459,402.208,81.814z M388.259,97.409
					c0.706-1.333,2.273-2.037,4.702-2.037h6.504v2.272c0,1.959-0.47,3.37-1.254,4.154c-0.705,0.706-1.489,1.176-2.351,1.332
					c-0.862,0.157-1.724,0.235-2.743,0.235c-1.881,0-3.213-0.314-4.075-1.019c-0.784-0.628-1.254-1.645-1.254-2.899
					C387.789,98.663,387.946,97.957,388.259,97.409z"/>
			</g>
			<g>
				<path style="fill:#7E796F;" d="M55.833,64.416h-4.78l-14.419,39.418h6.348l2.665-7.915h15.595l2.665,7.915h6.426L55.833,64.416z
					 M47.448,90.826l6.113-17.475l6.034,17.475H47.448z"/>
				<path style="fill:#7E796F;" d="M97.367,81.579c-0.392-1.333-1.175-2.507-2.194-3.604c-0.862-0.784-1.881-1.411-3.056-1.882
					c-1.176-0.391-2.429-0.626-3.918-0.626c-1.332,0-2.743,0.234-3.997,0.783c-1.332,0.471-2.508,1.254-3.448,2.351V75.78h-5.564
					v28.054h5.643V86.751c0-2.116,0.627-3.761,1.724-4.781c1.176-0.939,2.508-1.489,4.154-1.489c1.567,0,2.9,0.471,3.997,1.489
					c1.097,1.02,1.645,2.587,1.645,4.781v17.083h5.643V85.888C97.994,84.321,97.759,82.911,97.367,81.579z"/>
				<path style="fill:#7E796F;" d="M124.481,77.896c-1.959-1.646-4.859-2.429-8.777-2.429c-1.176,0-2.194,0.077-3.135,0.156
					c-0.94,0.157-1.802,0.392-2.586,0.705c-0.783,0.314-1.567,0.784-2.272,1.254c-0.627,0.548-1.332,1.176-1.959,1.959l1.959,1.959
					l1.646,1.568c0.862-1.02,1.645-1.724,2.586-2.194c0.862-0.392,2.038-0.628,3.605-0.628c2.194,0,3.761,0.471,4.702,1.254
					c0.941,0.862,1.411,2.195,1.411,3.997v2.038h-7.366c-3.213,0-5.643,0.705-7.288,2.272c-1.646,1.489-2.43,3.449-2.43,5.8
					c0,0.705,0.079,1.332,0.235,1.959c0.235,1.567,0.862,2.978,1.959,4.074c0.862,0.863,1.881,1.489,3.056,1.881
					c1.254,0.471,2.664,0.627,4.467,0.627c1.724,0,3.134-0.235,4.232-0.627c1.176-0.47,2.194-1.175,3.213-2.194v2.507h5.564V85.106
					C127.302,81.892,126.362,79.541,124.481,77.896z M121.66,93.725c0,0.628,0,1.177-0.157,1.646
					c-0.157,1.097-0.47,1.959-1.097,2.507c-0.705,0.706-1.489,1.098-2.351,1.333c-0.784,0.157-1.724,0.235-2.665,0.235
					c-1.881,0-3.291-0.314-4.075-1.019c-0.392-0.235-0.627-0.628-0.784-1.019c-0.313-0.548-0.47-1.176-0.47-1.959
					c0-2.664,1.724-3.997,5.094-3.997h6.505V93.725z"/>
				<path style="fill:#7E796F;" d="M144.543,99.054c-1.176,0-1.959-0.313-2.429-0.862c-0.392-0.549-0.627-1.332-0.627-2.43V64.416
					h-5.642v31.66c0,1.019,0.156,2.038,0.392,2.978c0.313,0.94,0.784,1.725,1.411,2.43c0.627,0.705,1.411,1.332,2.429,1.724
					c0.94,0.391,2.116,0.627,3.448,0.627h3.448v-4.78H144.543z"/>
				<path style="fill:#7E796F;" d="M168.366,75.78l-6.504,19.748l-6.74-19.748h-5.956l1.411,3.918l8.385,22.805l-0.705,1.959
					l-0.862,2.429c-0.392,1.176-0.862,1.959-1.411,2.351c-0.549,0.391-1.411,0.627-2.586,0.627h-1.489v5.094h2.272
					c1.097,0,2.116-0.157,3.135-0.47c1.019-0.235,1.881-0.784,2.664-1.568c0.862-0.862,1.489-2.038,2.037-3.527l10.971-29.7
					l1.411-3.918H168.366z"/>
				<path style="fill:#7E796F;" d="M185.449,75.78v-7.993h-5.642v7.993h-3.213v4.31h3.213v15.987c0,0.941,0.157,1.959,0.47,2.9
					c0.313,0.939,0.784,1.724,1.411,2.429c0.627,0.784,1.41,1.333,2.351,1.802c0.94,0.391,2.116,0.627,3.448,0.627h3.37v-4.78
					h-2.351c-1.019,0-1.802-0.313-2.351-0.862c-0.47-0.627-0.705-1.41-0.705-2.43V80.089h5.407v-4.31H185.449z"/>
				<path style="fill:#7E796F;" d="M197.831,64.26v5.955h6.034V64.26H197.831z M198.067,75.78v28.054h5.642V75.78H198.067z"/>
				<path style="fill:#7E796F;" d="M226.591,98.506c-0.784,0.392-1.802,0.627-2.9,0.627c-2.194,0-3.918-0.862-5.172-2.507
					c-0.627-0.785-1.097-1.645-1.332-2.744c-0.078-0.548-0.235-1.175-0.235-1.802v-0.627c-0.078-0.47-0.078-1.019-0.078-1.646
					c0-1.645,0.078-3.055,0.314-4.074c0.235-1.097,0.705-1.959,1.332-2.743c1.254-1.645,2.978-2.508,5.172-2.508
					c1.097,0,2.116,0.235,2.9,0.628c0.784,0.391,1.646,1.096,2.508,2.038l1.724-1.725l2.116-2.037
					c-1.332-1.411-2.664-2.43-4.153-3.057c-1.411-0.548-3.135-0.861-5.094-0.861c-1.567,0-3.134,0.234-4.623,0.783
					c-1.489,0.471-2.822,1.333-3.918,2.43c-1.176,1.097-2.116,2.587-2.899,4.467c-0.706,1.802-1.019,3.997-1.019,6.66
					c0,0.549,0,1.098,0.078,1.646c0.078,1.881,0.392,3.527,0.94,5.016c0.783,1.802,1.724,3.291,2.899,4.467
					c1.097,1.096,2.429,1.959,3.918,2.429c1.489,0.548,3.056,0.783,4.623,0.783c1.959,0,3.683-0.314,5.094-0.94
					c0.705-0.313,1.332-0.627,1.959-1.176c0.783-0.471,1.489-1.096,2.194-1.881l-3.84-3.683
					C228.237,97.409,227.375,98.114,226.591,98.506z"/>
				<path style="fill:#7E796F;" d="M257.311,77.896c-1.959-1.646-4.859-2.429-8.777-2.429c-1.176,0-2.194,0.077-3.135,0.156
					c-0.94,0.157-1.802,0.392-2.586,0.705c-0.862,0.314-1.567,0.784-2.272,1.254c-0.627,0.548-1.332,1.176-1.959,1.959l1.959,1.959
					l1.646,1.568c0.862-1.02,1.645-1.724,2.586-2.194c0.862-0.392,2.038-0.628,3.605-0.628c2.194,0,3.761,0.471,4.702,1.254
					c0.94,0.862,1.411,2.195,1.411,3.997v2.038h-7.366c-3.213,0-5.642,0.705-7.288,2.272c-1.645,1.489-2.429,3.449-2.429,5.8
					c0,0.705,0.078,1.332,0.235,1.959c0.235,1.567,0.862,2.978,1.959,4.074c0.862,0.863,1.881,1.489,3.056,1.881
					c1.254,0.471,2.664,0.627,4.466,0.627c1.724,0,3.135-0.235,4.232-0.627c1.175-0.47,2.194-1.175,3.213-2.194v2.507h5.564V85.106
					C260.132,81.892,259.191,79.541,257.311,77.896z M254.489,93.725c0,0.628,0,1.177-0.156,1.646
					c-0.157,1.097-0.47,1.959-1.097,2.507c-0.706,0.706-1.489,1.098-2.351,1.333c-0.784,0.157-1.724,0.235-2.743,0.235
					c-1.881,0-3.213-0.314-3.996-1.019c-0.392-0.235-0.627-0.628-0.784-1.019c-0.313-0.548-0.47-1.176-0.47-1.959
					c0-2.664,1.724-3.997,5.094-3.997h6.504V93.725z"/>
				<path style="fill:#7E796F;" d="M277.372,99.054c-1.176,0-1.959-0.313-2.429-0.862c-0.392-0.549-0.627-1.332-0.627-2.43V64.416
					h-5.643v31.66c0,1.019,0.157,2.038,0.392,2.978c0.313,0.94,0.783,1.725,1.411,2.43c0.626,0.705,1.41,1.332,2.429,1.724
					c0.94,0.391,2.116,0.627,3.448,0.627h3.448v-4.78H277.372z"/>
				<path style="fill:#7E796F;" d="M327.917,79.619c0-1.332-0.156-2.664-0.313-3.918c-0.235-1.176-0.549-2.35-0.94-3.37
					c-0.392-1.096-0.94-2.037-1.646-2.898c-1.411-1.725-3.056-2.979-4.78-3.84c-1.802-0.784-3.918-1.177-6.426-1.177h-13.87v39.418
					h13.87c2.508,0,4.624-0.391,6.426-1.175c1.724-0.784,3.37-2.037,4.78-3.761c0.705-0.941,1.254-1.881,1.646-2.979
					c0.392-1.018,0.706-2.116,0.94-3.369c0.157-1.254,0.313-2.508,0.313-3.918c0.079-0.784,0.079-1.645,0.079-2.508v-1.959
					C327.996,82.519,327.996,81.03,327.917,79.619z M322.04,86.123c-0.078,2.038-0.235,3.84-0.392,5.251
					c-0.156,1.881-0.784,3.37-1.724,4.466c-0.862,0.941-1.881,1.646-2.978,2.038c-1.097,0.471-2.429,0.628-3.761,0.628h-7.21v-28.76
					h7.21c1.332,0,2.664,0.235,3.761,0.627c1.097,0.471,2.116,1.098,2.978,2.116c0.94,1.02,1.567,2.508,1.724,4.389
					c0.235,1.881,0.392,4.311,0.392,7.287V86.123z"/>
				<path style="fill:#7E796F;" d="M353.935,77.896c-1.881-1.646-4.78-2.429-8.699-2.429c-1.175,0-2.194,0.077-3.134,0.156
					c-0.941,0.157-1.803,0.392-2.665,0.705c-0.784,0.314-1.489,0.784-2.194,1.254c-0.705,0.548-1.332,1.176-2.037,1.959l2.037,1.959
					l1.646,1.568c0.783-1.02,1.646-1.724,2.508-2.194c0.94-0.392,2.116-0.628,3.605-0.628c2.272,0,3.84,0.471,4.78,1.254
					c0.94,0.862,1.411,2.195,1.411,3.997v2.038h-7.366c-3.291,0-5.721,0.705-7.288,2.272c-1.646,1.489-2.429,3.449-2.429,5.8
					c0,0.705,0.078,1.332,0.235,1.959c0.235,1.567,0.862,2.978,1.959,4.074c0.862,0.863,1.881,1.489,3.056,1.881
					c1.176,0.471,2.665,0.627,4.467,0.627c1.724,0,3.135-0.235,4.232-0.627c1.097-0.47,2.194-1.175,3.213-2.194v2.507h5.564V85.106
					C356.834,81.892,355.894,79.541,353.935,77.896z M351.192,93.725c0,0.628,0,1.177-0.157,1.646
					c-0.156,1.097-0.47,1.959-1.097,2.507c-0.706,0.706-1.489,1.098-2.351,1.333c-0.783,0.157-1.724,0.235-2.743,0.235
					c-1.881,0-3.213-0.314-4.075-1.019c-0.313-0.235-0.626-0.628-0.783-1.019c-0.314-0.548-0.47-1.176-0.47-1.959
					c0-2.664,1.724-3.997,5.172-3.997h6.504V93.725z"/>
				<path style="fill:#7E796F;" d="M371.802,75.78v-7.993h-5.643v7.993h-3.213v4.31h3.213v15.987c0,0.941,0.157,1.959,0.47,2.9
					c0.314,0.939,0.784,1.724,1.411,2.429c0.627,0.784,1.41,1.333,2.429,1.802c0.94,0.391,2.037,0.627,3.37,0.627h3.37v-4.78h-2.273
					c-1.097,0-1.881-0.313-2.351-0.862c-0.549-0.627-0.783-1.41-0.783-2.43V80.089h5.407v-4.31H371.802z"/>
				<path style="fill:#7E796F;" d="M402.208,77.896c-1.881-1.646-4.78-2.429-8.698-2.429c-1.176,0-2.273,0.077-3.213,0.156
					c-0.94,0.157-1.802,0.392-2.586,0.705c-0.784,0.314-1.489,0.784-2.194,1.254c-0.706,0.548-1.332,1.176-2.038,1.959l2.038,1.959
					l1.646,1.568c0.783-1.02,1.645-1.724,2.507-2.194c0.94-0.392,2.116-0.628,3.605-0.628c2.195,0,3.84,0.471,4.78,1.254
					c0.94,0.862,1.41,2.195,1.41,3.997v2.038h-7.366c-3.291,0-5.72,0.705-7.366,2.272c-1.567,1.489-2.429,3.449-2.429,5.8
					c0,0.705,0.078,1.332,0.235,1.959c0.235,1.567,0.94,2.978,2.038,4.074c0.783,0.863,1.881,1.489,3.056,1.881
					c1.175,0.471,2.664,0.627,4.466,0.627c1.724,0,3.135-0.235,4.232-0.627c1.097-0.47,2.194-1.175,3.213-2.194v2.507h5.564V85.106
					C405.108,81.892,404.167,79.541,402.208,77.896z M399.465,93.725c0,0.628-0.078,1.177-0.156,1.646
					c-0.157,1.097-0.549,1.959-1.097,2.507c-0.705,0.706-1.489,1.098-2.351,1.333c-0.862,0.157-1.724,0.235-2.743,0.235
					c-1.881,0-3.213-0.314-4.075-1.019c-0.314-0.235-0.627-0.628-0.784-1.019c-0.313-0.548-0.47-1.176-0.47-1.959
					c0-2.664,1.724-3.997,5.172-3.997h6.504V93.725z"/>
			</g>
		</g>
		<g>
			<rect x="37" y="374.255" style="opacity:0.5;fill:#7E796F;" width="144.928" height="88.115"/>
			<g style="opacity:0.5;">
				<rect x="204.949" y="444.082" style="fill:#7E796F;" width="96.847" height="12.136"/>
				<rect x="204.949" y="377.834" style="fill:#7E796F;" width="200.044" height="12.688"/>
				<rect x="204.949" y="410.82" style="fill:#7E796F;" width="200.044" height="12.688"/>
			</g>
		</g>
		<polygon style="fill:#7F7F7F;" points="439.39,433.959 361.325,512 361.325,433.959 		"/>
	</g>
	<polygon style="opacity:0.06;fill:#040000;" points="0.042,486.254 0.042,512 361.361,512 439.426,433.96 439.426,46.87 	"/>
</g>
</svg>