<?xml version="1.0" encoding="iso-8859-1"?>

<!DOCTYPE svg PUBLIC "-//W3C//DTD SVG 1.1//EN" "http://www.w3.org/Graphics/SVG/1.1/DTD/svg11.dtd">
<!-- Uploaded to: SVG Repo, www.svgrepo.com, Generator: SVG Repo Mixer Tools -->
<svg version="1.1" id="_x35_" xmlns="http://www.w3.org/2000/svg" xmlns:xlink="http://www.w3.org/1999/xlink" 
	 viewBox="0 0 512 512"  xml:space="preserve">
<g>
	<g>
		<polygon style="fill:#FFFFFF;" points="413.199,0 413.199,449.984 412.614,449.984 339.775,512 0,512 0,62.016 0.585,62.016 
			73.425,0 		"/>
		<g>
			<rect x="33.584" y="376.248" style="opacity:0.5;fill:#CBC1B1;" width="136.28" height="82.857"/>
			<g style="opacity:0.5;">
				<rect x="191.512" y="441.908" style="fill:#CBC1B1;" width="91.068" height="11.412"/>
				<rect x="191.512" y="379.614" style="fill:#CBC1B1;" width="188.108" height="11.931"/>
				<rect x="191.512" y="410.631" style="fill:#CBC1B1;" width="188.108" height="11.931"/>
			</g>
		</g>
		<g>
			<polygon style="fill:#B0B25A;" points="384.365,138.231 384.365,162.041 321.595,162.041 252.98,236.434 145.154,119.534 
				87.579,181.939 28.84,181.939 28.84,158.128 81.869,158.128 145.154,89.556 252.98,206.455 315.884,138.231 			"/>
			<g>
				<rect x="28.84" y="244.034" style="fill:#72C7CA;" width="28" height="100.932"/>
				<rect x="93.642" y="232.775" style="fill:#72C7CA;" width="28" height="112.191"/>
				<rect x="158.443" y="215.082" style="fill:#72C7CA;" width="28" height="129.884"/>
				<rect x="223.245" y="274.997" style="fill:#72C7CA;" width="28" height="69.969"/>
				<rect x="288.046" y="250.87" style="fill:#72C7CA;" width="28" height="94.096"/>
				<rect x="352.848" y="227.145" style="fill:#72C7CA;" width="28" height="117.821"/>
			</g>
		</g>
		<circle style="fill:#72C7CA;" cx="296.075" cy="67.162" r="22.394"/>
		<circle style="fill:#B0B25A;" cx="352.842" cy="67.162" r="22.394"/>
	</g>
	<polygon style="opacity:0.04;fill:#040000;" points="216.613,0 216.613,512 339.775,512 412.614,449.984 413.199,449.984 
		413.199,0 	"/>
</g>
</svg>