<?xml version="1.0" encoding="iso-8859-1"?>

<!DOCTYPE svg PUBLIC "-//W3C//DTD SVG 1.1//EN" "http://www.w3.org/Graphics/SVG/1.1/DTD/svg11.dtd">
<!-- Uploaded to: SVG Repo, www.svgrepo.com, Generator: SVG Repo Mixer Tools -->
<svg version="1.1" id="_x35_" xmlns="http://www.w3.org/2000/svg" xmlns:xlink="http://www.w3.org/1999/xlink" 
	 viewBox="0 0 512 512"  xml:space="preserve">
<g>
	<g>
		<polygon style="fill:#FEFDEE;" points="461.307,35.234 461.307,512 415.389,512 367.424,491.542 319.535,512 0,512 0,35.234 		"/>
		<g>
			<ellipse style="fill:#CEDF6D;" cx="344.707" cy="143.01" rx="13.016" ry="12.228"/>
			<ellipse style="fill:#F8CE79;" cx="344.707" cy="193.608" rx="13.016" ry="12.228"/>
			<ellipse style="fill:#71C8DB;" cx="344.707" cy="244.206" rx="13.016" ry="12.228"/>
			<ellipse style="fill:#EE7644;" cx="344.707" cy="294.803" rx="13.016" ry="12.228"/>
		</g>
		<path style="fill:#F18A45;" d="M460.928,19.702h0.379v45.919H0V19.702h0.379C0.152,18.566,0,17.352,0,16.141
			C0,7.2,7.199,0,16.064,0h429.179c8.865,0,16.064,7.2,16.064,16.141c0,0.453,0,0.984-0.076,1.439
			C461.155,18.337,461.08,19.019,460.928,19.702z"/>
		<g>
			<g>
				<rect x="22.805" y="389.059" style="opacity:0.5;fill:#B4AB9D;" width="77.213" height="64.467"/>
				<g style="opacity:0.5;">
					<rect x="112.282" y="440.146" style="fill:#B4AB9D;" width="51.597" height="8.879"/>
					<rect x="112.283" y="391.678" style="fill:#B4AB9D;" width="106.577" height="9.283"/>
					<rect x="112.283" y="415.811" style="fill:#B4AB9D;" width="106.577" height="9.283"/>
				</g>
			</g>
			<g>
				<rect x="242.447" y="389.059" style="opacity:0.5;fill:#B4AB9D;" width="77.213" height="64.467"/>
				<g style="opacity:0.5;">
					<rect x="331.925" y="440.146" style="fill:#B4AB9D;" width="51.597" height="8.879"/>
					<rect x="331.925" y="391.678" style="fill:#B4AB9D;" width="106.577" height="9.283"/>
					<rect x="331.925" y="415.811" style="fill:#B4AB9D;" width="106.577" height="9.283"/>
				</g>
			</g>
		</g>
		<g>
			<path style="fill:#71C8DB;" d="M118.646,121.378c-17.961,9.736-33.156,23.9-44.185,41.005
				c-11.037,17.118-17.892,37.181-19.074,58.768c-0.122,2.227-0.195,4.468-0.195,6.725c0,19.975,4.868,38.803,13.436,55.41
				c10.134,19.643,25.466,36.16,44.204,47.708l63.418-109.844V106.818C155.396,106.818,135.776,112.093,118.646,121.378z"/>
			<path style="fill:#F8CE79;" d="M176.25,106.818c-20.854,0-40.474,5.275-57.604,14.56l57.604,99.773l57.604-99.773
				C216.723,112.093,197.103,106.818,176.25,106.818z"/>
			<path style="fill:#EE7644;" d="M297.308,227.876c0,19.773-4.768,38.425-13.182,54.895c-0.075,0.179-0.164,0.344-0.254,0.508
				c-10.133,19.653-25.467,36.168-44.209,47.721c-18.442,11.359-40.158,17.935-63.413,17.935s-44.971-6.576-63.413-17.935
				l63.413-109.849h120.864C297.233,223.378,297.308,225.62,297.308,227.876z"/>
			<path style="fill:#CEDF6D;" d="M297.114,221.151c-1.181-21.581-8.041-41.653-19.071-58.766c-0.104-0.15-0.209-0.314-0.314-0.463
				c-11-16.903-26.08-30.892-43.88-40.547l-57.301,99.253l-0.299,0.18l0.15,0.089l-0.15,0.254h0.598l107.278,61.62
				c8.414-16.47,13.182-35.122,13.182-54.895C297.308,225.62,297.233,223.378,297.114,221.151z"/>
		</g>
		<rect x="375.618" y="138.276" style="opacity:0.5;fill:#DDBB84;" width="52.187" height="9.469"/>
		<rect x="377.921" y="292.381" style="opacity:0.5;fill:#DDBB84;" width="32.617" height="9.469"/>
		<rect x="375.618" y="188.874" style="opacity:0.5;fill:#DDBB84;" width="37.222" height="9.469"/>
		<rect x="375.618" y="240.968" style="opacity:0.5;fill:#DDBB84;" width="27.629" height="9.469"/>
	</g>
	<polygon style="opacity:0.04;fill:#040000;" points="461.307,25.309 461.307,512 415.389,512 367.424,491.542 319.535,512 0,512 
		0,486.691 233.154,253.537 265.433,221.182 292.484,194.208 335.22,151.395 353.027,133.665 420.996,65.621 	"/>
</g>
</svg>