<?xml version="1.0" encoding="iso-8859-1"?>

<!DOCTYPE svg PUBLIC "-//W3C//DTD SVG 1.1//EN" "http://www.w3.org/Graphics/SVG/1.1/DTD/svg11.dtd">
<!-- Uploaded to: SVG Repo, www.svgrepo.com, Generator: SVG Repo Mixer Tools -->
<svg version="1.1" id="_x35_" xmlns="http://www.w3.org/2000/svg" xmlns:xlink="http://www.w3.org/1999/xlink" 
	 viewBox="0 0 512 512"  xml:space="preserve">
<g>
	<path style="fill:#F4F4F5;" d="M375.91,21.795v467.967c0,11.673-9.087,21.277-20.539,22.091c-0.739,0.074-1.552,0.147-2.29,0.147
		H22.312c-0.148,0-0.295,0-0.443-0.073c-0.443,0-0.887,0-1.33-0.074c-10.934-1.108-19.505-10.048-19.948-21.131v-0.073
		c-0.074-0.296-0.074-0.591-0.074-0.887V22.239C0.517,9.974,10.566,0,22.756,0h331.36C366.01,0.296,375.689,9.9,375.91,21.795z"/>
	<path style="fill:#FFFFFF;" d="M375.91,21.795v4.507c0-1.773-0.221-3.472-0.591-5.098c-1.921-8.127-8.349-14.554-16.476-16.475
		c-1.699-0.443-3.472-0.665-5.245-0.665H22.756c-12.19,0-22.238,9.974-22.238,22.239v-4.063C0.517,9.974,10.566,0,22.756,0h331.36
		C366.01,0.296,375.689,9.9,375.91,21.795z"/>
	<path style="opacity:0.1;fill:#040000;" d="M375.393,485.698v4.064c0,11.526-8.865,20.982-20.022,22.091
		c-0.739,0.074-1.552,0.147-2.29,0.147H21.943c-0.443,0-0.961,0-1.404-0.147C9.162,511.039,0.148,501.583,0,490.057v-4.359
		c0,1.7,0.222,3.325,0.591,4.95v0.073c1.921,8.275,8.423,14.776,16.697,16.623c1.625,0.37,3.325,0.591,5.024,0.591h330.768
		C365.345,507.937,375.393,497.963,375.393,485.698z"/>
	<g>
		<path style="fill:#C2C1C1;" d="M222.073,37.65h-67.725c-2.801,0-5.093-2.292-5.093-5.093v0c0-2.801,2.292-5.093,5.093-5.093
			h67.725c2.801,0,5.093,2.292,5.093,5.093v0C227.166,35.358,224.874,37.65,222.073,37.65z"/>
		<path style="fill:#8B8B8B;" d="M226.805,30.543c-0.849-0.691-1.925-1.106-3.099-1.106H155.68c-2.714,0-4.945,2.221-4.945,4.945
			v0.296c0,0.661,0.138,1.293,0.385,1.875c-1.135-0.898-1.866-2.3-1.866-3.849v-0.296c0-2.724,2.231-4.945,4.945-4.945h68.025
			C224.288,27.463,226.064,28.736,226.805,30.543z"/>
	</g>
	<g>
		<circle style="fill:#C2C1C1;" cx="188.21" cy="464.161" r="24.673"/>
		<path style="fill:#8B8B8B;" d="M206.787,448.829c-4.105-3.214-9.269-5.128-14.878-5.128c-13.337,0-24.158,10.821-24.158,24.171
			c0,5.597,1.902,10.749,5.104,14.842c-5.669-4.418-9.317-11.315-9.317-19.055c0-13.349,10.821-24.171,24.171-24.171
			C195.46,439.488,202.369,443.148,206.787,448.829z"/>
	</g>
	<rect x="25.352" y="57.232" style="fill:#C2C1C1;" width="325.716" height="365.197"/>
	<rect x="25.352" y="59.864" style="fill:#3D3D3D;" width="325.716" height="43.264"/>
	<g>
		<rect x="41.504" y="69.405" style="fill:#F2F2F2;" width="7.237" height="26.156"/>
		<rect x="53.046" y="76.808" style="fill:#F2F2F2;" width="7.237" height="18.753"/>
		<rect x="64.587" y="84.046" style="fill:#F2F2F2;" width="7.237" height="11.515"/>
	</g>
	<g style="opacity:0.5;">
		<rect x="41.801" y="160.404" style="fill:#FAFAFB;" width="87.29" height="42.635"/>
		<rect x="142.184" y="160.404" style="fill:#FAFAFB;" width="87.29" height="42.635"/>
		<rect x="242.568" y="160.404" style="fill:#FAFAFB;" width="87.29" height="42.635"/>
		<rect x="41.801" y="209.898" style="fill:#FAFAFB;" width="49.88" height="8.106"/>
		<rect x="63.191" y="137.186" style="fill:#FAFAFB;" width="49.88" height="4.053"/>
		<rect x="41.801" y="268.299" style="fill:#FAFAFB;" width="49.88" height="8.106"/>
		<rect x="41.801" y="222.991" style="fill:#FAFAFB;" width="87.913" height="8.105"/>
		<rect x="41.801" y="238.059" style="fill:#FAFAFB;" width="87.913" height="8.106"/>
		<rect x="41.801" y="253.127" style="fill:#FAFAFB;" width="87.913" height="8.106"/>
		<rect x="143.743" y="209.898" style="fill:#FAFAFB;" width="49.88" height="8.106"/>
		<rect x="143.743" y="268.299" style="fill:#FAFAFB;" width="49.88" height="8.106"/>
		<rect x="143.743" y="222.991" style="fill:#FAFAFB;" width="87.913" height="8.105"/>
		<rect x="143.743" y="238.059" style="fill:#FAFAFB;" width="87.913" height="8.106"/>
		<rect x="143.743" y="253.127" style="fill:#FAFAFB;" width="87.913" height="8.106"/>
		<rect x="242.499" y="209.898" style="fill:#FAFAFB;" width="49.88" height="8.106"/>
		<rect x="242.499" y="268.299" style="fill:#FAFAFB;" width="49.88" height="8.106"/>
		<rect x="242.499" y="222.991" style="fill:#FAFAFB;" width="87.913" height="8.105"/>
		<rect x="242.499" y="238.059" style="fill:#FAFAFB;" width="87.913" height="8.106"/>
		<rect x="242.499" y="253.127" style="fill:#FAFAFB;" width="87.913" height="8.106"/>
		<path style="fill:#FAFAFB;" d="M53.469,134.93L53.469,134.93c2.365,2.365,2.365,6.2,0,8.565l0,0c-2.365,2.365-6.2,2.365-8.565,0
			l0,0c-2.365-2.365-2.365-6.2,0-8.565l0,0C47.269,132.565,51.104,132.565,53.469,134.93z"/>
		
			<rect x="306.889" y="136.352" transform="matrix(-0.7071 -0.7071 0.7071 -0.7071 430.3376 456.6769)" style="fill:#FAFAFB;" width="5.721" height="5.721"/>
		
			<rect x="320.762" y="136.352" transform="matrix(-0.7071 -0.7071 0.7071 -0.7071 454.0161 466.4881)" style="fill:#FAFAFB;" width="5.721" height="5.721"/>
		
			<rect x="294.575" y="136.352" transform="matrix(-0.7071 -0.7071 0.7071 -0.7071 409.3161 447.9695)" style="fill:#FAFAFB;" width="5.721" height="5.721"/>
	</g>
	<path style="opacity:0.04;fill:#040000;" d="M375.393,68.341v421.421c0,11.526-8.865,20.982-20.022,22.091
		c-0.739,0.074-1.552,0.147-2.29,0.147H21.943c-0.443,0-0.961,0-1.404-0.147C9.162,511.039,0.148,501.583,0,490.057v-46.398
		l0.517-0.517l24.825-24.824l150.054-150.054l7.018-7.019l8.201-8.127l22.017-22.017l8.127-8.127l21.795-21.795l40.783-40.782
		l67.749-67.749L375.393,68.341z"/>
	<rect x="25.352" y="418.728" style="opacity:0.2;fill:#FAFAFB;" width="325.716" height="3.701"/>
</g>
</svg>