<?xml version="1.0" encoding="iso-8859-1"?>

<!DOCTYPE svg PUBLIC "-//W3C//DTD SVG 1.1//EN" "http://www.w3.org/Graphics/SVG/1.1/DTD/svg11.dtd">
<!-- Uploaded to: SVG Repo, www.svgrepo.com, Generator: SVG Repo Mixer Tools -->
<svg height="800px" width="800px" version="1.1" id="_x35_" xmlns="http://www.w3.org/2000/svg" xmlns:xlink="http://www.w3.org/1999/xlink" 
	 viewBox="0 0 512 512"  xml:space="preserve">
<g>
	<g>
		<g>
			<path style="fill:#938462;" d="M446.924,180.316c-3.307,0-5.99,2.684-5.99,6.054c0,3.305,2.683,5.99,5.99,5.99
				c3.369,0,6.052-2.684,6.052-5.99C452.976,183,450.293,180.316,446.924,180.316z M412.982,180.38
				c-0.125-0.064-0.312-0.064-0.437-0.064c-1.31,0-2.558,0.437-3.494,1.124c-1.56,1.06-2.558,2.87-2.558,4.929
				c0,1.871,0.873,3.555,2.246,4.616c0.998,0.874,2.371,1.374,3.806,1.374c0.125,0,0.312,0,0.437-0.063
				c3.12-0.187,5.553-2.747,5.553-5.927C418.535,183.125,416.101,180.566,412.982,180.38z M378.104,180.316
				c-3.307,0-5.99,2.684-5.99,6.054c0,3.305,2.683,5.99,5.99,5.99c3.37,0,6.052-2.684,6.052-5.99
				C384.156,183,381.473,180.316,378.104,180.316z M345.41,180.628c-0.561-0.248-1.123-0.312-1.684-0.312
				c-0.499,0-0.936,0.064-1.373,0.187c-1.123,0.187-2.121,0.812-2.932,1.56c-0.25,0.312-0.499,0.562-0.749,0.937
				c-0.624,0.935-0.999,2.12-0.999,3.37c0,3.305,2.683,5.99,6.052,5.99c0.374,0,0.749-0.063,1.123-0.125h0.062
				c0.436-0.062,0.811-0.187,1.185-0.437c2.121-0.873,3.619-2.995,3.619-5.427C349.715,183.623,347.905,181.316,345.41,180.628z
				 M309.284,180.316c-0.624,0-1.186,0.064-1.747,0.312c-1.31,0.375-2.433,1.187-3.182,2.309c-0.687,0.935-1.061,2.122-1.061,3.432
				c0,1.248,0.374,2.433,1.061,3.43c0.749,1.062,1.872,1.872,3.182,2.247c0.562,0.25,1.123,0.312,1.747,0.312
				c3.369,0,6.052-2.684,6.052-5.99C315.336,183,312.653,180.316,309.284,180.316z M275.155,180.316h-0.249
				c-3.369,0-6.052,2.684-6.052,6.054c0,0.436,0.062,0.81,0.125,1.185c0.562,2.745,2.995,4.805,5.927,4.805
				c3.307,0,5.99-2.684,5.99-5.99C280.895,183.063,278.399,180.504,275.155,180.316z M240.464,180.316
				c-3.307,0-5.99,2.684-5.99,6.054c0,0.436,0.063,0.935,0.187,1.31c0.562,2.682,2.933,4.68,5.803,4.68
				c2.933,0,5.304-1.997,5.865-4.68c0.125-0.375,0.187-0.874,0.187-1.31C246.516,183,243.833,180.316,240.464,180.316z
				 M206.085,180.316c-3.369,0-6.052,2.684-6.052,6.054c0,3.305,2.683,5.99,6.052,5.99c3.307,0,5.99-2.684,5.99-5.99
				C212.075,183,209.392,180.316,206.085,180.316z M171.644,180.316c-2.309,0-4.305,1.31-5.304,3.245
				c-0.249,0.437-0.436,0.999-0.561,1.499c-0.062,0.436-0.125,0.873-0.125,1.31c0,3.305,2.683,5.99,5.99,5.99
				c1.997,0,3.743-0.937,4.867-2.372c0.374-0.498,0.687-1.123,0.811-1.747c0.25-0.561,0.374-1.247,0.374-1.871
				C177.696,183,175.013,180.316,171.644,180.316z M141.446,182.001c-1.061-1.06-2.558-1.685-4.18-1.685
				c-3.369,0-6.052,2.684-6.052,6.054c0,3.305,2.683,5.99,6.052,5.99c1.56,0,2.933-0.562,3.993-1.497
				c1.248-1.123,1.997-2.746,1.997-4.492C143.255,184.685,142.569,183.125,141.446,182.001z M102.824,180.316
				c-0.561,0-1.061,0.064-1.56,0.25c-0.249,0.062-0.499,0.125-0.749,0.25c-2.184,0.874-3.681,3.057-3.681,5.554
				c0,3.305,2.683,5.99,5.99,5.99c0.374,0,0.811-0.063,1.185-0.125l0.749-0.25c0.312-0.125,0.562-0.25,0.874-0.375
				c1.934-0.935,3.245-2.932,3.245-5.24C108.876,183,106.194,180.316,102.824,180.316z M68.446,180.316
				c-3.369,0-6.052,2.684-6.052,6.054c0,3.305,2.683,5.99,6.052,5.99c3.307,0,5.99-2.684,5.99-5.99
				C74.435,183,71.752,180.316,68.446,180.316z M34.005,180.316c-3.307,0-5.99,2.684-5.99,6.054c0,3.305,2.683,5.99,5.99,5.99
				c3.369,0,6.052-2.684,6.052-5.99C40.056,183,37.374,180.316,34.005,180.316z"/>
		</g>
		<g>
			<path style="fill:#877F67;" d="M254.128,331.745h-0.312c-3.307,0-5.99,2.684-5.99,5.99c0,3.37,2.683,6.053,5.99,6.053h0.187
				c0.062,0,0.124,0,0.124,0h0.062c3.307,0,5.99-2.745,5.99-6.053C260.18,334.429,257.498,331.745,254.128,331.745z
				 M221.496,328.127c-0.437-0.125-0.936-0.187-1.372-0.187c-2.745,0-5.241,1.871-5.865,4.679c-0.749,3.245,1.31,6.489,4.555,7.237
				c0.437,0.125,0.874,0.125,1.31,0.125c2.745,0,5.241-1.872,5.927-4.68c0.062-0.437,0.125-0.873,0.125-1.31
				C226.176,331.247,224.304,328.75,221.496,328.127z M293.686,332.557c-0.624-2.747-3.12-4.68-5.802-4.68
				c-0.499,0-0.936,0.062-1.435,0.187c-3.244,0.686-5.241,3.93-4.492,7.175c0.624,2.807,3.12,4.68,5.865,4.68
				c0.437,0,0.874-0.063,1.372-0.125c2.808-0.625,4.68-3.12,4.68-5.865C293.873,333.492,293.811,332.994,293.686,332.557z
				 M190.799,317.332c-0.811-0.373-1.747-0.623-2.621-0.623c-2.246,0-4.367,1.248-5.428,3.432c-0.561,1.123-0.686,2.37-0.499,3.555
				c0.249,1.872,1.435,3.557,3.307,4.494c0.499,0.25,1.123,0.375,1.685,0.498c0.312,0.062,0.624,0.062,0.936,0.062
				c2.184,0,4.368-1.247,5.366-3.37c0.437-0.873,0.624-1.746,0.624-2.682C194.168,320.516,192.92,318.331,190.799,317.332z
				 M325.194,320.016c-1.061-2.184-3.182-3.432-5.428-3.432c-0.874,0-1.809,0.25-2.62,0.625c-2.995,1.435-4.243,5.053-2.808,8.047
				c1.061,2.122,3.182,3.37,5.428,3.37c0.874,0,1.809-0.186,2.62-0.561c2.184-1.06,3.432-3.244,3.432-5.429
				C325.818,321.763,325.569,320.826,325.194,320.016z M163.221,299.988c-1.061-0.874-2.433-1.31-3.743-1.31
				c-0.624,0-1.248,0.125-1.872,0.311c-1.061,0.312-2.059,0.999-2.808,1.935c-2.121,2.62-1.685,6.427,0.936,8.486
				c1.123,0.873,2.433,1.31,3.743,1.31c1.747,0,3.494-0.75,4.679-2.247c0.499-0.561,0.811-1.185,1.061-1.81v-0.061
				c0.187-0.625,0.312-1.249,0.312-1.935C165.53,302.92,164.719,301.173,163.221,299.988z M353.084,300.736
				c-1.185-1.497-2.933-2.245-4.68-2.245c-1.31,0-2.683,0.437-3.806,1.31c-2.558,2.058-2.995,5.865-0.873,8.486
				c1.185,1.435,2.932,2.245,4.68,2.245c1.31,0,2.62-0.437,3.743-1.31c1.497-1.185,2.309-2.995,2.309-4.742
				C354.457,303.17,354.02,301.858,353.084,300.736z M140.198,276.965c-1.185-1.499-2.933-2.247-4.679-2.247
				c-0.624,0-1.31,0.125-1.872,0.312c-0.063,0-0.063,0-0.063,0c-0.686,0.25-1.247,0.561-1.809,0.998
				c-2.62,2.06-3.057,5.865-0.936,8.486c1.185,1.435,2.932,2.245,4.68,2.245c1.31,0,2.62-0.436,3.743-1.31
				c0.998-0.75,1.622-1.81,1.934-2.87c0.249-0.562,0.312-1.185,0.312-1.81C141.508,279.398,141.071,278.088,140.198,276.965z
				 M376.045,275.778c-1.061-0.873-2.434-1.31-3.744-1.31c-1.747,0-3.494,0.748-4.68,2.247c-2.059,2.62-1.684,6.425,0.936,8.485
				c1.123,0.874,2.433,1.31,3.743,1.31c1.81,0,3.557-0.748,4.742-2.245c0.874-1.124,1.31-2.434,1.31-3.744
				C378.353,278.711,377.542,276.965,376.045,275.778z M122.853,249.449c-1.061-2.184-3.182-3.432-5.428-3.432
				c-0.874,0-1.809,0.25-2.62,0.625c-2.247,1.06-3.494,3.369-3.37,5.74c-0.062,0.187,0,0.312,0.062,0.5
				c0.063,0.623,0.25,1.248,0.499,1.81c0.936,1.933,2.683,3.12,4.617,3.307c0.249,0.125,0.499,0.125,0.811,0.125
				c0.561,0,1.185-0.064,1.747-0.312c0.312-0.062,0.624-0.187,0.874-0.312c2.184-1.06,3.431-3.182,3.431-5.429
				C123.476,251.196,123.227,250.259,122.853,249.449z M392.953,246.329c-0.811-0.375-1.684-0.561-2.558-0.561
				c-2.246,0-4.43,1.248-5.491,3.431c-1.435,2.995-0.187,6.552,2.808,7.986c0.374,0.187,0.749,0.312,1.123,0.437
				c0.499,0.125,0.998,0.187,1.497,0.187c2.246,0,4.368-1.248,5.428-3.432c0.312-0.624,0.499-1.372,0.562-2.059v-0.062
				c0.063-0.187,0.063-0.312,0.063-0.498C396.385,249.574,395.137,247.389,392.953,246.329z M112.059,218.751
				c-0.624-2.809-3.057-4.679-5.802-4.679c-0.437,0-0.936,0.063-1.373,0.187c-3.244,0.686-5.303,3.93-4.555,7.175
				c0.624,2.807,3.12,4.679,5.865,4.679c0.437,0,0.936,0,1.373-0.125c2.808-0.623,4.679-3.12,4.679-5.865
				C112.246,219.687,112.183,219.187,112.059,218.751z M402.812,213.885c-0.437-0.125-0.874-0.125-1.372-0.125
				c-2.683,0-5.179,1.872-5.803,4.68c-0.749,3.245,1.31,6.489,4.555,7.237c0.437,0.063,0.874,0.125,1.31,0.125
				c2.745,0,5.241-1.934,5.865-4.679c0.125-0.436,0.125-0.873,0.125-1.372C407.491,217.004,405.619,214.508,402.812,213.885z
				 M102.512,180.441c-0.063,0-0.063,0-0.125,0c-0.374,0-0.749,0.063-1.123,0.125c-0.249,0.062-0.499,0.125-0.749,0.25
				c-2.371,0.687-4.118,2.932-4.118,5.615c0,3.309,2.683,6.054,6.052,6.054c0.562,0,1.061-0.063,1.56-0.25l0.749-0.25
				c0.312-0.125,0.562-0.25,0.874-0.375c1.685-1.123,2.808-2.995,2.808-5.179C108.44,183.186,105.819,180.441,102.512,180.441z
				 M409.051,181.44c-0.998-0.874-2.371-1.374-3.868-1.374c-3.307,0-5.99,2.684-5.99,6.053c0,3.305,2.683,5.99,6.052,5.99
				c1.31,0,2.495-0.437,3.494-1.124c1.497-1.06,2.495-2.87,2.495-4.928C411.234,184.185,410.424,182.563,409.051,181.44z
				 M107.504,146.874c-0.437-0.125-0.873-0.125-1.373-0.125c-2.683,0-5.179,1.872-5.803,4.68c-0.749,3.245,1.248,6.427,4.492,7.175
				c0.437,0.125,0.936,0.187,1.373,0.187c2.745,0,5.241-1.933,5.865-4.68c0.125-0.437,0.125-0.873,0.125-1.372
				C112.183,149.994,110.311,147.499,107.504,146.874z M407.242,151.117c-0.624-2.807-3.057-4.742-5.865-4.742
				c-0.437,0-0.874,0.063-1.373,0.187c-3.182,0.748-5.241,3.993-4.492,7.237c0.624,2.746,3.12,4.68,5.865,4.68
				c0.437,0,0.936-0.061,1.372-0.186c2.808-0.624,4.68-3.12,4.68-5.804C407.429,151.989,407.366,151.554,407.242,151.117z
				 M120.606,115.802c-0.187-0.187-0.437-0.312-0.624-0.437c-0.811-0.375-1.747-0.623-2.62-0.623c-2.246,0-4.368,1.247-5.428,3.43
				c-0.562,1.249-0.749,2.559-0.437,3.807c0.312,1.747,1.435,3.369,3.245,4.242c0.874,0.375,1.747,0.562,2.62,0.562
				c2.246,0,4.368-1.248,5.428-3.369c0.374-0.812,0.624-1.747,0.624-2.622C123.414,118.797,122.416,116.863,120.606,115.802z
				 M395.512,117.862c-1.061-2.184-3.182-3.432-5.428-3.432c-0.687,0-1.435,0.187-2.122,0.437c-0.187,0.061-0.374,0.123-0.499,0.186
				c-0.312,0.125-0.624,0.312-0.873,0.562c-2.371,1.622-3.182,4.804-1.872,7.487c1.061,2.122,3.182,3.369,5.429,3.369
				c0.873,0,1.747-0.187,2.62-0.562c1.435-0.748,2.496-1.933,2.932-3.307c0.187-0.25,0.25-0.561,0.25-0.81
				c0.125-0.437,0.187-0.81,0.187-1.248C396.135,119.608,395.948,118.735,395.512,117.862z M139.2,87.351
				c-1.123-0.874-2.433-1.31-3.743-1.31c-1.81,0-3.556,0.81-4.742,2.309c-2.059,2.558-1.622,6.363,0.936,8.422
				c1.123,0.937,2.433,1.31,3.744,1.31c1.809,0,3.557-0.748,4.742-2.247c0.873-1.06,1.31-2.433,1.31-3.743
				C141.446,90.345,140.697,88.598,139.2,87.351z M376.731,88.1c-1.186-1.499-2.995-2.309-4.742-2.309
				c-1.31,0-2.62,0.437-3.743,1.372c-1.81,1.435-2.558,3.744-2.121,5.866c0.187,0.873,0.562,1.746,1.185,2.558
				c0.936,1.185,2.184,1.872,3.494,2.122c0.374,0.061,0.811,0.123,1.185,0.123c1.373,0,2.683-0.373,3.806-1.31
				c1.498-1.185,2.246-2.932,2.246-4.679C378.042,90.533,377.605,89.16,376.731,88.1z M164.094,64.328
				c-1.248-1.497-2.995-2.247-4.742-2.247c-1.31,0-2.62,0.437-3.743,1.312c-2.62,2.058-2.995,5.865-0.936,8.485
				c1.185,1.497,2.933,2.245,4.679,2.245c1.373,0,2.683-0.436,3.806-1.31c1.497-1.185,2.246-2.932,2.246-4.741
				C165.405,66.761,164.968,65.451,164.094,64.328z M351.774,63.204c-1.123-0.873-2.434-1.31-3.743-1.31
				c-1.747,0-3.494,0.75-4.742,2.247c-1.123,1.435-1.497,3.244-1.185,4.867c0.249,1.435,0.998,2.683,2.184,3.619
				c0.749,0.623,1.747,1.06,2.683,1.248c0.374,0.063,0.687,0.063,1.061,0.063c1.747,0,3.494-0.812,4.68-2.309
				c0.873-1.123,1.31-2.433,1.31-3.744C354.02,66.138,353.271,64.39,351.774,63.204z M193.419,47.357
				c-0.998-2.122-3.182-3.37-5.366-3.37c-0.936,0-1.81,0.187-2.683,0.623c-2.995,1.435-4.243,5.054-2.745,8.049
				c0.998,2.122,3.182,3.369,5.366,3.369c0.874,0,1.809-0.187,2.62-0.625c2.184-1.06,3.432-3.181,3.432-5.427
				C194.043,49.104,193.794,48.167,193.419,47.357z M321.95,44.425c-0.811-0.375-1.747-0.625-2.62-0.625
				c-0.686,0-1.372,0.125-1.997,0.437c-1.435,0.437-2.683,1.497-3.432,2.995c-1.435,2.995-0.187,6.612,2.808,8.048
				c0.811,0.437,1.747,0.625,2.62,0.625c2.246,0,4.368-1.248,5.428-3.43c0.063-0.189,0.187-0.375,0.187-0.625
				c0.312-0.625,0.437-1.31,0.437-1.997C325.382,47.605,324.134,45.485,321.95,44.425z M225.864,37.436
				c-0.624-2.807-3.12-4.68-5.865-4.68c-0.499,0-0.936,0-1.373,0.125c-3.244,0.75-5.241,3.994-4.492,7.237
				c0.624,2.747,3.12,4.68,5.803,4.68c0.499,0,0.936-0.062,1.373-0.187c2.807-0.623,4.68-3.12,4.68-5.802
				C225.989,38.31,225.989,37.873,225.864,37.436z M288.694,32.819c-0.437-0.125-0.936-0.125-1.373-0.125
				c-2.745,0-5.241,1.872-5.865,4.68c-0.749,3.244,1.31,6.427,4.555,7.176c0.436,0.125,0.873,0.186,1.31,0.186
				c2.745,0,5.241-1.935,5.865-4.741c0.125-0.437,0.125-0.874,0.125-1.311C293.311,35.939,291.44,33.442,288.694,32.819z
				 M253.629,28.951c-3.307,0-5.99,2.682-5.99,5.989c0,3.369,2.683,6.052,5.99,6.052c3.369,0,6.052-2.683,6.052-6.052
				C259.681,31.634,256.998,28.951,253.629,28.951z"/>
		</g>
		<g>
			<path style="fill:#938462;" d="M254.004,288.757c-0.063,0-0.063,0-0.125,0c-3.307,0-5.99,2.682-5.99,5.989
				c0,3.307,2.683,6.052,5.99,6.052c3.369-0.062,6.052-2.745,6.052-6.052C259.931,291.502,257.31,288.757,254.004,288.757z
				 M222.245,283.765c-0.624-0.187-1.248-0.312-1.809-0.312c-2.558,0-4.929,1.622-5.741,4.181c-0.187,0.623-0.312,1.247-0.312,1.871
				c0,2.559,1.622,4.867,4.181,5.679c0,0.063,0,0.063,0,0.063c0.624,0.187,1.247,0.248,1.872,0.248c2.495,0,4.867-1.56,5.678-4.18
				c0.187-0.623,0.312-1.248,0.312-1.871C226.425,286.947,224.803,284.575,222.245,283.765z M293.124,287.572
				c-0.873-2.497-3.244-4.181-5.803-4.181c-0.561,0-1.185,0.125-1.809,0.312c-3.182,1.062-4.867,4.43-3.868,7.612
				c0.874,2.559,3.182,4.18,5.74,4.18c0.624,0,1.248-0.123,1.872-0.311c2.558-0.874,4.181-3.182,4.181-5.74
				C293.436,288.819,293.311,288.195,293.124,287.572z M193.731,269.227c-0.437-0.311-0.874-0.561-1.372-0.748
				c-0.686-0.25-1.373-0.375-2.122-0.375c-0.686,0-1.31,0.125-1.934,0.375c-1.185,0.312-2.246,1.06-2.995,2.122
				c-1.934,2.682-1.31,6.425,1.372,8.36c1.061,0.812,2.309,1.185,3.494,1.185c1.872,0,3.744-0.873,4.867-2.495
				c0.811-1.06,1.185-2.309,1.185-3.557C196.227,272.285,195.354,270.413,193.731,269.227z M322.449,270.476
				c-0.686-0.937-1.56-1.622-2.558-1.997c-0.749-0.312-1.56-0.5-2.309-0.5c-0.811,0-1.56,0.125-2.309,0.5
				c-0.437,0.125-0.874,0.375-1.248,0.687c-2.683,1.933-3.307,5.74-1.31,8.422c1.186,1.56,2.995,2.433,4.867,2.433
				c1.248,0,2.433-0.373,3.556-1.123c1.622-1.185,2.433-3.057,2.433-4.867C323.572,272.784,323.198,271.536,322.449,270.476z
				 M171.082,246.641c-1.185-1.622-3.057-2.497-4.866-2.497c-1.248,0-2.496,0.375-3.556,1.187c-2.683,1.933-3.307,5.677-1.31,8.361
				c1.186,1.621,2.995,2.495,4.867,2.495c1.248,0,2.433-0.375,3.556-1.124c1.622-1.185,2.433-3.056,2.433-4.865
				C172.206,248.949,171.831,247.701,171.082,246.641z M345.098,245.144c-1.061-0.749-2.309-1.124-3.556-1.124
				c-1.872,0-3.681,0.874-4.866,2.497c-1.997,2.683-1.373,6.427,1.31,8.361c1.061,0.81,2.309,1.185,3.556,1.185
				c1.872,0,3.681-0.874,4.867-2.495c0.749-1.062,1.123-2.309,1.123-3.557C347.531,248.201,346.72,246.329,345.098,245.144z
				 M156.483,218.127c-0.874-2.558-3.182-4.18-5.74-4.18c-0.624,0-1.248,0.125-1.872,0.312c-3.12,1.06-4.867,4.43-3.868,7.612
				c0.874,2.495,3.245,4.117,5.74,4.117c0.624,0,1.248-0.062,1.872-0.25c2.558-0.873,4.18-3.182,4.18-5.74
				C156.795,219.376,156.67,218.751,156.483,218.127z M358.762,214.135c-0.624-0.187-1.248-0.312-1.872-0.312
				c-2.496,0-4.867,1.622-5.678,4.18c-0.998,3.12,0.687,6.552,3.868,7.549c0.624,0.25,1.248,0.312,1.872,0.312
				c2.495,0,4.866-1.622,5.678-4.18c0.187-0.625,0.312-1.248,0.312-1.872C362.942,217.254,361.32,214.945,358.762,214.135z
				 M145.439,180.504c-1.56,0-2.932,0.562-3.993,1.497c-1.248,1.124-2.059,2.745-2.059,4.555c0,1.685,0.686,3.184,1.872,4.306
				c1.061,1.06,2.558,1.683,4.18,1.683c3.307,0,5.99-2.683,5.99-6.051C151.429,183.186,148.746,180.504,145.439,180.504z
				 M362.193,180.005c-0.936,0-1.872,0.25-2.62,0.623c-1.685,0.812-2.87,2.309-3.245,4.181c-0.063,0.373-0.125,0.748-0.125,1.185
				v0.25c0,0.061,0,0.061,0,0.125c0,0.436,0.062,0.81,0.125,1.185c0.374,1.871,1.56,3.37,3.245,4.18
				c0.749,0.375,1.685,0.625,2.62,0.625c3.37,0,6.052-2.684,6.052-5.99v-0.375C368.246,182.688,365.5,180.005,362.193,180.005z
				 M152.489,147.31c-0.624-0.186-1.248-0.311-1.872-0.311c-2.558,0-4.867,1.622-5.678,4.18c-1.061,3.182,0.687,6.552,3.868,7.612
				c0.624,0.187,1.248,0.25,1.81,0.25c2.558,0,4.929-1.622,5.74-4.18c0.187-0.625,0.312-1.248,0.312-1.872
				C156.67,150.43,155.047,148.122,152.489,147.31z M362.568,150.679c-0.873-2.558-3.244-4.18-5.74-4.18
				c-0.624,0-1.248,0.125-1.872,0.312c-3.057,0.998-4.742,4.117-3.993,7.175c0.063,0.125,0.063,0.312,0.125,0.437
				c0.437,1.31,1.31,2.37,2.371,3.057c0.811,0.625,1.809,0.937,2.87,0.998c0.187,0.064,0.312,0.064,0.499,0.064
				c0.624,0,1.248-0.064,1.872-0.25c0.312-0.125,0.562-0.25,0.874-0.375c2.059-1.06,3.307-3.182,3.307-5.429
				C362.88,151.928,362.755,151.304,362.568,150.679z M169.523,117.923c-1.061-0.748-2.308-1.123-3.556-1.123
				c-1.809,0-3.681,0.812-4.867,2.433c-1.934,2.746-1.31,6.489,1.372,8.424c1.061,0.812,2.309,1.185,3.494,1.185
				c1.872,0,3.744-0.873,4.929-2.495c0.749-1.06,1.123-2.309,1.123-3.494C172.019,120.982,171.145,119.109,169.523,117.923z
				 M346.221,118.86c-1.186-1.622-3.057-2.497-4.929-2.497c-1.248,0-2.433,0.375-3.494,1.187c-2.683,1.933-3.307,5.74-1.31,8.422
				c1.185,1.56,2.995,2.434,4.867,2.434c1.186,0,2.496-0.375,3.556-1.185c1.622-1.187,2.433-2.995,2.433-4.804
				C347.344,121.167,346.969,119.92,346.221,118.86z M194.792,95.212c-1.186-1.622-3.058-2.433-4.867-2.433
				c-1.248,0-2.496,0.373-3.556,1.123c-2.683,1.997-3.245,5.74-1.31,8.422c1.186,1.624,2.995,2.497,4.867,2.497
				c1.248,0,2.496-0.375,3.556-1.187c1.622-1.185,2.433-2.995,2.433-4.865C195.915,97.52,195.541,96.272,194.792,95.212z
				 M320.827,93.59c-1.061-0.75-2.309-1.123-3.494-1.123c-1.872,0-3.743,0.873-4.929,2.495c-1.934,2.682-1.31,6.427,1.372,8.424
				c1.061,0.748,2.309,1.123,3.494,1.123c1.872,0,3.744-0.874,4.929-2.495c0.749-1.062,1.123-2.309,1.123-3.494
				C323.322,96.647,322.449,94.775,320.827,93.59z M225.802,81.424c-0.811-2.497-3.182-4.118-5.678-4.118
				c-0.687,0-1.31,0.125-1.934,0.311c-3.12,0.999-4.867,4.43-3.806,7.549c0.811,2.559,3.182,4.181,5.678,4.181
				c0.624,0,1.31-0.125,1.872-0.312c2.558-0.874,4.18-3.182,4.18-5.74C226.113,82.671,225.989,82.047,225.802,81.424z
				 M288.881,77.431c-0.624-0.189-1.248-0.314-1.809-0.314c-2.558,0-4.929,1.624-5.74,4.181c-1.061,3.182,0.686,6.552,3.868,7.612
				c0.624,0.187,1.248,0.25,1.872,0.25c2.496,0,4.866-1.622,5.74-4.18c0.187-0.624,0.25-1.187,0.25-1.81
				C293.062,80.612,291.44,78.242,288.881,77.431z M253.567,71.94c-3.369,0-6.052,2.683-6.052,6.052c0,3.307,2.683,5.99,6.052,5.99
				c3.307,0,5.99-2.683,5.99-6.052C259.556,74.622,256.873,71.94,253.567,71.94z"/>
		</g>
		<g>
			<g>
				<path style="fill:#50BBAB;" d="M412.982,153.674v65.388c0,26.206-21.526,47.732-47.793,47.732H142.444
					c-8.299,0-16.16-2.183-23.023-5.99c-7.924-4.367-14.413-10.856-18.781-18.781c-3.806-6.801-5.99-14.663-5.99-22.962v-65.388
					c0-26.267,21.526-47.73,47.794-47.73h222.744c5.99,0,11.73,1.124,17.033,3.182c12.666,4.867,22.773,14.911,27.578,27.579
					C411.859,141.945,412.982,147.685,412.982,153.674z"/>
			</g>
			<g>
				<path style="fill:#D4694F;" d="M253.816,105.944v160.85H142.444c-8.299,0-16.16-2.183-23.023-5.99
					c-7.924-4.367-14.413-10.856-18.781-18.781c-3.806-6.801-5.99-14.663-5.99-22.962v-65.388c0-26.267,21.526-47.73,47.794-47.73
					H253.816z"/>
			</g>
		</g>
		<g>
			<g style="opacity:0.1;">
				<path style="fill:#FFFFFF;" d="M195.728,185.308c0,0-0.063-0.125-0.063-0.187c-2.495-2.058-5.927-3.93-10.42-5.49
					c-7.737-2.87-10.919-4.367-11.356-6.989c-0.125-0.25-0.125-0.561-0.125-0.81c0-2.745,2.995-5.117,9.172-5.117
					c5.678,0,9.796,1.31,12.354,2.309l3.057-10.546c-1.123-0.436-2.371-0.873-3.868-1.185c-3.057-0.748-6.926-1.247-11.418-1.247
					c-16.285,0-25.332,7.424-25.332,16.971c0,2.247,0.624,4.305,1.934,6.302c1.31,2.06,3.369,3.993,6.114,5.741
					c2.371,1.496,5.303,2.931,8.735,4.18c0.686,0.25,1.372,0.5,1.996,0.748c2.184,0.812,3.868,1.622,5.116,2.372v0.062
					c2.246,1.31,3.307,2.745,3.307,4.742c0,3.305-3.245,5.677-9.983,5.677c-5.615,0-11.543-1.372-15.224-2.932l-2.184,8.424
					l-0.562,2.308c3.244,1.435,10.233,2.932,17.346,2.932c16.971,0,26.704-7.299,26.704-17.471
					C201.032,191.922,199.409,188.303,195.728,185.308z"/>
			</g>
			<g>
				<path style="fill:#782525;" d="M195.728,185.308c0,0-0.063-0.125-0.063-0.187c-2.371-3.555-6.801-6.55-13.664-8.984
					c-3.681-1.372-6.302-2.433-8.111-3.494c-2.371-1.248-3.307-2.558-3.307-4.367c0-2.682,2.932-5.117,9.172-5.117
					c5.615,0,9.858,1.374,12.354,2.372l2.371-8.236l0.624-2.308c-3.37-1.312-8.548-2.497-15.287-2.497
					c-16.222,0-25.332,7.488-25.332,16.972c0,3.743,1.747,6.987,5.179,9.857c1.747,1.56,3.993,2.995,6.676,4.242
					c1.498,0.812,3.182,1.499,4.992,2.122c2.433,0.873,4.43,1.685,5.99,2.558c2.433,1.249,3.868,2.497,4.305,4.119v0.062
					c0.063,0.373,0.125,0.81,0.125,1.248c0,3.307-3.245,5.677-9.983,5.677c-5.678,0-11.543-1.435-15.286-2.932l-2.745,10.732
					c1.061,0.437,2.309,0.874,3.806,1.187c3.619,0.935,8.548,1.685,13.539,1.685c17.034,0,26.767-7.239,26.767-17.472
					C197.85,189.863,197.163,187.492,195.728,185.308z"/>
			</g>
		</g>
		<g>
			<g style="opacity:0.1;">
				<path style="fill:#FFFFFF;" d="M345.16,157.481v13.415c0,3.305,0.062,6.613,0.249,9.732c0.125,4.057,0.374,7.799,0.687,11.169
					c0.187,1.31,0.312,2.558,0.436,3.682h-0.125c-0.499-1.06-0.999-2.122-1.497-3.245h-0.062c-0.624-1.249-1.248-2.495-1.872-3.744
					c-1.186-2.184-2.434-4.367-3.556-6.427c-0.936-1.622-1.81-3.12-2.683-4.43l-12.042-20.153h-17.158v56.092h14.413v-13.726
					c0-8.672-0.249-16.285-0.686-22.4c0-0.998-0.062-1.935-0.187-2.745h0.374c2.62,5.802,6.614,13.164,9.92,18.531l10.108,16.846
					l2.121,3.494h15.973v-56.092H345.16z"/>
			</g>
			<g>
				<path style="fill:#235A64;" d="M341.978,153.986v13.353c0,4.555,0.125,9.047,0.374,13.164c0.187,2.871,0.374,5.554,0.624,7.986
					c0.062,1.249,0.187,2.372,0.312,3.432h-0.125c-1.31-2.745-2.87-5.865-4.492-8.922c-1.747-3.244-3.556-6.364-5.179-8.923
					l-9.983-16.596l-2.059-3.494h-17.096v56.092h14.413v-13.789c0-9.984-0.374-18.593-0.874-25.145h0.374
					c0.811,1.997,1.934,4.181,2.995,6.302c2.184,4.244,4.742,8.674,6.863,12.229l12.354,20.403h15.848v-56.092H341.978z"/>
			</g>
		</g>
		<g>
			<polygon style="fill:#FAE2A0;" points="221.699,187.673 249.899,187.673 235.297,227.315 279.515,175.154 255.066,171.993 
				266.972,143.748 			"/>
		</g>
		<g>
			<g>
				<path style="fill:#877F67;" d="M69.444,132.461c-0.25,0-0.437-0.062-0.686-0.062c-2.995,0-5.615,2.309-5.927,5.367
					c-0.437,3.305,1.997,6.239,5.241,6.675h0.687c3.057,0,5.678-2.245,5.99-5.365c0-0.25,0.063-0.437,0.063-0.687
					C74.81,135.393,72.501,132.836,69.444,132.461z M40.244,121.605c-1.061-0.687-2.246-1.06-3.432-1.06
					c-1.872,0-3.744,0.935-4.929,2.62c-1.872,2.745-1.186,6.489,1.56,8.361c1.061,0.748,2.246,1.06,3.369,1.06
					c1.934,0,3.868-0.935,4.991-2.62c0.686-1.06,1.061-2.247,1.061-3.432C42.864,124.662,41.929,122.79,40.244,121.605z
					 M19.467,98.332c-1.061-2.06-3.182-3.182-5.303-3.182c-0.936,0-1.934,0.187-2.808,0.686c-2.933,1.56-4.056,5.179-2.496,8.113
					c1.061,2.058,3.12,3.243,5.304,3.243c0.936,0,1.934-0.248,2.808-0.686c2.059-1.062,3.182-3.182,3.182-5.367
					C20.153,100.204,19.966,99.205,19.467,98.332z M5.99,62.081c-3.307,0-5.99,2.683-5.99,5.991c0,3.368,2.683,6.05,5.99,6.05
					c3.307,0,6.052-2.682,6.052-6.05C12.042,64.764,9.297,62.081,5.99,62.081z"/>
			</g>
			<g>
				<path style="fill:#877F67;" d="M99.767,91.281c-0.998-0.623-2.121-0.873-3.182-0.873c-1.997,0-3.993,0.998-5.116,2.87
					c-1.747,2.807-0.873,6.552,1.997,8.236l-0.062,0.063c0.998,0.562,2.121,0.873,3.182,0.873c1.997,0,3.993-1.06,5.116-2.87
					c0.624-0.998,0.874-2.059,0.874-3.182C102.575,94.4,101.577,92.405,99.767,91.281z M77.929,69.07
					c-1.123-1.935-3.182-2.995-5.241-2.995c-0.998,0-2.059,0.248-2.995,0.81c-2.87,1.685-3.868,5.429-2.121,8.299
					c1.123,1.872,3.12,2.932,5.178,2.932c0.998,0,2.059-0.25,3.058-0.81c1.872-1.124,2.932-3.12,2.932-5.242
					C78.74,71.067,78.491,70.005,77.929,69.07z M63.017,33.442h-0.312c-3.307,0.189-5.865,2.934-5.74,6.303
					c0.187,3.245,2.87,5.74,6.052,5.74h0.25c3.182-0.187,5.74-2.807,5.74-5.99v-0.312C68.882,35.939,66.199,33.442,63.017,33.442z
					 M72.252,0.562C71.44,0.187,70.567,0,69.693,0c-2.246,0-4.43,1.248-5.491,3.494c-1.372,2.995-0.124,6.614,2.933,7.987
					c0.811,0.437,1.685,0.561,2.558,0.561c2.246,0,4.43-1.248,5.428-3.432c0.374-0.81,0.562-1.685,0.562-2.558
					C75.683,3.805,74.435,1.622,72.252,0.562z"/>
			</g>
			<g>
				<path style="fill:#877F67;" d="M5.99,298.614c-3.307,0-5.99,2.684-5.99,5.991c0,3.368,2.683,6.052,5.99,6.052
					c3.307,0,6.052-2.684,6.052-6.052C12.042,301.298,9.297,298.614,5.99,298.614z M16.971,266.232
					c-0.874-0.498-1.872-0.685-2.808-0.685c-2.122,0-4.243,1.123-5.304,3.182c-1.56,2.932-0.437,6.612,2.496,8.172
					c0.874,0.437,1.872,0.687,2.808,0.687c2.121,0,4.243-1.185,5.303-3.245c0.499-0.873,0.686-1.872,0.686-2.807
					C20.153,269.414,19.03,267.294,16.971,266.232z M41.804,242.71c-1.186-1.685-3.057-2.62-4.929-2.62
					c-1.185,0-2.371,0.375-3.431,1.06c-2.745,1.872-3.432,5.679-1.56,8.361c1.186,1.747,3.057,2.682,4.991,2.682
					c1.123,0,2.309-0.375,3.37-1.06c1.685-1.185,2.62-3.057,2.62-4.992C42.864,244.956,42.49,243.771,41.804,242.71z M74.747,233.6
					c-0.374-3.057-2.932-5.365-5.99-5.365c-0.187,0-0.437,0.063-0.687,0.063c-3.244,0.373-5.678,3.368-5.241,6.676
					c0.312,3.056,2.932,5.303,5.927,5.303h0.686c3.057-0.375,5.366-2.995,5.366-5.99C74.81,234.038,74.747,233.85,74.747,233.6z"/>
			</g>
			<g>
				<path style="fill:#877F67;" d="M75.121,364.127c-1.061-2.245-3.182-3.493-5.428-3.493c-0.873,0-1.747,0.187-2.558,0.562
					c-3.057,1.435-4.305,4.99-2.933,8.047c1.061,2.184,3.245,3.432,5.491,3.432c0.874,0,1.747-0.187,2.558-0.561
					c2.184-1.062,3.432-3.184,3.432-5.429C75.683,365.812,75.496,364.939,75.121,364.127z M63.267,327.253h-0.312
					c-3.182,0-5.803,2.558-5.99,5.741c-0.125,3.306,2.433,6.114,5.74,6.3h0.312c3.182,0,5.865-2.558,5.99-5.74v-0.311
					C69.007,329.999,66.449,327.378,63.267,327.253z M75.746,295.371c-0.936-0.562-1.934-0.812-2.995-0.812
					c-2.059,0-4.118,1.06-5.241,2.995c-1.685,2.87-0.686,6.552,2.184,8.236c0.936,0.562,1.997,0.812,3.057,0.812
					c2.059,0,4.056-1.062,5.179-2.934c0.562-0.935,0.811-1.995,0.811-2.995C78.74,298.553,77.68,296.556,75.746,295.371z
					 M101.701,273.158c-1.123-1.872-3.12-2.87-5.116-2.87c-1.061,0-2.184,0.248-3.182,0.873c-2.808,1.747-3.681,5.429-1.935,8.299
					c1.123,1.81,3.12,2.87,5.116,2.87c1.061,0,2.184-0.312,3.182-0.935c1.81-1.124,2.808-3.12,2.808-5.117
					C102.575,275.216,102.325,274.156,101.701,273.158z"/>
			</g>
		</g>
		<g>
			<g>
				<path style="fill:#877F67;" d="M449.17,137.765c-0.374-3.057-2.932-5.367-5.927-5.367c-0.25,0-0.436,0.062-0.686,0.062
					c-3.307,0.375-5.678,3.307-5.303,6.614c0.312,3.12,2.932,5.365,5.99,5.365h0.624c3.057-0.436,5.366-2.995,5.366-5.99
					C449.232,138.201,449.17,138.015,449.17,137.765z M480.117,123.164c-1.186-1.685-3.057-2.62-4.929-2.62
					c-1.185,0-2.371,0.373-3.432,1.06c-2.745,1.872-3.432,5.616-1.56,8.361c1.123,1.685,3.057,2.62,4.929,2.62
					c1.185,0,2.371-0.312,3.431-1.06c1.685-1.185,2.62-3.057,2.62-4.929C481.178,125.411,480.803,124.226,480.117,123.164z
					 M500.644,95.835c-0.874-0.498-1.872-0.686-2.808-0.686c-2.121,0-4.243,1.123-5.366,3.182c-1.497,2.932-0.374,6.614,2.558,8.174
					c0.873,0.437,1.872,0.686,2.807,0.686c2.122,0,4.243-1.185,5.304-3.243c0.499-0.874,0.686-1.874,0.686-2.809
					C503.826,99.019,502.703,96.897,500.644,95.835z M506.01,62.081c-3.369,0-6.052,2.683-6.052,5.991
					c0,3.368,2.683,6.05,6.052,6.05c3.307,0,5.99-2.682,5.99-6.05C512,64.764,509.317,62.081,506.01,62.081z"/>
			</g>
			<g>
				<path style="fill:#877F67;" d="M420.531,93.278c-1.123-1.872-3.12-2.87-5.116-2.87c-1.061,0-2.184,0.25-3.182,0.873
					c-2.808,1.749-3.681,5.491-1.934,8.299c1.123,1.81,3.057,2.87,5.116,2.87c1.061,0,2.184-0.311,3.12-0.873
					c1.872-1.123,2.87-3.12,2.87-5.179C421.405,95.337,421.155,94.275,420.531,93.278z M442.307,66.885
					c-0.936-0.562-1.997-0.81-2.995-0.81c-2.059,0-4.118,1.06-5.241,2.995c-1.685,2.87-0.749,6.552,2.121,8.236
					c0.999,0.561,2.059,0.81,3.058,0.81c2.059,0,4.055-1.06,5.178-2.932c0.562-0.937,0.811-1.997,0.811-3.057
					C445.239,70.068,444.241,68.072,442.307,66.885z M449.295,33.442h-0.312c-3.245,0-5.865,2.559-5.99,5.741
					c-0.187,3.307,2.371,6.114,5.678,6.302h0.312c3.182,0,5.865-2.495,6.052-5.74v-0.25
					C455.035,36.251,452.539,33.631,449.295,33.442z M447.797,3.494c-0.062,0-0.062,0-0.062,0C446.736,1.248,444.553,0,442.307,0
					c-0.874,0-1.747,0.187-2.558,0.562c-2.995,1.435-4.305,5.053-2.87,8.047c0.998,2.184,3.182,3.432,5.428,3.432
					c0.874,0,1.747-0.123,2.558-0.561c2.246-0.999,3.494-3.182,3.494-5.429C448.359,5.179,448.172,4.305,447.797,3.494z"/>
			</g>
			<g>
				<path style="fill:#877F67;" d="M506.01,298.614c-3.307,0-6.052,2.684-6.052,5.991c0,3.368,2.745,6.052,6.052,6.052
					c3.307,0,5.99-2.684,5.99-6.052C512,301.298,509.317,298.614,506.01,298.614z M503.14,268.729
					c-1.061-2.06-3.182-3.182-5.304-3.182c-0.936,0-1.934,0.187-2.807,0.685c-2.933,1.56-4.056,5.179-2.558,8.112
					c1.123,2.059,3.245,3.245,5.366,3.245c0.936,0,1.934-0.25,2.808-0.687c2.059-1.06,3.182-3.181,3.182-5.365
					C503.826,270.601,503.639,269.602,503.14,268.729z M478.557,241.15c-1.061-0.686-2.246-1.06-3.431-1.06
					c-1.872,0-3.744,0.935-4.929,2.62c-1.872,2.809-1.185,6.489,1.56,8.424c0.999,0.686,2.184,1.06,3.37,1.06
					c1.934,0,3.806-0.935,4.991-2.682c0.686-0.998,1.061-2.183,1.061-3.369C481.178,244.208,480.242,242.336,478.557,241.15z
					 M443.866,228.298c-0.25,0-0.437-0.063-0.686-0.063c-2.995,0-5.553,2.308-5.927,5.365c-0.374,3.307,1.997,6.302,5.303,6.676
					h0.686c2.995,0,5.615-2.247,5.927-5.303c0.063-0.25,0.063-0.5,0.063-0.749C449.232,231.23,446.924,228.671,443.866,228.298z"/>
			</g>
			<g>
				<path style="fill:#877F67;" d="M448.359,366.624c0-2.247-1.31-4.367-3.494-5.427c-0.811-0.375-1.684-0.562-2.558-0.562
					c-2.246,0-4.43,1.248-5.428,3.493c-1.435,2.996-0.125,6.553,2.87,7.988c0.811,0.373,1.685,0.561,2.558,0.561
					c2.246,0,4.43-1.248,5.491-3.432h-0.062C448.109,368.371,448.359,367.496,448.359,366.624z M449.045,327.253h-0.375
					c-3.307,0.125-5.865,2.932-5.678,6.302c0.125,3.182,2.808,5.74,5.99,5.74h0.312c3.182-0.186,5.678-2.807,5.678-5.99v-0.311
					C454.848,329.75,452.227,327.253,449.045,327.253z M444.428,297.554c-1.123-1.934-3.12-2.995-5.178-2.995
					c-1.061,0-2.122,0.312-3.058,0.874c-2.87,1.685-3.806,5.365-2.121,8.235c1.123,1.872,3.12,2.934,5.179,2.934
					c1.061,0,2.121-0.25,3.057-0.812c1.934-1.123,2.932-3.12,2.932-5.179C445.239,299.551,444.99,298.49,444.428,297.554z
					 M418.535,271.161c-0.999-0.625-2.059-0.873-3.12-0.873c-1.997,0-3.993,0.998-5.116,2.807c-1.747,2.87-0.874,6.552,1.934,8.299
					c0.998,0.623,2.121,0.935,3.182,0.935c1.997,0,3.993-1.06,5.116-2.87c0.624-0.999,0.873-2.122,0.873-3.182
					C421.405,274.281,420.407,272.285,418.535,271.161z"/>
			</g>
		</g>
	</g>
	<path style="opacity:0.3;fill:#FFFFFF;" d="M412.982,153.674v4.494c0-9.609-2.87-18.657-7.862-26.142
		c-2.558-3.869-5.678-7.301-9.172-10.233c-1.373-1.185-2.808-2.245-4.305-3.245c-1.622-1.123-3.307-2.06-5.054-2.932
		c-6.427-3.307-13.727-5.117-21.401-5.117H142.444c-7.862,0-15.286,1.935-21.838,5.304c-3.307,1.685-6.302,3.744-9.11,6.177
		c-10.295,8.672-16.846,21.713-16.846,36.188v-4.494c0-26.267,21.526-47.73,47.794-47.73h222.744c5.99,0,11.73,1.124,17.033,3.182
		c12.666,4.867,22.773,14.911,27.578,27.579C411.859,141.945,412.982,147.685,412.982,153.674z"/>
	<path style="opacity:0.41;fill:#040000;" d="M412.982,216.192v4.555c0,26.207-21.526,47.732-47.793,47.732H142.444
		c-6.988,0-13.602-1.497-19.592-4.242c-10.607-4.804-19.155-13.353-23.959-23.96c-2.745-5.99-4.243-12.604-4.243-19.53v-4.555
		c0,14.476,6.552,27.454,16.784,36.189c2.371,2.059,4.991,3.869,7.737,5.429c6.926,3.868,14.85,6.114,23.273,6.114h222.744
		c8.548,0,16.659-2.309,23.647-6.302c2.683-1.56,5.179-3.307,7.487-5.304v-0.062C406.493,243.584,412.982,230.606,412.982,216.192z"
		/>
</g>
</svg>