<?xml version="1.0" encoding="iso-8859-1"?>
<!-- Uploaded to: SVG Repo, www.svgrepo.com, Generator: SVG Repo Mixer Tools -->
<svg height="800px" width="800px" version="1.1" id="Layer_1" xmlns="http://www.w3.org/2000/svg" xmlns:xlink="http://www.w3.org/1999/xlink" 
	 viewBox="0 0 512 512" xml:space="preserve">
<g>
	<path style="fill:#507C5C;" d="M335.991,512c-0.01-0.001-0.02-0.001-0.029,0H176.039c-4.821,0-9.317-2.436-11.948-6.476
		c-2.633-4.038-3.047-9.134-1.1-13.546l42.794-96.991c2.281-5.169,7.4-8.505,13.05-8.505h74.334c5.651,0,10.769,3.336,13.05,8.505
		l42.431,96.171c1.026,1.968,1.605,4.205,1.605,6.578C350.254,505.613,343.868,512,335.991,512z M197.922,483.473h116.155
		l-30.207-68.464h-55.741L197.922,483.473z"/>
	<path style="fill:#507C5C;" d="M23.27,362.28c-7.878,0-14.263-6.387-14.263-14.263V92.712c0-7.876,6.386-14.263,14.263-14.263
		h465.46c7.876,0,14.263,6.387,14.263,14.263v166.158c0,7.876-6.387,14.263-14.263,14.263s-14.263-6.387-14.263-14.263V106.975
		H37.533v241.041C37.533,355.894,31.148,362.28,23.27,362.28z"/>
</g>
<path style="fill:#CFF09E;" d="M71.688,426.467h368.623c26.741,0,48.418-21.678,48.418-48.419v-30.03H23.27v30.03
	C23.27,404.789,44.949,426.467,71.688,426.467z"/>
<g>
	<path style="fill:#507C5C;" d="M440.312,440.729H71.688c-34.563,0-62.682-28.119-62.682-62.68v-30.032
		c0-7.876,6.386-14.263,14.263-14.263h465.46c7.876,0,14.263,6.387,14.263,14.263v30.032
		C502.993,412.61,474.876,440.729,440.312,440.729z M37.533,362.28v15.768c0,18.832,15.322,34.154,34.155,34.154h368.623
		c18.833,0,34.155-15.322,34.155-34.154V362.28L37.533,362.28L37.533,362.28z"/>
	<path style="fill:#507C5C;" d="M488.73,106.975H23.27c-7.878,0-14.263-6.387-14.263-14.263V62.68C9.007,28.119,37.125,0,71.688,0
		h368.623c34.563,0,62.682,28.119,62.682,62.68v30.032C502.993,100.588,496.608,106.975,488.73,106.975z M37.533,78.449h436.933
		V62.68c0-18.832-15.322-34.154-34.155-34.154H71.688c-18.833,0-34.155,15.322-34.155,34.154V78.449z"/>
	<path style="fill:#507C5C;" d="M264.333,278.066l25.579-33.954l-23.088-30.785c-0.906-1.133-2.264-3.395-2.264-5.66
		c0-7.923,14.714-17.657,23.768-17.657c1.358,0,5.431,0.227,7.47,3.621l18.109,29.654l18.336-29.427
		c1.81-2.943,5.431-3.848,7.922-3.848c8.149,0,23.316,9.733,23.316,17.657c0,1.811-0.679,3.395-2.264,5.66l-23.316,31.01
		l25.805,33.729c0.906,1.133,2.037,3.621,2.037,5.885c0,7.47-13.808,17.43-23.088,17.43c-2.717,0-6.112-0.904-7.923-3.621
		l-20.825-31.238l-20.599,31.238c-1.81,2.49-5.885,3.621-8.374,3.621c-7.243,0-22.636-9.28-22.636-17.43
		C262.296,281.914,263.202,279.649,264.333,278.066z"/>
	<path style="fill:#507C5C;" d="M207.041,305.152c-8.681,0-16.133-5.507-18.669-13.878l-22.689-74.883h-34.53
		c-7.878,0-14.263-6.387-14.263-14.263c0-7.876,6.386-14.263,14.263-14.263h41.194c8.674,0,16.19,5.577,18.705,13.877l14.898,49.169
		l23.67-101.448c2.075-8.892,9.902-15.103,19.033-15.103h132.196c7.876,0,14.263,6.387,14.263,14.263s-6.387,14.263-14.263,14.263
		H255.78L226.11,290.047c-2.038,8.736-9.432,14.803-18.398,15.094C207.487,305.148,207.263,305.152,207.041,305.152z"/>
</g>
</svg>