<?xml version="1.0" encoding="iso-8859-1"?>
<!-- Uploaded to: SVG Repo, www.svgrepo.com, Generator: SVG Repo Mixer Tools -->
<svg height="800px" width="800px" version="1.1" id="Layer_1" xmlns="http://www.w3.org/2000/svg" xmlns:xlink="http://www.w3.org/1999/xlink" 
	 viewBox="0 0 512.002 512.002" xml:space="preserve">
<path style="fill:#ECEDEF;" d="M507.952,346.154L357.464,4.744c-1.77-4.016-6.46-5.837-10.481-4.068L5.574,151.164
	c-1.929,0.851-3.442,2.433-4.205,4.398s-0.713,4.154,0.137,6.083l150.487,341.41c1.311,2.974,4.224,4.745,7.279,4.745
	c1.071,0,2.159-0.217,3.202-0.677l341.41-150.487c1.929-0.851,3.442-2.433,4.205-4.398
	C508.852,350.272,508.802,348.083,507.952,346.154z"/>
<polygon style="fill:#D9DCDF;" points="91.494,113.291 40.585,250.304 121.626,434.159 233.609,475.768 427.519,390.295 
	473.207,267.329 398.629,98.134 250.635,43.146 "/>
<path style="fill:#DCEF97;" d="M497.511,146.854L147.768,16.905c-4.118-1.531-8.692,0.567-10.221,4.683L7.597,371.331
	c-1.53,4.116,0.567,8.692,4.683,10.221l349.743,129.95c0.913,0.339,1.849,0.5,2.768,0.5c3.228,0,6.263-1.98,7.453-5.183
	l129.95-349.743C503.722,152.959,501.626,148.383,497.511,146.854z"/>
<g>
	<path style="fill:#C4DF64;" d="M274.263,188.89c-0.92,0-1.855-0.16-2.768-0.5L170.379,150.82
		c-4.116-1.528-6.212-6.105-4.683-10.221c1.53-4.115,6.104-6.213,10.221-4.683l101.117,37.569c4.116,1.528,6.212,6.105,4.683,10.221
		C280.526,186.91,277.491,188.89,274.263,188.89z"/>
	<path style="fill:#C4DF64;" d="M205.16,235.583c-0.92,0-1.855-0.16-2.768-0.5l-55.641-20.673
		c-4.116-1.528-6.212-6.105-4.683-10.221c1.53-4.116,6.104-6.212,10.221-4.683l55.641,20.673c4.116,1.528,6.212,6.105,4.683,10.221
		C211.424,233.603,208.388,235.583,205.16,235.583z"/>
	<path style="fill:#C4DF64;" d="M180.993,298.972c-0.92,0-1.855-0.16-2.768-0.5L123.125,278c-4.116-1.528-6.212-6.105-4.683-10.221
		c1.528-4.115,6.103-6.213,10.221-4.683l55.101,20.472c4.116,1.528,6.212,6.105,4.683,10.221
		C187.256,296.992,184.221,298.972,180.993,298.972z"/>
	<path style="fill:#C4DF64;" d="M226.211,388.142c-0.92,0-1.855-0.16-2.768-0.5L99.498,341.589
		c-4.116-1.528-6.212-6.105-4.683-10.221c1.528-4.116,6.103-6.213,10.221-4.683l123.946,46.053
		c4.116,1.528,6.212,6.105,4.683,10.221C232.474,386.162,229.439,388.142,226.211,388.142z"/>
	<path style="fill:#C4DF64;" d="M324.828,424.784c-0.92,0-1.855-0.16-2.768-0.5l-103.333-38.395
		c-4.116-1.528-6.212-6.105-4.683-10.221c1.53-4.116,6.104-6.213,10.221-4.683l103.333,38.395c4.116,1.528,6.212,6.105,4.683,10.221
		C331.092,422.804,328.056,424.784,324.828,424.784z"/>
	<path style="fill:#C4DF64;" d="M292.816,340.52c-0.92,0-1.855-0.16-2.768-0.5l-23.847-8.86c-4.116-1.528-6.212-6.105-4.683-10.221
		c1.528-4.116,6.103-6.215,10.221-4.683l23.847,8.86c4.116,1.528,6.212,6.105,4.683,10.221
		C299.079,338.54,296.043,340.52,292.816,340.52z"/>
	<path style="fill:#C4DF64;" d="M348.456,361.194c-0.92,0-1.855-0.16-2.768-0.5l-31.796-11.814
		c-4.116-1.528-6.212-6.105-4.683-10.221c1.528-4.116,6.102-6.213,10.221-4.683l31.796,11.814c4.116,1.528,6.212,6.105,4.683,10.221
		C354.719,359.214,351.683,361.194,348.456,361.194z"/>
	<path style="fill:#C4DF64;" d="M372.083,297.605c-0.92,0-1.855-0.16-2.768-0.5L263.02,257.61
		c-4.116-1.528-6.212-6.105-4.683-10.221c1.528-4.116,6.103-6.215,10.221-4.683l106.296,39.495
		c4.116,1.528,6.212,6.105,4.683,10.221C378.347,295.625,375.311,297.605,372.083,297.605z"/>
</g>
<path style="fill:#ECEDEF;" d="M335.986,200.435l-23.984-23.985c-1.49-1.49-3.513-2.328-5.621-2.328
	c-2.108,0-4.131,0.837-5.621,2.328l-89.94,89.94c-0.523,0.523-0.97,1.115-1.328,1.761l-29.98,53.964
	c-1.621,2.917-1.213,6.634,1,9.132c2.443,2.757,6.587,3.47,9.81,1.679l53.964-29.98c0.646-0.359,1.238-0.807,1.761-1.328
	l89.94-89.94C339.092,208.573,339.092,203.54,335.986,200.435z"/>
<path style="fill:#D9DCDF;" d="M335.986,200.435l-3.065-3.066l0,0l-20.918-20.918c-1.49-1.49-3.513-2.328-5.621-2.328
	c-2.108,0-4.131,0.837-5.621,2.328l-12.751,12.751l26.54,26.54L206.167,324.123l38.119-21.177c0.646-0.359,1.238-0.807,1.761-1.328
	l89.94-89.94C339.092,208.573,339.092,203.54,335.986,200.435z"/>
<path style="fill:#509FE8;" d="M485.888,86.51l-59.961-59.96c-2.657-2.657-6.813-3.091-9.964-1.038l-137.908,89.94
	c-2.007,1.308-3.316,3.453-3.564,5.836c-0.248,2.383,0.591,4.75,2.285,6.445l107.928,107.928c1.499,1.498,3.523,2.328,5.621,2.328
	c0.273,0,0.549-0.015,0.824-0.042c2.383-0.248,4.527-1.558,5.835-3.565l89.94-137.908C488.978,93.325,488.546,89.168,485.888,86.51z
	"/>
<g>
	<path style="fill:#4D8CCF;" d="M485.888,86.51l-59.961-59.96c-2.657-2.657-6.813-3.091-9.964-1.038l-24.472,15.96l79.473,79.474
		l15.961-24.472C488.978,93.325,488.546,89.168,485.888,86.51z"/>
	<path style="fill:#4D8CCF;" d="M304.24,98.376l-26.185,17.077c-2.007,1.308-3.316,3.453-3.564,5.836
		c-0.248,2.383,0.591,4.75,2.285,6.445l107.928,107.928c1.499,1.498,3.523,2.328,5.621,2.328c0.273,0,0.549-0.015,0.824-0.042
		c2.383-0.248,4.527-1.558,5.835-3.565l17.077-26.185L304.24,98.376z"/>
</g>
<g>
	<path style="fill:#509FE8;" d="M503.875,68.522l-59.96-59.959c-4.705-4.705-10.96-7.297-17.613-7.297s-12.909,2.591-17.613,7.296
		s-7.296,10.96-7.296,17.613s2.592,12.909,7.296,17.613l59.961,59.96c4.704,4.704,10.96,7.296,17.613,7.296
		s12.909-2.591,17.613-7.296c4.704-4.704,7.296-10.96,7.296-17.613C511.172,79.482,508.579,73.226,503.875,68.522z"/>
	<path style="fill:#509FE8;" d="M407.939,224.418l-119.92-119.919c-4.705-4.705-10.96-7.297-17.613-7.297
		c-6.653,0-12.909,2.591-17.613,7.296L240.8,116.489c-3.061,3.062-3.061,8.182,0,11.243l143.905,143.905
		c3.063,3.062,8.18,3.062,11.242,0l11.992-11.992C417.651,249.932,417.651,234.129,407.939,224.418z"/>
</g>
</svg>