<?xml version="1.0" encoding="iso-8859-1"?>
<!-- Uploaded to: SVG Repo, www.svgrepo.com, Generator: SVG Repo Mixer Tools -->
<svg height="800px" width="800px" version="1.1" id="Layer_1" xmlns="http://www.w3.org/2000/svg" xmlns:xlink="http://www.w3.org/1999/xlink" 
	 viewBox="0 0 508 508" xml:space="preserve">
<polygon style="fill:#40596B;" points="254,237.1 254,105.1 51.6,166.2 51.6,237.1 "/>
<polygon style="fill:#334A5E;" points="456.4,237.1 456.4,166.3 254,105.1 254,237.1 "/>
<g>
	<polygon style="fill:#FFD15C;" points="456.4,446.9 254,508 254,227.4 456.4,166.3 	"/>
	<polygon style="fill:#FFD15C;" points="456.4,446.9 254,508 254,227.4 456.4,166.3 	"/>
</g>
<polygon style="fill:#F8B64C;" points="51.6,446.9 254,508 254,227.4 51.6,166.3 "/>
<g>
	<polygon style="fill:#F2F2F2;" points="0,255.7 202.4,316.9 254,227.4 51.6,166.3 	"/>
	<polygon style="fill:#F2F2F2;" points="254,227.4 456.4,166.3 508,255.7 305.6,316.9 	"/>
	<polygon style="fill:#F2F2F2;" points="508,76.8 305.6,15.6 254,105.1 456.4,166.3 	"/>
	<polygon style="fill:#F2F2F2;" points="254,105.1 51.6,166.3 0,76.8 202.4,15.6 	"/>
</g>
<g>
	<path style="fill:#84DBFF;" d="M309.5,123.8c0.5,5.5,6.9,9.7,12.1,8c0.7-0.2,1.3-0.5,1.8-1c1.3-1.3,1.3-3.4,1.1-5.2
		c0-0.7-0.1-1.5-0.7-2c-0.5-0.5-1.3-0.5-2-0.5c-3.9,0-7.8,0-11.6,0L309.5,123.8z"/>
	<path style="fill:#84DBFF;" d="M290.6,113.4c-2.3,1.8-5.4,2.1-8.3,2.3c-2.4,0.2-4.9,0.4-7.3,0.6c-1.1,0.1-2.3,0.1-3.5,0.3
		c-3.6,0.2-7.2,0.5-10.8,0.2c-3.4-0.4-6.8-1.2-10.1-2.4c-6.8-2.5-13-6.6-18-11.7l-0.5,4.2c-2.3,1.6-5.1,2.5-7.4,4.1
		c-2.3,1.6-4.2,4.4-3.4,7.2c0.6,2.1,2.7,3.6,4.9,4.1s4.4,0.3,6.7,0.4c6.3,0,12.6,1.6,18.2,4.6c3.8,2.1,7.5,4.8,11.8,5.5
		c5.1,0.8,10.2-1.4,14.9-3.5c3.4-1.5,6.8-3.2,9.4-5.7C289.8,120.8,291.5,117,290.6,113.4z"/>
	<path style="fill:#84DBFF;" d="M303.7,147.2c-1.8-0.7-3.6-1.4-5.4-2.2c-2.1-0.8-4.3-1.7-5.9-3.3s-2.6-4.1-1.7-6.2l-0.8-0.8
		c-2.6-0.6-5.3-0.7-8-0.4c-0.8,3.4,1,6.7,2.7,9.6c1.7,2.9,3.4,5.8,5.1,8.8c1.3,2.2,2.6,4.5,4.7,6.1c4.4,3.5,10.7,2.9,16.3,2.2
		c0.6,0,1.2-0.1,1.7-0.5c0.7-0.4,1.1-1.2,1.3-2.1c0.6-2.7-0.8-5.5-2.8-7.4C308.9,149.3,306.3,148.2,303.7,147.2z"/>
	<path style="fill:#84DBFF;" d="M363,106.6c-2,2.4-2.1,5.8-2.2,8.9c-0.1,8.7-0.2,17.5-0.4,26.2c-4.1-2.7-6.4-7.4-9.2-11.4
		c-2.9-4-7.7-7.7-12.4-6.2c-4.9,1.4-6.8,7.2-7.3,12.2s-0.6,10.6-4,14.3c-3.8,4.1-11.5,6-11.1,11.5c0.1,1.8,1.2,3.4,2.1,5
		c5.3,10.2-0.5,24.5-11.3,28.2c-2.4,0.8-5.4,1.5-6.2,4c-1.1,3.5,3.8,6.2,4.5,9.8c0.2,0.9,0.1,1.8-0.2,2.7l65.9-19.9
		c9.3-18,14.5-38.5,14.5-60.2c0-7.7-0.7-15.2-1.9-22.6c-0.2-1.3-0.5-2.7-0.8-4c-1.7,0.2-3.5-0.1-5.2-0.5
		C372.7,103.6,366.4,102.6,363,106.6z"/>
	<path style="fill:#84DBFF;" d="M238.9,217.1c-1.7-7.2-3.5-14.6-7-21c-3.6-6.5-9.3-12.1-16.4-14.1c-8.4-2.3-18.3,0.4-25.2-4.8
		c-2.5-1.8-4.2-4.6-5.7-7.3c-4.2-8-6.6-17-6.7-26.1c0-2.6,0.1-5.5,1.8-7.6c1.8-2.2,4.7-3,7.4-3.7c7.4-1.8,14.8-3.7,22.2-5.6
		c-1.9-10.4-0.3-21.4,4.3-31c0.2,3.7,2.5,8.3,6.1,7.5c2.4-0.5,3.6-3.3,3.6-5.8c-0.1-5-3.8-9.2-6.5-13.5s-4.4-10.3-1-14.1
		c3.4-3.8,9.4-2.8,14.3-1.3c1,0.3,2,0.6,2.5,1.5c0.5,0.7,0.5,1.6,0.5,2.4c0.1,5.1,0.2,10.2,0.4,15.3c4.4,1.8,9.9-2.6,9.3-7.3
		c-0.4-3-2.7-6.1-1.1-8.6c1.1-1.6,3.3-2,4.5-3.4c1.4-1.5,1.4-3.9,1.9-5.8c2.2-8.1,12.8-10,21.2-9.7c2.2,0.1,4.5,0.1,6.5-0.8
		c1.5-0.7,2.7-2,3.8-3.2c4.3-4.9,8.6-9.8,13-14.6c0.6-0.6,1.2-1.3,1.3-2.2c0.2-1.6-1.2-2.9-2.6-3.6c-3.6-1.9-7.9-2.2-11.3-4.5
		c-3.3-2.3-4.5-8.3-0.8-10c2.2-1,5.7-0.5,6.2-2.9c0.2-0.9-0.4-1.9-1-2.7c-2.2-2.8-5.3-4.8-8.6-6.6c-3.9-0.7-7.9-1.1-11.9-1.5
		C260.6,0.1,257.3,0,254,0c-8.3,0-16.4,0.7-24.2,2.2c1.6,6.7,5.9,12.8,11.8,16.5c2.4,1.5,5.5,3.3,5.3,6.2c-0.2,4.2-6.2,4.5-10.1,6
		c-2.8,1.1-5,3.4-7.2,5.5c-5,4.7-10.6,8.8-16.7,12.1c-6.3,3.4-15,5.5-19.7,0.1c14.9-6.1,26.3-19.6,31.5-34.9
		c-7.2,3.9-12.6,10.3-18.9,15.6c-7.1,6-15.2,10.6-22.1,16.8c-6.8,6.3-12.4,14.8-12,24c-0.1-5.3-3.3-10.2-7.7-13.2
		c-4.4-2.9-9.9-4-15.2-3.9c-0.1,0-0.3,0-0.5,0c-1.5,1.9-2.8,3.9-4.2,5.9c-13.9,20.9-22,45.9-22,72.9c0,21.7,5.3,42.1,14.5,60.2
		l104.2,31.5C239.9,221.5,239.4,219.2,238.9,217.1z"/>
	<path style="fill:#84DBFF;" d="M305.1,109c2.8,0.7,5.7,0.5,8.5,0.3c1.3-3.3,0.6-7.2-1.7-9.8c-1-1.1-2.1-1.9-3-3
		c-2.1-2.4-3-5.9-2.3-9c-1.5-0.1-2.9-0.1-4.4-0.1l-0.5,0.2c-3.7,2.1-4.1,7.2-4,11.4c0.1,1.8,0.1,3.5,0.8,5.1
		C299.7,106.5,302.4,108.2,305.1,109z"/>
</g>
<g>
	<path style="fill:#54C0EB;" d="M164,56.9c4.4,2.9,7.7,7.9,7.7,13.2c-0.4-9.2,5.2-17.7,12-24c6.8-6.2,15-10.8,22.1-16.8
		c6.3-5.3,11.7-11.7,18.9-15.6c-5.2,15.3-16.5,28.7-31.5,34.9c4.7,5.4,13.4,3.3,19.7-0.1c6.1-3.3,11.7-7.4,16.7-12.1
		c2.2-2.1,4.4-4.4,7.2-5.5c3.9-1.5,9.9-1.8,10.1-6c0.2-2.9-2.9-4.7-5.3-6.2c-5.9-3.7-10.2-9.8-11.8-16.5c-0.4,0.1-0.8,0.1-1.2,0.2
		c-32.7,6.4-61.1,24.8-80.3,50.6c0.1,0,0.3,0,0.5,0C154.1,52.9,159.6,54,164,56.9z"/>
	<path style="fill:#54C0EB;" d="M284.4,8.4c0.6,0.8,1.2,1.7,1,2.7c-0.5,2.4-4,1.9-6.2,2.9c-3.7,1.7-2.5,7.6,0.8,10s7.7,2.7,11.3,4.5
		c1.4,0.7,2.8,2,2.6,3.6c-0.1,0.9-0.7,1.5-1.3,2.2c-4.3,4.9-8.6,9.7-13,14.6c-1.1,1.2-2.3,2.5-3.8,3.2c-1.9,1-4.3,0.9-6.5,0.8
		c-8.4-0.2-18.9,1.6-21.2,9.7c-0.5,2-0.5,4.3-1.9,5.8c-1.3,1.4-3.5,1.8-4.5,3.4c-1.6,2.5,0.6,5.7,1.1,8.6c0.6,4.7-4.9,9.1-9.3,7.3
		c-0.2-5.1-0.3-10.2-0.4-15.3c0-0.9-0.1-1.7-0.5-2.4c-0.5-0.8-1.6-1.2-2.5-1.5c-4.9-1.5-10.9-2.5-14.3,1.3c-3.4,3.8-1.7,9.8,1,14.1
		c2.7,4.2,6.3,8.5,6.5,13.5c0.1,2.5-1.2,5.3-3.6,5.8c-3.6,0.7-5.9-3.8-6.1-7.5c-4.6,9.5-6.2,20.5-4.3,31c-7.4,1.9-14.8,3.8-22.2,5.6
		c-2.7,0.7-5.6,1.5-7.4,3.7c-1.7,2.1-1.8,5-1.8,7.6c0.1,9.1,2.4,18.1,6.7,26.1c1.5,2.7,3.2,5.5,5.7,7.3c6.9,5.2,16.8,2.5,25.2,4.8
		c7.1,2,12.8,7.7,16.4,14.1c3.6,6.5,5.4,13.8,7,21c0.5,2.2,1.1,4.4,2,6.4l13.1,4l51.4-15.5c0.3-0.8,0.4-1.7,0.2-2.7
		c-0.8-3.6-5.6-6.2-4.5-9.8c0.8-2.4,3.8-3.2,6.2-4c10.9-3.7,16.7-18,11.3-28.2c-0.8-1.6-1.9-3.2-2.1-5c-0.4-5.6,7.3-7.4,11.1-11.5
		c3.4-3.7,3.5-9.3,4-14.3s2.5-10.8,7.3-12.2c4.7-1.4,9.5,2.2,12.4,6.2c2.8,4,5.1,8.8,9.2,11.4c0.1-8.7,0.2-17.5,0.4-26.2
		c0-3.2,0.2-6.5,2.2-8.9c3.4-4,9.7-3,14.9-1.9c1.7,0.4,3.5,0.7,5.2,0.5c-10.9-53-53.6-94.4-107.4-103.4
		C279.1,3.6,282.2,5.6,284.4,8.4z M262.9,132.6c-4.3-0.7-8-3.5-11.8-5.5c-5.6-3-11.9-4.6-18.2-4.6c-2.2-0.1-4.5,0.1-6.7-0.4
		c-2.2-0.6-4.3-2-4.9-4.1c-0.7-2.7,1.1-5.5,3.4-7.2c2.3-1.6,5-2.5,7.4-4.1l0.5-4.2c5.1,5.1,11.3,9.1,18,11.7
		c3.2,1.2,6.6,2.1,10.1,2.4c3.6,0.4,7.2,0.1,10.8-0.2c1.2-0.1,2.4-0.2,3.5-0.3c2.4-0.2,4.9-0.4,7.3-0.6c2.9-0.2,6-0.5,8.3-2.3
		c0.9,3.6-0.7,7.4-3.4,10c-2.6,2.6-6,4.2-9.4,5.7C273.1,131.3,268,133.5,262.9,132.6z M313.7,158.5c-0.2,0.8-0.6,1.6-1.3,2.1
		c-0.5,0.3-1.1,0.4-1.7,0.5c-5.6,0.7-11.9,1.3-16.3-2.2c-2.1-1.6-3.4-3.9-4.7-6.1c-1.7-2.9-3.4-5.9-5.1-8.8c-1.7-3-3.5-6.3-2.7-9.6
		c2.6-0.3,5.4-0.1,8,0.4l0.8,0.8c-0.9,2.1,0.1,4.6,1.7,6.2c1.6,1.6,3.8,2.5,5.9,3.3c1.8,0.7,3.6,1.4,5.4,2.2c2.6,1,5.2,2.1,7.2,3.9
		C313,152.9,314.4,155.8,313.7,158.5z M323.9,123.5c0.5,0.5,0.6,1.3,0.7,2c0.1,1.8,0.2,3.9-1.1,5.2c-0.5,0.5-1.1,0.8-1.8,1
		c-5.2,1.7-11.6-2.4-12.1-8l0.8-0.7c3.9,0,7.7,0,11.6,0C322.6,123,323.3,123,323.9,123.5z M301.7,87.4l0.5-0.2
		c1.5,0,2.9,0.1,4.4,0.1c-0.7,3.1,0.1,6.6,2.3,9c1,1.1,2.1,1.9,3,3c2.3,2.6,3,6.6,1.7,9.8c-2.8,0.2-5.7,0.4-8.5-0.3
		c-2.7-0.7-5.4-2.4-6.6-5c-0.7-1.6-0.7-3.4-0.8-5.1C297.7,94.6,298,89.5,301.7,87.4z"/>
</g>
</svg>