<?xml version="1.0" encoding="iso-8859-1"?>
<!-- Uploaded to: SVG Repo, www.svgrepo.com, Generator: SVG Repo Mixer Tools -->
<svg height="800px" width="800px" version="1.1" id="Layer_1" xmlns="http://www.w3.org/2000/svg" xmlns:xlink="http://www.w3.org/1999/xlink" 
	 viewBox="0 0 512 512" xml:space="preserve">
<g transform="translate(1 1)">
	<path style="fill:#FFE100;" d="M412.867,459.8H71.533c-11.947,0-21.333-9.387-21.333-21.333V71.533
		c0-11.947,9.387-21.333,21.333-21.333h341.333c11.947,0,21.333,9.387,21.333,21.333v366.933
		C434.2,450.413,424.813,459.8,412.867,459.8"/>
	<path style="fill:#FFA800;" d="M438.467,50.2h-25.6c11.947,0,21.333,9.387,21.333,21.333v366.933
		c0,11.947-9.387,21.333-21.333,21.333h25.6c11.947,0,21.333-9.387,21.333-21.333V71.533C459.8,59.587,450.413,50.2,438.467,50.2"/>
	<path style="fill:#FFE100;" d="M455.533,50.2h-25.6c11.947,0,21.333,9.387,21.333,21.333v366.933
		c0,11.947-9.387,21.333-21.333,21.333h25.6c11.947,0,21.333-9.387,21.333-21.333V71.533C476.867,59.587,467.48,50.2,455.533,50.2"
		/>
	<path style="fill:#FFFFFF;" d="M71.533,459.8h25.6c-11.947,0-21.333-9.387-21.333-21.333V71.533
		c0-11.947,9.387-21.333,21.333-21.333h-25.6C59.587,50.2,50.2,59.587,50.2,71.533v366.933C50.2,450.413,59.587,459.8,71.533,459.8"
		/>
	<g>
		<path style="fill:#FFE100;" d="M92.867,511c-5.12,0-8.533-3.413-8.533-8.533V459.8c0-5.12,3.413-8.533,8.533-8.533
			s8.533,3.413,8.533,8.533v42.667C101.4,507.587,97.987,511,92.867,511z"/>
		<path style="fill:#FFE100;" d="M135.533,511c-5.12,0-8.533-3.413-8.533-8.533V459.8c0-5.12,3.413-8.533,8.533-8.533
			s8.533,3.413,8.533,8.533v42.667C144.067,507.587,140.653,511,135.533,511z"/>
		<path style="fill:#FFE100;" d="M178.2,511c-5.12,0-8.533-3.413-8.533-8.533V459.8c0-5.12,3.413-8.533,8.533-8.533
			c5.12,0,8.533,3.413,8.533,8.533v42.667C186.733,507.587,183.32,511,178.2,511z"/>
		<path style="fill:#FFE100;" d="M220.867,511c-5.12,0-8.533-3.413-8.533-8.533V459.8c0-5.12,3.413-8.533,8.533-8.533
			c5.12,0,8.533,3.413,8.533,8.533v42.667C229.4,507.587,225.987,511,220.867,511z"/>
		<path style="fill:#FFE100;" d="M263.533,511c-5.12,0-8.533-3.413-8.533-8.533V459.8c0-5.12,3.413-8.533,8.533-8.533
			c5.12,0,8.533,3.413,8.533,8.533v42.667C272.067,507.587,268.653,511,263.533,511z"/>
		<path style="fill:#FFE100;" d="M306.2,511c-5.12,0-8.533-3.413-8.533-8.533V459.8c0-5.12,3.413-8.533,8.533-8.533
			s8.533,3.413,8.533,8.533v42.667C314.733,507.587,311.32,511,306.2,511z"/>
		<path style="fill:#FFE100;" d="M348.867,511c-5.12,0-8.533-3.413-8.533-8.533V459.8c0-5.12,3.413-8.533,8.533-8.533
			c5.12,0,8.533,3.413,8.533,8.533v42.667C357.4,507.587,353.987,511,348.867,511z"/>
		<path style="fill:#FFE100;" d="M391.533,511c-5.12,0-8.533-3.413-8.533-8.533V459.8c0-5.12,3.413-8.533,8.533-8.533
			s8.533,3.413,8.533,8.533v42.667C400.067,507.587,396.653,511,391.533,511z"/>
		<path style="fill:#FFE100;" d="M434.2,511c-5.12,0-8.533-3.413-8.533-8.533V459.8c0-5.12,3.413-8.533,8.533-8.533
			c5.12,0,8.533,3.413,8.533,8.533v42.667C442.733,507.587,439.32,511,434.2,511z"/>
		<path style="fill:#FFE100;" d="M50.2,101.4H7.533C2.413,101.4-1,97.987-1,92.867s3.413-8.533,8.533-8.533H50.2
			c5.12,0,8.533,3.413,8.533,8.533S55.32,101.4,50.2,101.4z"/>
		<path style="fill:#FFE100;" d="M50.2,144.067H7.533c-5.12,0-8.533-3.413-8.533-8.533S2.413,127,7.533,127H50.2
			c5.12,0,8.533,3.413,8.533,8.533S55.32,144.067,50.2,144.067z"/>
		<path style="fill:#FFE100;" d="M50.2,186.733H7.533C2.413,186.733-1,183.32-1,178.2c0-5.12,3.413-8.533,8.533-8.533H50.2
			c5.12,0,8.533,3.413,8.533,8.533C58.733,183.32,55.32,186.733,50.2,186.733z"/>
		<path style="fill:#FFE100;" d="M50.2,229.4H7.533c-5.12,0-8.533-3.413-8.533-8.533c0-5.12,3.413-8.533,8.533-8.533H50.2
			c5.12,0,8.533,3.413,8.533,8.533C58.733,225.987,55.32,229.4,50.2,229.4z"/>
		<path style="fill:#FFE100;" d="M50.2,272.067H7.533c-5.12,0-8.533-3.413-8.533-8.533c0-5.12,3.413-8.533,8.533-8.533H50.2
			c5.12,0,8.533,3.413,8.533,8.533C58.733,268.653,55.32,272.067,50.2,272.067z"/>
		<path style="fill:#FFE100;" d="M50.2,314.733H7.533C2.413,314.733-1,311.32-1,306.2s3.413-8.533,8.533-8.533H50.2
			c5.12,0,8.533,3.413,8.533,8.533S55.32,314.733,50.2,314.733z"/>
		<path style="fill:#FFE100;" d="M50.2,357.4H7.533c-5.12,0-8.533-3.413-8.533-8.533c0-5.12,3.413-8.533,8.533-8.533H50.2
			c5.12,0,8.533,3.413,8.533,8.533C58.733,353.987,55.32,357.4,50.2,357.4z"/>
		<path style="fill:#FFE100;" d="M50.2,400.067H7.533c-5.12,0-8.533-3.413-8.533-8.533S2.413,383,7.533,383H50.2
			c5.12,0,8.533,3.413,8.533,8.533S55.32,400.067,50.2,400.067z"/>
		<path style="fill:#FFE100;" d="M50.2,442.733H7.533C2.413,442.733-1,439.32-1,434.2c0-5.12,3.413-8.533,8.533-8.533H50.2
			c5.12,0,8.533,3.413,8.533,8.533C58.733,439.32,55.32,442.733,50.2,442.733z"/>
		<path style="fill:#FFE100;" d="M92.867,58.733c-5.12,0-8.533-3.413-8.533-8.533V7.533c0-5.12,3.413-8.533,8.533-8.533
			s8.533,3.413,8.533,8.533V50.2C101.4,55.32,97.987,58.733,92.867,58.733z"/>
		<path style="fill:#FFE100;" d="M135.533,58.733c-5.12,0-8.533-3.413-8.533-8.533V7.533C127,2.413,130.413-1,135.533-1
			s8.533,3.413,8.533,8.533V50.2C144.067,55.32,140.653,58.733,135.533,58.733z"/>
		<path style="fill:#FFE100;" d="M178.2,58.733c-5.12,0-8.533-3.413-8.533-8.533V7.533c0-5.12,3.413-8.533,8.533-8.533
			c5.12,0,8.533,3.413,8.533,8.533V50.2C186.733,55.32,183.32,58.733,178.2,58.733z"/>
		<path style="fill:#FFE100;" d="M220.867,58.733c-5.12,0-8.533-3.413-8.533-8.533V7.533c0-5.12,3.413-8.533,8.533-8.533
			c5.12,0,8.533,3.413,8.533,8.533V50.2C229.4,55.32,225.987,58.733,220.867,58.733z"/>
		<path style="fill:#FFE100;" d="M263.533,58.733c-5.12,0-8.533-3.413-8.533-8.533V7.533C255,2.413,258.413-1,263.533-1
			c5.12,0,8.533,3.413,8.533,8.533V50.2C272.067,55.32,268.653,58.733,263.533,58.733z"/>
		<path style="fill:#FFE100;" d="M306.2,58.733c-5.12,0-8.533-3.413-8.533-8.533V7.533c0-5.12,3.413-8.533,8.533-8.533
			s8.533,3.413,8.533,8.533V50.2C314.733,55.32,311.32,58.733,306.2,58.733z"/>
		<path style="fill:#FFE100;" d="M348.867,58.733c-5.12,0-8.533-3.413-8.533-8.533V7.533c0-5.12,3.413-8.533,8.533-8.533
			c5.12,0,8.533,3.413,8.533,8.533V50.2C357.4,55.32,353.987,58.733,348.867,58.733z"/>
		<path style="fill:#FFE100;" d="M391.533,58.733c-5.12,0-8.533-3.413-8.533-8.533V7.533C383,2.413,386.413-1,391.533-1
			s8.533,3.413,8.533,8.533V50.2C400.067,55.32,396.653,58.733,391.533,58.733z"/>
		<path style="fill:#FFE100;" d="M434.2,58.733c-5.12,0-8.533-3.413-8.533-8.533V7.533c0-5.12,3.413-8.533,8.533-8.533
			c5.12,0,8.533,3.413,8.533,8.533V50.2C442.733,55.32,439.32,58.733,434.2,58.733z"/>
		<path style="fill:#FFE100;" d="M502.467,101.4H459.8c-5.12,0-8.533-3.413-8.533-8.533s3.413-8.533,8.533-8.533h42.667
			c5.12,0,8.533,3.413,8.533,8.533S507.587,101.4,502.467,101.4z"/>
		<path style="fill:#FFE100;" d="M502.467,144.067H459.8c-5.12,0-8.533-3.413-8.533-8.533S454.68,127,459.8,127h42.667
			c5.12,0,8.533,3.413,8.533,8.533S507.587,144.067,502.467,144.067z"/>
		<path style="fill:#FFE100;" d="M502.467,186.733H459.8c-5.12,0-8.533-3.413-8.533-8.533c0-5.12,3.413-8.533,8.533-8.533h42.667
			c5.12,0,8.533,3.413,8.533,8.533C511,183.32,507.587,186.733,502.467,186.733z"/>
		<path style="fill:#FFE100;" d="M502.467,229.4H459.8c-5.12,0-8.533-3.413-8.533-8.533c0-5.12,3.413-8.533,8.533-8.533h42.667
			c5.12,0,8.533,3.413,8.533,8.533C511,225.987,507.587,229.4,502.467,229.4z"/>
		<path style="fill:#FFE100;" d="M502.467,272.067H459.8c-5.12,0-8.533-3.413-8.533-8.533c0-5.12,3.413-8.533,8.533-8.533h42.667
			c5.12,0,8.533,3.413,8.533,8.533C511,268.653,507.587,272.067,502.467,272.067z"/>
		<path style="fill:#FFE100;" d="M502.467,314.733H459.8c-5.12,0-8.533-3.413-8.533-8.533s3.413-8.533,8.533-8.533h42.667
			c5.12,0,8.533,3.413,8.533,8.533S507.587,314.733,502.467,314.733z"/>
		<path style="fill:#FFE100;" d="M502.467,357.4H459.8c-5.12,0-8.533-3.413-8.533-8.533c0-5.12,3.413-8.533,8.533-8.533h42.667
			c5.12,0,8.533,3.413,8.533,8.533C511,353.987,507.587,357.4,502.467,357.4z"/>
		<path style="fill:#FFE100;" d="M502.467,400.067H459.8c-5.12,0-8.533-3.413-8.533-8.533S454.68,383,459.8,383h42.667
			c5.12,0,8.533,3.413,8.533,8.533S507.587,400.067,502.467,400.067z"/>
		<path style="fill:#FFE100;" d="M502.467,442.733H459.8c-5.12,0-8.533-3.413-8.533-8.533c0-5.12,3.413-8.533,8.533-8.533h42.667
			c5.12,0,8.533,3.413,8.533,8.533C511,439.32,507.587,442.733,502.467,442.733z"/>
	</g>
	<path d="M438.467,468.333H71.533c-16.213,0-29.867-13.653-29.867-29.867V71.533c0-16.213,13.653-29.867,29.867-29.867h366.933
		c16.213,0,29.867,13.653,29.867,29.867v366.933C468.333,454.68,454.68,468.333,438.467,468.333z M71.533,58.733
		c-6.827,0-12.8,5.973-12.8,12.8v366.933c0,6.827,5.973,12.8,12.8,12.8h366.933c6.827,0,12.8-5.973,12.8-12.8V71.533
		c0-6.827-5.973-12.8-12.8-12.8H71.533z"/>
	<path d="M139.8,417.133h-38.4c-5.12,0-8.533-3.413-8.533-8.533v-38.4c0-5.12,3.413-8.533,8.533-8.533
		c5.12,0,8.533,3.413,8.533,8.533v29.867H139.8c5.12,0,8.533,3.413,8.533,8.533C148.333,413.72,144.92,417.133,139.8,417.133z"/>
	<path d="M101.4,343.747c-5.12,0-8.533-3.413-8.533-8.533v-63.147c0-5.12,3.413-8.533,8.533-8.533c5.12,0,8.533,3.413,8.533,8.533
		v63.147C109.933,340.333,106.52,343.747,101.4,343.747z M101.4,246.467c-5.12,0-8.533-3.413-8.533-8.533v-63.147
		c0-5.12,3.413-8.533,8.533-8.533c5.12,0,8.533,3.413,8.533,8.533v63.147C109.933,242.2,106.52,246.467,101.4,246.467z"/>
	<path d="M101.4,148.333c-5.12,0-8.533-3.413-8.533-8.533v-38.4c0-5.12,3.413-8.533,8.533-8.533h38.4
		c5.12,0,8.533,3.413,8.533,8.533c0,5.12-3.413,8.533-8.533,8.533h-29.867V139.8C109.933,144.92,106.52,148.333,101.4,148.333z"/>
	<path d="M335.213,109.933h-63.147c-5.12,0-8.533-3.413-8.533-8.533c0-5.12,3.413-8.533,8.533-8.533h63.147
		c5.12,0,8.533,3.413,8.533,8.533C343.747,106.52,340.333,109.933,335.213,109.933z M237.933,109.933h-63.147
		c-5.12,0-8.533-3.413-8.533-8.533c0-5.12,3.413-8.533,8.533-8.533h63.147c5.12,0,8.533,3.413,8.533,8.533
		C246.467,106.52,242.2,109.933,237.933,109.933z"/>
	<path d="M408.6,148.333c-5.12,0-8.533-3.413-8.533-8.533v-29.867H370.2c-5.12,0-8.533-3.413-8.533-8.533
		c0-5.12,3.413-8.533,8.533-8.533h38.4c5.12,0,8.533,3.413,8.533,8.533v38.4C417.133,144.92,413.72,148.333,408.6,148.333z"/>
	<path d="M408.6,343.747c-5.12,0-8.533-3.413-8.533-8.533v-63.147c0-5.12,3.413-8.533,8.533-8.533c5.12,0,8.533,3.413,8.533,8.533
		v63.147C417.133,340.333,413.72,343.747,408.6,343.747z M408.6,246.467c-5.12,0-8.533-3.413-8.533-8.533v-63.147
		c0-5.12,3.413-8.533,8.533-8.533c5.12,0,8.533,3.413,8.533,8.533v63.147C417.133,242.2,413.72,246.467,408.6,246.467z"/>
	<path d="M408.6,417.133h-38.4c-5.12,0-8.533-3.413-8.533-8.533c0-5.12,3.413-8.533,8.533-8.533h29.867V370.2
		c0-5.12,3.413-8.533,8.533-8.533c5.12,0,8.533,3.413,8.533,8.533v38.4C417.133,413.72,413.72,417.133,408.6,417.133z"/>
	<path d="M335.213,417.133h-63.147c-5.12,0-8.533-3.413-8.533-8.533c0-5.12,3.413-8.533,8.533-8.533h63.147
		c5.12,0,8.533,3.413,8.533,8.533C343.747,413.72,340.333,417.133,335.213,417.133z M237.933,417.133h-63.147
		c-5.12,0-8.533-3.413-8.533-8.533c0-5.12,3.413-8.533,8.533-8.533h63.147c5.12,0,8.533,3.413,8.533,8.533
		C246.467,413.72,242.2,417.133,237.933,417.133z"/>
	<path d="M84.333,58.733c-5.12,0-8.533-3.413-8.533-8.533V7.533C75.8,2.413,79.213-1,84.333-1s8.533,3.413,8.533,8.533V50.2
		C92.867,55.32,89.453,58.733,84.333,58.733z"/>
	<path d="M127,58.733c-5.12,0-8.533-3.413-8.533-8.533V7.533C118.467,2.413,121.88-1,127-1s8.533,3.413,8.533,8.533V50.2
		C135.533,55.32,132.12,58.733,127,58.733z"/>
	<path d="M169.667,58.733c-5.12,0-8.533-3.413-8.533-8.533V7.533c0-5.12,3.413-8.533,8.533-8.533c5.12,0,8.533,3.413,8.533,8.533
		V50.2C178.2,55.32,174.787,58.733,169.667,58.733z"/>
	<path d="M212.333,58.733c-5.12,0-8.533-3.413-8.533-8.533V7.533c0-5.12,3.413-8.533,8.533-8.533c5.12,0,8.533,3.413,8.533,8.533
		V50.2C220.867,55.32,217.453,58.733,212.333,58.733z"/>
	<path d="M255,58.733c-5.12,0-8.533-3.413-8.533-8.533V7.533C246.467,2.413,249.88-1,255-1s8.533,3.413,8.533,8.533V50.2
		C263.533,55.32,260.12,58.733,255,58.733z"/>
	<path d="M297.667,58.733c-5.12,0-8.533-3.413-8.533-8.533V7.533c0-5.12,3.413-8.533,8.533-8.533s8.533,3.413,8.533,8.533V50.2
		C306.2,55.32,302.787,58.733,297.667,58.733z"/>
	<path d="M340.333,58.733c-5.12,0-8.533-3.413-8.533-8.533V7.533c0-5.12,3.413-8.533,8.533-8.533c5.12,0,8.533,3.413,8.533,8.533
		V50.2C348.867,55.32,345.453,58.733,340.333,58.733z"/>
	<path d="M383,58.733c-5.12,0-8.533-3.413-8.533-8.533V7.533C374.467,2.413,377.88-1,383-1c5.12,0,8.533,3.413,8.533,8.533V50.2
		C391.533,55.32,388.12,58.733,383,58.733z"/>
	<path d="M425.667,58.733c-5.12,0-8.533-3.413-8.533-8.533V7.533c0-5.12,3.413-8.533,8.533-8.533s8.533,3.413,8.533,8.533V50.2
		C434.2,55.32,430.787,58.733,425.667,58.733z"/>
	<path d="M84.333,511c-5.12,0-8.533-3.413-8.533-8.533V459.8c0-5.12,3.413-8.533,8.533-8.533s8.533,3.413,8.533,8.533v42.667
		C92.867,507.587,89.453,511,84.333,511z"/>
	<path d="M127,511c-5.12,0-8.533-3.413-8.533-8.533V459.8c0-5.12,3.413-8.533,8.533-8.533s8.533,3.413,8.533,8.533v42.667
		C135.533,507.587,132.12,511,127,511z"/>
	<path d="M169.667,511c-5.12,0-8.533-3.413-8.533-8.533V459.8c0-5.12,3.413-8.533,8.533-8.533c5.12,0,8.533,3.413,8.533,8.533
		v42.667C178.2,507.587,174.787,511,169.667,511z"/>
	<path d="M212.333,511c-5.12,0-8.533-3.413-8.533-8.533V459.8c0-5.12,3.413-8.533,8.533-8.533c5.12,0,8.533,3.413,8.533,8.533
		v42.667C220.867,507.587,217.453,511,212.333,511z"/>
	<path d="M255,511c-5.12,0-8.533-3.413-8.533-8.533V459.8c0-5.12,3.413-8.533,8.533-8.533s8.533,3.413,8.533,8.533v42.667
		C263.533,507.587,260.12,511,255,511z"/>
	<path d="M297.667,511c-5.12,0-8.533-3.413-8.533-8.533V459.8c0-5.12,3.413-8.533,8.533-8.533s8.533,3.413,8.533,8.533v42.667
		C306.2,507.587,302.787,511,297.667,511z"/>
	<path d="M340.333,511c-5.12,0-8.533-3.413-8.533-8.533V459.8c0-5.12,3.413-8.533,8.533-8.533c5.12,0,8.533,3.413,8.533,8.533
		v42.667C348.867,507.587,345.453,511,340.333,511z"/>
	<path d="M383,511c-5.12,0-8.533-3.413-8.533-8.533V459.8c0-5.12,3.413-8.533,8.533-8.533c5.12,0,8.533,3.413,8.533,8.533v42.667
		C391.533,507.587,388.12,511,383,511z"/>
	<path d="M425.667,511c-5.12,0-8.533-3.413-8.533-8.533V459.8c0-5.12,3.413-8.533,8.533-8.533s8.533,3.413,8.533,8.533v42.667
		C434.2,507.587,430.787,511,425.667,511z"/>
	<path d="M502.467,92.867H459.8c-5.12,0-8.533-3.413-8.533-8.533S454.68,75.8,459.8,75.8h42.667c5.12,0,8.533,3.413,8.533,8.533
		S507.587,92.867,502.467,92.867z"/>
	<path d="M502.467,135.533H459.8c-5.12,0-8.533-3.413-8.533-8.533s3.413-8.533,8.533-8.533h42.667c5.12,0,8.533,3.413,8.533,8.533
		S507.587,135.533,502.467,135.533z"/>
	<path d="M502.467,178.2H459.8c-5.12,0-8.533-3.413-8.533-8.533c0-5.12,3.413-8.533,8.533-8.533h42.667
		c5.12,0,8.533,3.413,8.533,8.533C511,174.787,507.587,178.2,502.467,178.2z"/>
	<path d="M502.467,220.867H459.8c-5.12,0-8.533-3.413-8.533-8.533c0-5.12,3.413-8.533,8.533-8.533h42.667
		c5.12,0,8.533,3.413,8.533,8.533C511,217.453,507.587,220.867,502.467,220.867z"/>
	<path d="M502.467,263.533H459.8c-5.12,0-8.533-3.413-8.533-8.533s3.413-8.533,8.533-8.533h42.667c5.12,0,8.533,3.413,8.533,8.533
		S507.587,263.533,502.467,263.533z"/>
	<path d="M502.467,306.2H459.8c-5.12,0-8.533-3.413-8.533-8.533s3.413-8.533,8.533-8.533h42.667c5.12,0,8.533,3.413,8.533,8.533
		S507.587,306.2,502.467,306.2z"/>
	<path d="M502.467,348.867H459.8c-5.12,0-8.533-3.413-8.533-8.533c0-5.12,3.413-8.533,8.533-8.533h42.667
		c5.12,0,8.533,3.413,8.533,8.533C511,345.453,507.587,348.867,502.467,348.867z"/>
	<path d="M502.467,391.533H459.8c-5.12,0-8.533-3.413-8.533-8.533c0-5.12,3.413-8.533,8.533-8.533h42.667
		c5.12,0,8.533,3.413,8.533,8.533C511,388.12,507.587,391.533,502.467,391.533z"/>
	<path d="M502.467,434.2H459.8c-5.12,0-8.533-3.413-8.533-8.533s3.413-8.533,8.533-8.533h42.667c5.12,0,8.533,3.413,8.533,8.533
		S507.587,434.2,502.467,434.2z"/>
	<path d="M50.2,92.867H7.533C2.413,92.867-1,89.453-1,84.333S2.413,75.8,7.533,75.8H50.2c5.12,0,8.533,3.413,8.533,8.533
		S55.32,92.867,50.2,92.867z"/>
	<path d="M50.2,135.533H7.533C2.413,135.533-1,132.12-1,127s3.413-8.533,8.533-8.533H50.2c5.12,0,8.533,3.413,8.533,8.533
		S55.32,135.533,50.2,135.533z"/>
	<path d="M50.2,178.2H7.533c-5.12,0-8.533-3.413-8.533-8.533c0-5.12,3.413-8.533,8.533-8.533H50.2c5.12,0,8.533,3.413,8.533,8.533
		C58.733,174.787,55.32,178.2,50.2,178.2z"/>
	<path d="M50.2,220.867H7.533c-5.12,0-8.533-3.413-8.533-8.533c0-5.12,3.413-8.533,8.533-8.533H50.2c5.12,0,8.533,3.413,8.533,8.533
		C58.733,217.453,55.32,220.867,50.2,220.867z"/>
	<path d="M50.2,263.533H7.533C2.413,263.533-1,260.12-1,255s3.413-8.533,8.533-8.533H50.2c5.12,0,8.533,3.413,8.533,8.533
		S55.32,263.533,50.2,263.533z"/>
	<path d="M50.2,306.2H7.533c-5.12,0-8.533-3.413-8.533-8.533s3.413-8.533,8.533-8.533H50.2c5.12,0,8.533,3.413,8.533,8.533
		S55.32,306.2,50.2,306.2z"/>
	<path d="M50.2,348.867H7.533c-5.12,0-8.533-3.413-8.533-8.533c0-5.12,3.413-8.533,8.533-8.533H50.2c5.12,0,8.533,3.413,8.533,8.533
		C58.733,345.453,55.32,348.867,50.2,348.867z"/>
	<path d="M50.2,391.533H7.533C2.413,391.533-1,388.12-1,383c0-5.12,3.413-8.533,8.533-8.533H50.2c5.12,0,8.533,3.413,8.533,8.533
		C58.733,388.12,55.32,391.533,50.2,391.533z"/>
	<path d="M50.2,434.2H7.533c-5.12,0-8.533-3.413-8.533-8.533s3.413-8.533,8.533-8.533H50.2c5.12,0,8.533,3.413,8.533,8.533
		S55.32,434.2,50.2,434.2z"/>
</g>
</svg>