<?xml version="1.0" encoding="iso-8859-1"?>
<!-- Uploaded to: SVG Repo, www.svgrepo.com, Generator: SVG Repo Mixer Tools -->
<svg height="800px" width="800px" version="1.1" id="Layer_1" xmlns="http://www.w3.org/2000/svg" xmlns:xlink="http://www.w3.org/1999/xlink" 
	 viewBox="0 0 512 512" xml:space="preserve">
<path style="fill:#CBD4D8;" d="M256,512c-5.207,0-8.678-3.471-8.678-8.678v-43.39c0-5.207,3.471-8.678,8.678-8.678
	s8.678,3.471,8.678,8.678v43.39C264.678,508.529,261.207,512,256,512"/>
<path style="fill:#B0B6BB;" d="M186.576,112.814h-34.712V17.356C151.864,7.81,159.675,0,169.22,0l0,0
	c9.546,0,17.356,7.81,17.356,17.356V112.814z"/>
<path style="fill:#E8EDEE;" d="M203.932,425.22L203.932,425.22c0,19.092,15.62,34.712,34.712,34.712h34.712
	c19.092,0,34.712-15.62,34.712-34.712v-22.563c0-41.654,15.62-81.573,43.39-111.946l0,0c27.769-30.373,43.39-70.292,43.39-111.946
	v-65.953H117.153v65.953c0,41.654,15.62,81.573,43.39,111.946l0,0c27.769,30.373,43.39,71.159,43.39,111.946V425.22z"/>
<path style="fill:#B0B6BB;" d="M325.424,112.814h34.712V17.356C360.136,7.81,352.325,0,342.78,0l0,0
	c-9.546,0-17.356,7.81-17.356,17.356V112.814z"/>
<g>
	<path style="fill:#CBD4D8;" d="M316.746,199.593H195.254c-5.207,0-8.678-3.471-8.678-8.678s3.471-8.678,8.678-8.678h121.492
		c5.207,0,8.678,3.471,8.678,8.678S321.953,199.593,316.746,199.593"/>
	<path style="fill:#CBD4D8;" d="M316.746,234.305H195.254c-5.207,0-8.678-3.471-8.678-8.678s3.471-8.678,8.678-8.678h121.492
		c5.207,0,8.678,3.471,8.678,8.678S321.953,234.305,316.746,234.305"/>
</g>
</svg>