<?xml version="1.0" encoding="iso-8859-1"?>
<!-- Uploaded to: SVG Repo, www.svgrepo.com, Generator: SVG Repo Mixer Tools -->
<svg height="800px" width="800px" version="1.1" id="Layer_1" xmlns="http://www.w3.org/2000/svg" xmlns:xlink="http://www.w3.org/1999/xlink" 
	 viewBox="0 0 512 512" xml:space="preserve">
<g>
	<path style="fill:#6DC180;" d="M215.285,414.718H55.881c-3.995,0-6.034-2.488-6.895-3.971c-0.859-1.483-2.009-4.487-0.027-7.955
		l27.597-48.292l-41.522-23.728L7.438,379.068c-9.982,17.468-9.912,38.284,0.185,55.686c10.099,17.401,28.138,27.79,48.257,27.79
		h159.404v48.711l72.599-72.617l-72.599-72.634v48.715H215.285z"/>
	<path style="fill:#6DC180;" d="M504.44,378.604l-79.703-138.047l42.185-24.357l-99.188-26.564l-26.604,99.189l42.19-24.358
		l79.703,138.046c1.996,3.459,0.862,6.471,0.008,7.956c-0.853,1.486-2.882,3.982-6.875,4l-55.62,0.247l0.212,47.823l55.62-0.247
		c20.119-0.089,38.112-10.559,48.133-28.004C514.521,416.843,514.499,396.029,504.44,378.604z"/>
	<path style="fill:#6DC180;" d="M253.867,0.745c-0.043,0-0.089,0-0.132,0c-20.118,0.045-38.134,10.473-48.192,27.897L125.841,166.69
		l-42.185-24.357l26.588,99.181l99.202-26.555l-42.19-24.358l79.703-138.047c1.997-3.458,5.17-3.981,6.883-3.985
		c1.695,0.011,4.889,0.505,6.903,3.953l28.025,48.045l41.31-24.095l-28.025-48.045C291.94,11.086,273.934,0.745,253.867,0.745z"/>
</g>
<g>
	<polygon style="fill:#5CA15D;" points="256,470.527 287.883,438.637 256,406.738 	"/>
	<path style="fill:#5CA15D;" d="M256,0.814v48.045c1.585,0.414,3.419,1.392,4.746,3.663l28.025,48.045l41.31-24.095l-28.025-48.045
		C292.302,11.705,275.203,1.522,256,0.814z"/>
	<path style="fill:#5CA15D;" d="M504.44,378.604l-79.703-138.047l42.185-24.357l-99.188-26.564l-26.604,99.189l42.19-24.358
		l79.703,138.046c1.996,3.459,0.862,6.471,0.008,7.956c-0.853,1.486-2.882,3.982-6.875,4l-55.62,0.247l0.212,47.823l55.62-0.247
		c20.119-0.089,38.112-10.559,48.133-28.004C514.521,416.843,514.499,396.029,504.44,378.604z"/>
</g>
</svg>