<?xml version="1.0" encoding="iso-8859-1"?>
<!-- Uploaded to: SVG Repo, www.svgrepo.com, Generator: SVG Repo Mixer Tools -->
<svg height="800px" width="800px" version="1.1" id="Layer_1" xmlns="http://www.w3.org/2000/svg" xmlns:xlink="http://www.w3.org/1999/xlink" 
	 viewBox="0 0 512.001 512.001" xml:space="preserve">
<path style="fill:#FFD15D;" d="M20.619,316.122c-7.906,0-14.936-5.643-16.409-13.702c-15.186-83.013,11.239-168.065,70.693-227.515
	c99.863-99.858,262.34-99.858,362.192,0c6.524,6.519,6.524,17.099,0,23.619c-6.524,6.524-17.095,6.524-23.619,0
	c-41.991-41.991-97.917-65.115-157.474-65.115c-59.563,0-115.489,23.124-157.48,65.115c-51.691,51.696-74.662,125.667-61.45,197.883
	c1.658,9.074-4.349,17.774-13.425,19.438C22.631,316.03,21.62,316.122,20.619,316.122z"/>
<path style="fill:#F9B54C;" d="M255.757,0.024v33.398c0.082,0,0.163-0.011,0.245-0.011c59.557,0,115.484,23.124,157.474,65.115
	c6.524,6.524,17.095,6.524,23.619,0c6.524-6.519,6.524-17.099,0-23.619C387.106,24.914,321.423-0.038,255.757,0.024z"/>
<path style="fill:#FFD15D;" d="M255.996,511.988c-65.582,0-131.164-24.967-181.093-74.896c-6.524-6.519-6.524-17.099,0-23.619
	c6.524-6.524,17.095-6.524,23.619,0c41.991,41.991,97.917,65.115,157.474,65.115c59.563,0,115.489-23.124,157.48-65.115
	c51.69-51.696,74.662-125.672,61.45-197.883c-1.658-9.074,4.349-17.774,13.43-19.438c8.972-1.647,17.768,4.349,19.432,13.425
	c15.192,83.008-11.244,168.061-70.693,227.515C387.166,487.021,321.585,511.988,255.996,511.988z"/>
<path style="fill:#F9B54C;" d="M488.356,196.153c-9.08,1.664-15.088,10.363-13.43,19.438c13.212,72.21-9.76,146.187-61.45,197.883
	c-41.991,41.991-97.917,65.115-157.48,65.115c-0.08,0-0.159-0.011-0.239-0.011v33.4c0.079,0,0.159,0.011,0.239,0.011
	c65.587,0,131.17-24.967,181.099-74.896c59.449-59.455,85.884-144.506,70.693-227.515
	C506.124,200.503,497.327,194.506,488.356,196.153z"/>
<path style="fill:#FFD15D;" d="M51.28,477.419c-1.571,0-3.153-0.223-4.709-0.679c-5.862-1.718-10.314-6.503-11.614-12.472
	l-19.682-90.549c-1.207-5.556,0.494-11.342,4.513-15.36c4.013-4.029,9.798-5.726,15.36-4.513l90.549,19.688
	c5.97,1.299,10.754,5.752,12.478,11.614c1.718,5.867,0.104,12.201-4.219,16.518l-70.867,70.862
	C59.913,475.707,55.645,477.419,51.28,477.419z"/>
<path style="fill:#F9B54C;" d="M480.396,158.534c-1.185,0-2.371-0.125-3.55-0.381l-90.543-19.688
	c-5.971-1.299-10.754-5.752-12.478-11.614c-1.718-5.867-0.104-12.201,4.219-16.518l70.862-70.862
	c4.312-4.323,10.635-5.943,16.518-4.214c5.862,1.718,10.314,6.503,11.614,12.472l19.682,90.549
	c1.207,5.556-0.489,11.342-4.513,15.36C489.041,156.81,484.778,158.534,480.396,158.534z"/>
<path style="fill:#5FD382;" d="M228.677,288.151c-22.919,8.342-45.377,7.94-64.95-1.165c-26.285-12.552-43.626-38.981-48.96-74.592
	c-0.336-2.243,0.759-4.591,2.694-5.775c7.734-4.732,15.584-8.558,23.365-11.39c22.971-8.36,45.527-8.036,65.25,0.94
	c27.271,12.738,44.885,40.592,49.463,78.351C246.654,280.311,237.619,284.896,228.677,288.151z"/>
<path style="fill:#61B97A;" d="M282.393,288.148c-8.952-3.258-17.987-7.842-26.854-13.622c4.579-37.759,22.137-65.587,49.463-78.351
	c19.667-8.95,42.301-9.298,65.292-0.93c7.772,2.828,15.601,6.651,23.331,11.383c1.934,1.184,3.03,3.533,2.694,5.776
	c-5.339,35.606-22.64,62.008-48.969,74.589C327.855,296.08,305.344,296.502,282.393,288.148z"/>
<path style="fill:#36B39A;" d="M255.779,378.486c-9.221,0-16.703-7.476-16.703-16.703V172.485c0-9.227,7.482-16.703,16.703-16.703
	c9.221,0,16.703,7.476,16.703,16.703v189.298C272.482,371.01,265,378.486,255.779,378.486z"/>
<path style="fill:#3D9987;" d="M255.779,155.783c-0.008,0-0.014,0.002-0.022,0.002v222.699c0.008,0,0.014,0.002,0.022,0.002
	c9.221,0,16.703-7.476,16.703-16.703V172.485C272.482,163.259,265,155.783,255.779,155.783z"/>
</svg>