<?xml version="1.0" encoding="iso-8859-1"?>

<!DOCTYPE svg PUBLIC "-//W3C//DTD SVG 1.1//EN" "http://www.w3.org/Graphics/SVG/1.1/DTD/svg11.dtd">
<!-- Uploaded to: SVG Repo, www.svgrepo.com, Generator: SVG Repo Mixer Tools -->
<svg version="1.1" id="_x35_" xmlns="http://www.w3.org/2000/svg" xmlns:xlink="http://www.w3.org/1999/xlink" 
	 viewBox="0 0 512 512"  xml:space="preserve">
<g>
	<path style="fill:none;" d="M270.132,207.708c-53.139,0-96.421,43.283-96.421,96.423l0.001,0.02
		c0.005-53.162,43.258-96.413,96.42-96.413c26.586,0,50.693,10.818,68.153,28.28l0.005-0.004
		C320.825,218.538,296.712,207.708,270.132,207.708z"/>
	<path style="fill:none;" d="M273.414,262.874c0,26.223-8.505,50.473-22.871,70.15c14.384-19.666,22.907-43.89,22.907-70.124
		c0-32.846-13.354-62.542-34.881-84.065l-0.018,0.018C260.068,200.374,273.414,230.058,273.414,262.874z"/>
	<path style="fill:none;" d="M270.133,285.089c0,3.316-0.169,6.595-0.498,9.825c0.33-3.24,0.499-6.527,0.499-9.853
		c0-26.56-10.813-50.656-28.263-68.116l-0.005,0.004C259.322,234.407,270.133,258.511,270.133,285.089z"/>
	<g>
		<path style="fill:#969247;" d="M512,255.919c0,141.346-114.654,255.999-256,255.999c-51.331,0-99.214-15.195-139.375-41.229
			c-30.059-19.546-55.848-45.336-75.396-75.395C15.194,355.213,0,307.331,0,255.919C0,114.573,114.654,0,256,0
			c60.858,0,116.871,21.272,160.811,56.833c14.127,11.335,26.939,24.23,38.355,38.356C490.728,139.128,512,194.977,512,255.919z"/>
		<g>
			<g>
				<g>
					<path style="fill:#FFFFFF;" d="M419.171,209.886c-4.57,0-9.138-1.744-12.625-5.229C366.265,164.375,312.8,142.191,256,142.191
						c-56.801,0-110.267,22.184-150.546,62.466c-6.971,6.971-18.276,6.971-25.251,0c-6.973-6.973-6.973-18.278,0-25.251
						C127.227,132.381,189.66,106.482,256,106.482c66.338,0,128.771,25.898,175.797,72.924c6.973,6.973,6.973,18.278,0,25.251
						C428.309,208.143,423.741,209.886,419.171,209.886z"/>
				</g>
				<g>
					<path style="fill:#FFFFFF;stroke:#040000;stroke-width:13;stroke-miterlimit:10;" d="M256,299.909"/>
				</g>
				<g>
					<path style="fill:#FFFFFF;" d="M365.232,263.825c-4.57,0-9.138-1.744-12.625-5.229c-25.85-25.85-60.159-40.086-96.607-40.086
						s-70.757,14.236-96.607,40.086c-6.974,6.971-18.276,6.971-25.251,0c-6.973-6.973-6.973-18.278,0-25.251
						c32.595-32.594,75.872-50.545,121.858-50.545c45.986,0,89.262,17.951,121.858,50.545c6.973,6.973,6.973,18.278,0,25.251
						C374.37,262.082,369.802,263.825,365.232,263.825z"/>
				</g>
				<g>
					<path style="fill:#FFFFFF;" d="M311.294,317.764c-4.57,0-9.138-1.742-12.624-5.229c-11.42-11.416-26.573-17.705-42.67-17.705
						s-31.25,6.289-42.67,17.705c-6.973,6.973-18.28,6.971-25.249-0.002c-6.973-6.973-6.973-18.278,0.002-25.249
						c18.163-18.162,42.283-28.163,67.917-28.163c25.634,0,49.754,10.002,67.917,28.163c6.974,6.971,6.974,18.276,0.002,25.249
						C320.433,316.02,315.863,317.764,311.294,317.764z"/>
				</g>
				<g>
					<path style="fill:#FFFFFF;" d="M297.944,384.434c0,23.169-18.775,41.944-41.944,41.944s-41.944-18.775-41.944-41.944
						c0-11.585,4.694-22.07,12.284-29.66c7.59-7.59,18.076-12.283,29.66-12.283s22.071,4.694,29.66,12.283
						C293.25,362.363,297.944,372.849,297.944,384.434z"/>
				</g>
			</g>
			<g style="opacity:0.04;">
				<g>
					<g>
						<path style="fill:#040000;" d="M435.751,198.669c-0.869-2.198-2.173-4.226-3.936-5.988
							C384.776,145.666,322.356,119.756,256,119.756c-66.332,0-128.752,25.91-175.791,72.925c-1.763,1.763-3.091,3.791-3.96,5.988
							c-2.584-6.423-1.256-14.054,3.96-19.269c47.038-47.015,109.459-72.925,175.791-72.925c66.356,0,128.777,25.91,175.815,72.925
							C437.006,184.616,438.335,192.246,435.751,198.669z"/>
					</g>
					<g>
						<path style="fill:#040000;stroke:#040000;stroke-width:13;stroke-miterlimit:10;" d="M256.01,299.909"/>
					</g>
					<g>
						<path style="fill:#040000;" d="M381.806,252.614c-0.869-2.197-2.173-4.226-3.936-5.988
							c-32.599-32.599-75.87-50.54-121.87-50.54c-45.976,0-89.247,17.941-121.846,50.54c-1.763,1.763-3.091,3.791-3.96,5.988
							c-2.584-6.423-1.256-14.053,3.96-19.269c32.599-32.598,75.87-50.54,121.846-50.54c46,0,89.272,17.941,121.87,50.54
							C383.086,238.56,384.414,246.191,381.806,252.614z"/>
					</g>
					<g>
						<path style="fill:#040000;" d="M327.862,306.558c-0.845-2.174-2.173-4.226-3.936-5.988
							c-18.159-18.159-42.282-28.18-67.926-28.18c-25.62,0-49.743,10.021-67.902,28.18c-1.787,1.763-3.091,3.815-3.96,5.988
							c-2.584-6.448-1.256-14.078,3.96-19.269c18.159-18.159,42.282-28.18,67.902-28.18c25.644,0,49.767,10.021,67.926,28.18
							C329.141,292.48,330.47,300.111,327.862,306.558z"/>
					</g>
					<g>
						<path style="fill:#040000;" d="M297.943,384.433c0,2.27-0.169,4.467-0.531,6.64c-1.4-8.934-5.626-16.903-11.735-23.012
							C278.07,360.455,267.59,355.77,256,355.77c-11.566,0-22.07,4.685-29.653,12.291c-6.109,6.109-10.335,14.078-11.76,23.012
							c-0.362-2.174-0.531-4.371-0.531-6.64c0-11.591,4.709-22.07,12.291-29.653c7.582-7.606,18.086-12.291,29.653-12.291
							c11.591,0,22.07,4.685,29.677,12.291C293.259,362.363,297.943,372.842,297.943,384.433z"/>
					</g>
				</g>
				<g>
					<g>
						<path style="fill:#040000;stroke:#040000;stroke-width:13;stroke-miterlimit:10;" d="M256.01,313.19"/>
					</g>
				</g>
			</g>
		</g>
	</g>
	<path style="opacity:0.07;fill:#040000;" d="M455.166,95.19c-11.416-14.126-24.228-27.021-38.355-38.356
		C372.871,21.272,316.858,0,256,0v511.918c141.346,0,256-114.654,256-255.999C512,194.977,490.728,139.128,455.166,95.19z"/>
</g>
</svg>