<?xml version="1.0" encoding="iso-8859-1"?>
<!-- Uploaded to: SVG Repo, www.svgrepo.com, Generator: SVG Repo Mixer Tools -->
<svg version="1.1" id="Layer_1" xmlns="http://www.w3.org/2000/svg" xmlns:xlink="http://www.w3.org/1999/xlink" 
	 viewBox="0 0 512 512" xml:space="preserve">
<polygon style="fill:#324860;" points="278.261,289.391 278.261,178.087 111.861,0 0,0 0,512 66.783,512 "/>
<polygon style="fill:#263648;" points="445.217,0 401.252,0 378.435,22.261 355.617,0 278.817,0 256,200.348 256,267.13 
	445.217,512 512,512 512,66.783 "/>
<polygon style="fill:#BFDCFF;" points="66.783,333.913 66.783,512 256,512 278.261,311.652 "/>
<polygon style="fill:#8BC0FF;" points="256,311.652 256,512 445.217,512 445.217,333.913 "/>
<polygon style="fill:#BFDCFF;" points="256,200.348 267.13,100.174 256,0 111.861,0 111.861,200.348 "/>
<polygon style="fill:#8BC0FF;" points="355.617,0 355.617,155.826 278.817,155.826 278.817,0 256,0 256,200.348 401.252,200.348 
	401.252,0 "/>
<polygon style="fill:#FF7855;" points="66.783,333.913 256,333.913 278.261,300.522 256,267.13 66.783,267.13 "/>
<rect x="256" y="267.13" style="fill:#FF562B;" width="189.217" height="66.783"/>
</svg>