<?xml version="1.0" encoding="iso-8859-1"?>

<!DOCTYPE svg PUBLIC "-//W3C//DTD SVG 1.1//EN" "http://www.w3.org/Graphics/SVG/1.1/DTD/svg11.dtd">
<!-- Uploaded to: SVG Repo, www.svgrepo.com, Generator: SVG Repo Mixer Tools -->
<svg version="1.1" id="_x35_" xmlns="http://www.w3.org/2000/svg" xmlns:xlink="http://www.w3.org/1999/xlink" 
	 viewBox="0 0 512 512"  xml:space="preserve">
<g>
	<path style="fill:#FCE6C7;" d="M143.636,18.919v474.224c0,3.423-0.933,6.66-2.552,9.398c-1.556,2.676-3.734,4.978-6.41,6.597
		c-2.863,1.804-6.223,2.862-9.895,2.862H18.857C8.464,512,0,503.474,0,493.143V18.919C0,8.525,8.464,0,18.857,0h105.922
		c1.307,0,2.552,0.124,3.796,0.373h0.062c3.298,0.684,6.286,2.24,8.65,4.418c1.556,1.369,2.801,2.925,3.796,4.668
		c0.996,1.68,1.68,3.485,2.116,5.477C143.512,16.18,143.636,17.55,143.636,18.919z"/>
	<g>
		<rect y="32.859" style="fill:#8C8B81;" width="35.287" height="4.792"/>
		<rect y="52.089" style="fill:#8C8B81;" width="35.287" height="4.854"/>
		<rect y="71.382" style="fill:#8C8B81;" width="59.931" height="4.792"/>
		<rect y="90.613" style="fill:#8C8B81;" width="35.287" height="4.854"/>
		<rect y="109.905" style="fill:#8C8B81;" width="35.287" height="4.792"/>
		<rect y="129.136" style="fill:#8C8B81;" width="35.287" height="4.791"/>
		<rect y="148.428" style="fill:#8C8B81;" width="35.287" height="4.792"/>
		<rect y="167.659" style="fill:#8C8B81;" width="59.931" height="4.791"/>
		<rect y="186.889" style="fill:#8C8B81;" width="35.287" height="4.855"/>
		<rect y="206.182" style="fill:#8C8B81;" width="35.287" height="4.792"/>
		<rect y="225.412" style="fill:#8C8B81;" width="35.287" height="4.855"/>
		<rect y="244.705" style="fill:#8C8B81;" width="35.287" height="4.791"/>
		<rect y="263.934" style="fill:#8C8B81;" width="59.931" height="4.855"/>
		<rect y="282.729" style="fill:#8C8B81;" width="35.287" height="4.792"/>
		<rect y="301.96" style="fill:#8C8B81;" width="35.287" height="4.854"/>
		<rect y="321.252" style="fill:#8C8B81;" width="35.287" height="4.792"/>
		<rect y="340.483" style="fill:#8C8B81;" width="35.287" height="4.854"/>
		<rect y="359.776" style="fill:#8C8B81;" width="59.931" height="4.791"/>
		<rect y="378.508" style="fill:#8C8B81;" width="35.287" height="4.854"/>
		<rect y="397.8" style="fill:#8C8B81;" width="35.287" height="4.793"/>
		<rect y="417.031" style="fill:#8C8B81;" width="35.287" height="4.854"/>
		<rect y="436.323" style="fill:#8C8B81;" width="35.287" height="4.793"/>
		<rect y="455.554" style="fill:#8C8B81;" width="59.931" height="4.854"/>
		<rect y="474.348" style="fill:#8C8B81;" width="35.287" height="4.792"/>
	</g>
	<path style="fill:#EFDDBB;" d="M143.636,7.716v496.567c0,4.232-3.423,7.717-7.655,7.717H83.456V0h52.526
		C140.214,0,143.636,3.485,143.636,7.716z"/>
	<g>
		<path style="fill:#FFFEFB;" d="M77.544,440.493v-4.418H54.455v3.796l2.863,5.601l3.236-0.934l-1.058-2.054l-0.996-1.929v-0.062
			H77.544z"/>
		<path style="fill:#FFFEFB;" d="M73.747,335.379v8.465h-0.062l-1.867-1.929c-3.423-3.361-6.721-6.1-10.829-6.1
			c-3.734,0-6.908,2.241-6.908,7.157c0,1.182,0.187,2.365,0.56,3.361c0.373,1.245,0.933,2.303,1.494,3.112l3.236-1.245
			c-0.373-0.56-0.809-1.182-1.12-1.929c-0.125-0.311-0.249-0.622-0.311-0.996c0-0.062,0-0.062-0.062-0.124
			c-0.125-0.436-0.187-0.809-0.187-1.245c0-2.552,1.68-3.61,3.734-3.61c3.112,0,6.037,2.552,10.58,6.908l2.738,2.614h2.8v-14.438
			H73.747z"/>
		<path style="fill:#FFFEFB;" d="M76.237,242.899c-1.245-2.115-3.298-3.236-5.663-3.236c-3.174,0-5.228,2.116-5.788,4.668h-0.062
			c-0.996-2.489-2.925-3.92-5.352-3.92c-3.049,0-5.601,2.303-5.601,6.721c0,1.245,0.187,2.427,0.498,3.485
			c0,0.187,0.125,0.312,0.187,0.436c0.187,0.871,0.498,1.556,0.871,2.054l3.236-0.934c-0.311-0.497-0.685-1.244-0.871-2.053
			c0-0.063-0.062-0.063-0.062-0.125c-0.187-0.56-0.311-1.182-0.311-1.804c0-2.179,1.182-3.237,2.8-3.237
			c1.058,0,1.805,0.499,2.241,1.183c0.56,0.622,0.871,1.494,0.933,2.303c0.062,0.187,0.062,0.436,0.062,0.622v1.494h3.174v-1.556
			c0-2.489,1.245-4.729,3.796-4.729c1.058,0,2.054,0.436,2.676,1.244c0.622,0.685,0.933,1.618,0.933,2.863
			c0,0.996-0.187,2.054-0.498,2.863c-0.249,0.684-0.498,1.307-0.747,1.68l3.423,0.996c0.747-1.182,1.431-3.361,1.431-5.788
			C77.544,246.011,77.046,244.206,76.237,242.899z"/>
		<path style="fill:#FFFEFB;" d="M71.818,146.561v-2.676h-3.423v2.676H54.455v5.103l14.438,8.402h2.925v-9.335h5.726v-4.17H71.818z
			 M68.395,156.021h-0.062l-5.788-3.361c-1.307-0.747-2.614-1.306-4.045-1.992v-0.124c1.12,0.124,2.303,0.186,3.423,0.124
			c0.249,0.062,0.498,0.062,0.747,0.062h5.726V156.021z"/>
		<path style="fill:#FFFEFB;" d="M76.237,49.041c0-0.063-0.062-0.063-0.062-0.063c-1.494-2.302-3.983-3.61-6.721-3.61
			c-4.979,0-7.219,3.796-7.219,7.779c0,0.498,0,0.871,0.062,1.307l-4.481-0.623V45.99h-3.734v11.078l11.576,1.369
			c-0.124-0.747-0.187-1.556-0.187-2.552c0-3.921,1.556-5.974,4.356-5.974c1.431,0,2.552,0.622,3.236,1.556
			c0.622,0.809,0.934,1.868,0.934,2.988c0,0.933-0.187,1.804-0.436,2.613c-0.187,0.685-0.436,1.308-0.685,1.743l3.423,0.871
			c0.622-1.12,1.245-3.236,1.245-5.477C77.544,52.152,77.046,50.471,76.237,49.041z"/>
	</g>
	<g>
		<path style="fill:#8C8B81;" d="M53.584,434.021v3.796l0.871,1.68l1.992,3.921l3.049-0.934l0.187-0.062l-0.996-1.929l-1.058-1.991
			v-0.062h19.044v-4.419H53.584z"/>
		<path style="fill:#8C8B81;" d="M72.876,333.263v8.526h-0.062l-1.867-1.929c-3.361-3.36-6.721-6.161-10.829-6.161
			c-3.734,0-6.908,2.303-6.908,7.219c0,2.116,0.622,4.045,1.431,5.414c0.187,0.436,0.436,0.747,0.685,1.059l2.925-1.121l0.311-0.124
			c-0.187-0.249-0.436-0.56-0.622-0.871c0-0.062,0-0.062-0.062-0.124c-0.56-0.933-0.996-2.116-0.996-3.298
			c0-2.552,1.68-3.61,3.672-3.61c3.112,0,6.099,2.552,10.58,6.908l2.738,2.552h2.8v-14.438H72.876z"/>
		<path style="fill:#8C8B81;" d="M76.237,242.899c-0.934-3.423-3.485-5.352-6.535-5.352c-3.112,0-5.228,2.178-5.788,4.73h-0.062
			c-0.933-2.552-2.925-3.983-5.29-3.983c-3.049,0-5.663,2.303-5.663,6.721c0,2.24,0.622,4.357,1.369,5.601
			c0,0.187,0.125,0.312,0.187,0.436l3.236-0.933c0-0.063-0.062-0.063-0.062-0.125c-0.498-0.871-1.182-2.365-1.182-3.921
			c0-2.116,1.182-3.174,2.8-3.174c1.867,0,2.925,1.618,3.112,3.236c0.124,0.311,0.124,0.56,0.124,0.872v1.431h3.174v-1.556
			c0-2.427,1.245-4.73,3.859-4.73c1.68,0,3.174,1.12,3.485,3.361c0.062,0.249,0.062,0.498,0.062,0.809
			c0,1.743-0.684,3.61-1.245,4.481l1.618,0.436l1.805,0.56c0.747-1.12,1.431-3.361,1.431-5.788
			C76.673,244.891,76.548,243.833,76.237,242.899z"/>
		<path style="fill:#8C8B81;" d="M70.947,144.507v-2.676h-3.423v2.676H53.584v5.041l0.871,0.498l13.567,7.904h2.925v-9.274h5.726
			v-4.17H70.947z M57.629,148.49c1.369,0.062,2.801,0.187,4.17,0.187h5.726v5.29h-0.062l-5.539-3.298l-0.249-0.124
			c-1.307-0.685-2.614-1.245-4.045-1.929V148.49z"/>
		<path style="fill:#8C8B81;" d="M76.237,49.041c0-0.063-0.062-0.063-0.062-0.063c-1.058-3.547-4.107-5.663-7.592-5.663
			c-4.979,0-7.219,3.735-7.219,7.779c0,0.498,0.062,0.871,0.125,1.307l-3.672-0.498l-0.871-0.124v-7.841H53.21v11.015l0.871,0.124
			l10.704,1.308c-0.062-0.747-0.124-1.556-0.124-2.615c0-3.921,1.556-5.912,4.294-5.912c2.365,0,3.796,1.618,4.107,3.609
			c0.062,0.312,0.062,0.56,0.062,0.871c0,1.805-0.56,3.485-1.058,4.356l1.494,0.373l1.929,0.499c0.56-1.12,1.182-3.174,1.182-5.477
			C76.673,50.97,76.548,49.973,76.237,49.041z"/>
	</g>
	<path style="fill:#C5BFA9;" d="M86.026,509.113v-1.094h41.02c5.652,0,10.249-4.598,10.249-10.249V2.428
		c2.196,0.594,3.814,2.603,3.814,4.983V503.95c0,2.847-2.317,5.163-5.163,5.163H86.026z"/>
</g>
</svg>