<?xml version="1.0" encoding="iso-8859-1"?>

<!DOCTYPE svg PUBLIC "-//W3C//DTD SVG 1.1//EN" "http://www.w3.org/Graphics/SVG/1.1/DTD/svg11.dtd">
<!-- Uploaded to: SVG Repo, www.svgrepo.com, Generator: SVG Repo Mixer Tools -->
<svg height="800px" width="800px" version="1.1" id="_x35_" xmlns="http://www.w3.org/2000/svg" xmlns:xlink="http://www.w3.org/1999/xlink" 
	 viewBox="0 0 512 512"  xml:space="preserve">
<g>
	<polygon style="fill:none;" points="204.489,134.246 204.803,158.519 229.077,134.246 220.573,134.246 	"/>
	<g>
		<g>
			<path style="fill:#737373;" d="M416.161,96.892c-1.586,3.246-5.19,5.407-9.372,4.254c-38.209-11.103-84.42-3.965-122.773,15.571
				c-2.091,1.082-4.181,2.163-6.2,3.316c-10.237,5.696-19.825,12.257-28.404,19.611h-28.837l-0.433-82.906
				c0-3.101,1.802-5.84,4.542-7.209c15.717-7.281,33.523-11.391,52.051-12.472c4.253-0.216,8.651-0.289,12.977-0.216
				c12.544,0.216,25.304,1.658,37.776,4.397c0.577,0.144,1.154,0.289,1.73,0.433c3.677,0.794,7.281,1.73,10.886,2.74
				c1.73,0.503,3.533,1.008,5.263,1.584c7.858,2.524,15.5,5.481,22.781,8.941c2.163,0.936,4.325,2.017,6.416,3.172
				c2.163,1.081,4.253,2.235,6.272,3.46c0.432,0.144,0.865,0.433,1.298,0.722c2.523,1.442,4.902,2.955,7.281,4.541
				c1.586,1.01,3.172,2.091,4.686,3.244c2.091,1.441,4.109,2.955,6.056,4.543c1.225,1.008,2.379,1.947,3.532,2.955
				c1.802,1.514,3.605,3.099,5.263,4.757c0.072,0.074,0.144,0.144,0.217,0.216c2.018,1.874,3.893,3.749,5.695,5.768
				C417.242,90.981,417.387,94.225,416.161,96.892z"/>
			<path style="fill:#737373;" d="M81.384,129.886l-69.448,2.153C5.371,132.039,0,126.668,0,120.103V51.774
				c0-6.565,5.371-11.936,11.936-11.936l69.448,2.153c6.565,0,11.936,5.371,11.936,11.936v64.022
				C93.321,124.515,87.949,129.886,81.384,129.886z"/>
			<path style="fill:#D0AC70;" d="M209.256,506.665c0,2.955-2.379,5.335-5.335,5.335H106.38c-2.884,0-5.335-2.38-5.263-5.335
				l0.288-20.475l2.812-221.684l1.658-124.863l0.577-42.752l0.865-66.83L107.678,0h95.018v0.649l0.36,29.412l1.442,109.582
				l0.289,24.294L209.256,506.665z"/>
			<g style="opacity:0.2;">
				<path style="fill:#FFFFFF;" d="M118.276,0.866l-0.361,29.196l-0.721,56.088l-0.721,53.494l-1.442,114.049l-3.172,242.953
					l-0.144,10.092c-0.072,2.955-2.379,5.263-5.335,5.263c-2.884,0-5.335-2.38-5.263-5.335l0.288-20.475l2.812-221.684
					l1.658-124.863l0.577-42.752l0.865-66.83L107.678,0h10.526C118.203,0.289,118.276,0.577,118.276,0.866z"/>
			</g>
			<path style="fill:#7D7F80;" d="M277.815,41.958v85.789c0,6.56-5.407,11.896-11.967,11.896H58.583
				c-5.407,0-10.021-3.677-11.391-8.653c-0.36-1.008-0.505-2.091-0.505-3.244V41.958c0-0.361,0-0.722,0.072-1.008
				c0.505-6.128,5.623-10.888,11.823-10.888h207.265c4.83,0,9.012,2.885,10.886,6.995c0.144,0.359,0.288,0.72,0.432,1.081
				C277.599,39.362,277.815,40.661,277.815,41.958z"/>
		</g>
		<g>
			<path style="opacity:0.07;fill:#040000;" d="M209.256,506.665c0,2.955-2.379,5.335-5.335,5.335H106.38
				c-2.884,0-5.335-2.38-5.263-5.335l0.288-20.475l2.812-221.684l10.814-10.814l89.755-89.755L209.256,506.665z"/>
			<path style="opacity:0.07;fill:#040000;" d="M416.161,96.892c-1.586,3.246-5.19,5.407-9.372,4.254
				c-38.209-11.103-84.42-3.965-122.773,15.571c-2.091,1.082-4.181,2.163-6.2,3.316v7.714c0,6.56-5.407,11.896-11.967,11.896
				h-36.767l98.406-98.407c0.577,0.144,1.154,0.289,1.73,0.433c3.677,0.794,7.281,1.73,10.886,2.74
				c1.73,0.503,3.533,1.008,5.263,1.584c7.858,2.524,15.5,5.481,22.781,8.941c2.163,0.936,4.325,2.017,6.416,3.172
				c2.091,1.081,4.109,2.163,6.128,3.316c0.433,0.217,0.937,0.505,1.442,0.866c2.523,1.442,4.902,2.955,7.281,4.541
				c1.586,1.01,3.172,2.091,4.686,3.244c2.091,1.441,4.109,2.955,6.056,4.543c1.225,1.008,2.379,1.947,3.532,2.955
				c1.802,1.514,3.605,3.099,5.263,4.757c0.072,0.074,0.144,0.144,0.217,0.216c2.018,1.874,3.893,3.749,5.695,5.768
				C417.242,90.981,417.387,94.225,416.161,96.892z"/>
		</g>
	</g>
</g>
</svg>