<?xml version="1.0" encoding="iso-8859-1"?>

<!DOCTYPE svg PUBLIC "-//W3C//DTD SVG 1.1//EN" "http://www.w3.org/Graphics/SVG/1.1/DTD/svg11.dtd">
<!-- Uploaded to: SVG Repo, www.svgrepo.com, Generator: SVG Repo Mixer Tools -->
<svg height="800px" width="800px" version="1.1" id="_x35_" xmlns="http://www.w3.org/2000/svg" xmlns:xlink="http://www.w3.org/1999/xlink" 
	 viewBox="0 0 512 512"  xml:space="preserve">
<g>
	<g>
		<path style="fill:#55798C;" d="M511.923,164.32l-0.149,2.538l-12.169,216.803l-3.061,55.32
			c-1.12,16.798-15.08,29.863-31.953,29.863H47.409c-2.24,0-4.405-0.223-6.495-0.671c-12.393-2.539-22.248-12.319-24.786-24.786
			c-0.373-1.418-0.597-2.912-0.672-4.405l-3.061-55.32L0.077,164.32c-1.269-18.515,13.364-34.192,31.953-34.192h447.94
			C498.56,130.127,513.193,145.805,511.923,164.32z"/>
		<polygon style="fill:#CCAE6C;" points="311.545,0 310.947,61.667 201.65,61.667 201.053,0 		"/>
		<polygon style="fill:#DDBF82;" points="202.77,181.267 149.241,181.267 148.942,165.365 148.271,130.127 148.121,122.064 
			147.001,61.667 201.053,0 201.65,61.667 202.173,122.064 202.247,130.127 202.62,165.365 		"/>
		<polygon style="fill:#DDBF82;" points="365.596,61.667 364.476,122.064 364.327,130.127 363.655,165.365 363.357,181.267 
			309.827,181.267 309.977,165.365 310.275,130.127 310.35,122.064 310.947,61.667 311.545,0 		"/>
		<polygon style="opacity:0.2;fill:#FFFFFF;" points="202.742,181.28 149.198,181.28 148.902,165.38 202.594,165.38 		"/>
		<polygon style="opacity:0.2;fill:#FFFFFF;" points="309.835,181.28 363.378,181.28 363.674,165.38 309.982,165.38 		"/>
		<path style="opacity:0.1;fill:#FFFFFF;" d="M499.605,383.661l-3.061,55.32c-1.12,16.798-15.08,29.863-31.953,29.863H47.409
			c-2.24,0-4.405-0.223-6.495-0.671c-12.393-2.539-22.248-12.319-24.786-24.786c-0.373-1.418-0.597-2.912-0.672-4.405l-3.061-55.32
			H499.605z"/>
	</g>
	<polygon style="fill:none;" points="310.275,130.127 310.35,122.064 310.947,61.667 256,61.667 256,130.127 	"/>
	<polygon style="fill:none;" points="202.173,122.064 202.247,130.127 256,130.127 256,61.667 201.65,61.667 	"/>
	<path style="opacity:0.07;fill:#040000;" d="M479.97,130.127H364.327l0.149-8.064l1.12-60.397L311.545,0H256v61.667h54.947
		l-0.597,60.397l-0.075,8.064H256v338.717h208.591c16.872,0,30.833-13.065,31.953-29.863l3.061-55.32l12.169-216.803l0.149-2.538
		C513.193,145.805,498.56,130.127,479.97,130.127z"/>
</g>
</svg>