<?xml version="1.0" encoding="iso-8859-1"?>

<!DOCTYPE svg PUBLIC "-//W3C//DTD SVG 1.1//EN" "http://www.w3.org/Graphics/SVG/1.1/DTD/svg11.dtd">
<!-- Uploaded to: SVG Repo, www.svgrepo.com, Generator: SVG Repo Mixer Tools -->
<svg version="1.1" id="_x35_" xmlns="http://www.w3.org/2000/svg" xmlns:xlink="http://www.w3.org/1999/xlink" 
	 viewBox="0 0 512 512"  xml:space="preserve">
<g>
	<polygon style="fill:#FEFCEC;" points="263.936,265.174 259.832,268.968 184.422,339.81 126.51,281.667 112.419,267.575 
		112.419,406.471 113.503,406.471 63.023,453.933 56.674,459.816 38.634,476.772 32.363,482.656 13.627,500.231 7.356,506.116 
		6.427,507.043 1.085,512 0,512 0,0 	"/>
	<polygon style="fill:#F1EEE0;" points="509.609,511.977 1.082,511.977 7.347,506.093 56.642,459.793 62.988,453.909 
		113.52,406.449 250.688,406.449 184.412,339.787 263.959,265.152 	"/>
	<g>
		<rect x="0.047" y="55.686" style="fill:#A5A4A3;" width="39.965" height="5.865"/>
		<rect x="0.047" y="79.146" style="fill:#A5A4A3;" width="39.965" height="5.866"/>
		<rect x="0.047" y="102.606" style="fill:#A5A4A3;" width="67.861" height="5.865"/>
		<rect x="0.047" y="126.066" style="fill:#A5A4A3;" width="39.965" height="5.865"/>
		<rect x="0.047" y="149.527" style="fill:#A5A4A3;" width="39.965" height="5.865"/>
		<rect x="0.047" y="172.987" style="fill:#A5A4A3;" width="39.965" height="5.865"/>
		<rect x="0.047" y="196.447" style="fill:#A5A4A3;" width="39.965" height="5.866"/>
		<rect x="0.047" y="219.908" style="fill:#A5A4A3;" width="67.861" height="5.865"/>
		<rect x="0.047" y="243.368" style="fill:#A5A4A3;" width="39.965" height="5.865"/>
		<rect x="0.047" y="266.828" style="fill:#A5A4A3;" width="39.965" height="5.866"/>
		<rect x="0.047" y="290.288" style="fill:#A5A4A3;" width="39.965" height="5.865"/>
		<rect x="0.047" y="313.748" style="fill:#A5A4A3;" width="39.965" height="5.866"/>
		<rect x="0.047" y="337.209" style="fill:#A5A4A3;" width="67.861" height="5.865"/>
		<rect x="0.047" y="360.082" style="fill:#A5A4A3;" width="39.965" height="5.866"/>
		<rect x="0.047" y="383.543" style="fill:#A5A4A3;" width="39.965" height="5.865"/>
		<rect x="0.047" y="407.003" style="fill:#A5A4A3;" width="39.965" height="5.865"/>
		<rect x="0.047" y="430.464" style="fill:#A5A4A3;" width="39.965" height="5.865"/>
		<rect x="0.047" y="453.923" style="fill:#A5A4A3;" width="67.861" height="5.865"/>
		<rect x="0.047" y="476.797" style="fill:#A5A4A3;" width="39.965" height="5.865"/>
		<rect x="0.047" y="500.257" style="fill:#A5A4A3;" width="39.965" height="5.865"/>
	</g>
</g>
</svg>