<?xml version="1.0" encoding="iso-8859-1"?>
<!-- Uploaded to: SVG Repo, www.svgrepo.com, Generator: SVG Repo Mixer Tools -->
<svg height="800px" width="800px" version="1.1" id="Layer_1" xmlns="http://www.w3.org/2000/svg" xmlns:xlink="http://www.w3.org/1999/xlink" 
	 viewBox="0 0 512 512" xml:space="preserve">
<path style="fill:#FFDB56;" d="M247.355,503.559c0,0-33.831-33.481-48.102-92.721c-14.27-59.24-3.135-267.366-71.074-267.366
	c-67.938,0-56.804,208.126-71.074,267.366c-14.268,59.24-48.101,92.721-48.101,92.721"/>
<path style="fill:#FBA806;" d="M199.253,410.838c-14.27-59.241-3.135-267.366-71.074-267.366c-6.04,0-11.453,1.653-16.316,4.692
	c49.841,31.148,41.757,208.7,54.758,262.673c14.27,59.241,48.102,92.721,48.102,92.721h32.633
	C247.355,503.559,213.523,470.079,199.253,410.838z"/>
<path style="fill:#894BA2;" d="M481.617,503.559c0,0-33.831-33.481-48.102-92.721c-14.27-59.24-3.135-267.366-71.074-267.366
	c-67.938,0-56.804,208.126-71.074,267.366c-14.27,59.24-48.102,92.721-48.102,92.721"/>
<path style="fill:#763794;" d="M433.516,410.838c-14.27-59.241-3.135-267.366-71.074-267.366c-6.273,0-11.872,1.779-16.879,5.048
	c49.218,32.125,41.243,208.548,54.195,262.318c14.27,59.241,48.101,92.721,48.101,92.721h33.758
	C481.617,503.559,447.786,470.079,433.516,410.838z"/>
<path style="fill:#F77935;" d="M331.926,503.559c0,0-33.831-21.767-48.102-60.281c-14.27-38.514-3.135-173.822-71.074-173.822
	c-67.938,0-56.804,135.308-71.074,173.822c-14.27,38.514-48.102,60.281-48.102,60.281"/>
<path style="fill:#D9510D;" d="M283.825,443.279c-14.27-38.514-3.135-173.822-71.074-173.822c-6.275,0-11.87,1.161-16.879,3.286
	c49.216,20.888,41.243,135.578,54.195,170.535c14.27,38.514,48.102,60.281,48.102,60.281h33.758
	C331.926,503.559,298.094,481.792,283.825,443.279z"/>
<path d="M9.003,110.425c4.661,0,8.44-3.778,8.44-8.44V8.44c0-4.662-3.778-8.44-8.44-8.44s-8.44,3.778-8.44,8.44v93.546
	C0.564,106.647,4.342,110.425,9.003,110.425z"/>
<path d="M502.997,495.12h-17.713c-7.573-8.483-32.126-38.775-43.564-86.259c-3.797-15.757-5.758-43.066-8.029-74.685
	c-6.372-88.724-14.304-199.143-71.25-199.143s-64.876,110.418-71.25,199.142c-1.914,26.644-3.608,50.227-6.365,66.416
	c-0.286-2.532-0.569-5.096-0.855-7.685c-3.053-27.637-6.514-58.96-15.686-84.283c-11.442-31.589-30.126-47.606-55.534-47.606
	c-6.922,0-13.34,1.198-19.253,3.566c-7.628-68.07-22.827-129.55-65.319-129.55c-56.946,0-64.878,110.42-71.25,199.144
	c-2.272,31.62-4.233,58.927-8.029,74.684c-7.594,31.527-21.074,55.578-31.457,70.63V135.738c0-4.662-3.779-8.44-8.44-8.44
	s-8.44,3.778-8.44,8.44v367.821c0,0.082,0.01,0.163,0.012,0.245c0.006,0.189,0.01,0.378,0.028,0.566
	c0.012,0.129,0.035,0.254,0.053,0.38c0.02,0.146,0.038,0.291,0.066,0.437c0.027,0.138,0.064,0.272,0.098,0.408
	c0.033,0.131,0.062,0.262,0.101,0.392c0.041,0.135,0.09,0.266,0.137,0.397c0.045,0.128,0.088,0.257,0.14,0.383
	c0.052,0.126,0.111,0.248,0.169,0.37c0.06,0.127,0.116,0.254,0.182,0.378c0.064,0.12,0.136,0.235,0.205,0.351
	c0.071,0.119,0.14,0.24,0.217,0.357c0.083,0.125,0.174,0.243,0.264,0.363c0.074,0.1,0.145,0.203,0.225,0.3
	c0.123,0.15,0.255,0.291,0.387,0.433c0.053,0.057,0.1,0.118,0.155,0.174c0.005,0.004,0.01,0.009,0.015,0.013
	c0.197,0.198,0.402,0.386,0.618,0.564c0.07,0.057,0.143,0.106,0.214,0.16c0.147,0.114,0.294,0.23,0.448,0.333
	c0.117,0.079,0.239,0.146,0.359,0.218c0.116,0.07,0.23,0.144,0.349,0.209c0.122,0.065,0.246,0.119,0.37,0.178
	c0.126,0.06,0.249,0.124,0.378,0.178c0.115,0.047,0.232,0.084,0.348,0.127c0.144,0.053,0.286,0.109,0.433,0.154
	c0.106,0.033,0.214,0.054,0.321,0.082c0.16,0.042,0.317,0.088,0.48,0.12c0.118,0.024,0.239,0.036,0.357,0.054
	c0.2,0.032,0.402,0.06,0.607,0.077c0.225,0.019,0.449,0.033,0.674,0.034c0.01,0.001,0.019,0.002,0.028,0.002h84.561
	c0.006,0,0.012,0.001,0.018,0.001s0.01-0.001,0.016-0.001h409.4c4.661,0,8.44-3.778,8.44-8.44
	C511.437,498.897,507.659,495.12,502.997,495.12z M299.573,412.814c4.122-17.112,6.129-45.065,8.455-77.43
	c5.247-73.062,13.178-183.472,54.414-183.472s49.167,110.411,54.415,183.472c2.325,32.366,4.333,60.318,8.455,77.43
	c9.316,38.674,26.531,66.657,38.227,82.306H334.576c-7.04-5.101-31.647-24.57-42.837-54.773c-0.104-0.28-0.201-0.591-0.303-0.886
	C294.494,431.246,297.274,422.355,299.573,412.814z M182.594,335.385c2.325,32.366,4.332,60.317,8.454,77.429
	c9.316,38.674,26.531,66.657,38.227,82.306H116.968c11.175-10.929,24.661-27.423,32.623-48.909
	c4.32-11.658,6.357-30.099,8.716-51.453c2.95-26.698,6.293-56.957,14.78-80.388c2.06-5.688,4.311-10.674,6.769-14.993
	C180.907,311.907,181.783,324.093,182.594,335.385z M282.355,460.557c7.744,14.604,17.635,26.209,26.177,34.563h-47.187
	C267.479,486.914,275.12,475.314,282.355,460.557z M212.75,277.896c18.047,0,30.651,11.59,39.665,36.475
	c8.487,23.43,11.83,53.69,14.78,80.388c1.897,17.177,3.59,32.462,6.426,43.855c-9.317,23.093-20.802,39.987-28.326,49.623
	c-10.448-13.348-28.505-40.64-37.836-79.376c-3.796-15.757-5.757-43.065-8.029-74.684c-1.204-16.759-2.464-34.292-4.098-51.708
	C200.494,279.399,206.269,277.896,212.75,277.896z M65.31,412.814c4.122-17.112,6.129-45.064,8.454-77.429
	c5.247-73.062,13.178-183.473,54.415-183.473c30.769,0,42.993,61.475,49.398,123.036c-8.288,7.898-15.093,19.132-20.361,33.675
	c-9.172,25.324-12.633,56.647-15.686,84.283c-2.144,19.403-4.169,37.73-7.767,47.441c-11.194,30.211-35.814,49.684-42.837,54.773
	H27.084C38.779,479.471,55.994,451.488,65.31,412.814z"/>
</svg>